version 1
nodes
0 "S" -1
1 "fan" 0
2 "body" 1
3 "eff_loc" 1
4 "null" 3
5 "head" 1
6 "cover" 5
7 "hane" 5
8 "neck" 1
9 "neck_joint" 1
end
skeleton
time 0
0 -0.006520736 8.571034 0 0 -6.283185 0
1 0.00652074 47.2058 0 0 0 0
2 0 -47.2058 0 0 0 0
3 0 0.929421 0 0 0 0
4 0 0 0 0 0 0
5 0.007 0.00524667 -0.02 0 0 0
6 -0.007 -47.211 5.93 0 0 0
7 -0.007 8.45016 2.68682 0 0 0
8 0 -47.2058 0 0 0 0
9 0 -4.3996 -3.75516 0 0 0
time 1
0 -0.006520736 14.22665 0 0 -6.283185 0
1 0.00652074 47.2058 0 0 0 0
2 0 -47.2058 0 0 0 0
3 0 0.929421 0 0 0 0
4 0 0 0 0 0 0
5 0.007 0.00524667 -0.02 0 0 0
6 -0.007 -47.211 5.93 0 0 0
7 -0.007 8.45016 2.68682 0 0 0
8 0 -47.2058 0 0 0 0
9 0 -4.3996 -3.75516 0 0 0
time 2
0 -0.006520736 19.44875 0 0 -6.283185 0
1 0.00652074 47.2058 0 0 0 0
2 0 -47.2058 0 0 0 0
3 0 0.929421 0 0 0 0
4 0 0 0 0 0 0
5 0.007 0.00524667 -0.02 0 0 0
6 -0.007 -47.211 5.93 0 0 0
7 -0.007 8.45016 2.68682 0 0 0
8 0 -47.2058 0 0 0 0
9 0 -4.3996 -3.75516 0 0 0
time 3
0 -0.006520736 24.29104 0 0 -6.283185 0
1 0.00652074 47.2058 0 0 0 0
2 0 -47.2058 0 0 0 0
3 0 0.929421 0 0 0 0
4 0 0 0 0 0 0
5 0.007 0.00524667 -0.02 0 0 0
6 -0.007 -47.211 5.93 0 0 0
7 -0.007 8.45016 2.68682 0 0 0
8 0 -47.2058 0 0 0 0
9 0 -4.3996 -3.75516 0 0 0
time 4
0 -0.006520736 28.80722 0 0 -6.283185 0
1 0.00652074 47.2058 0 0 0 0
2 0 -47.2058 0 0 0 0
3 0 0.929421 0 0 0 0
4 0 0 0 0 0 0
5 0.007 0.00524667 -0.02 0 0 0
6 -0.007 -47.211 5.93 0 0 0
7 -0.007 8.45016 2.68682 0 0 0
8 0 -47.2058 0 0 0 0
9 0 -4.3996 -3.75516 0 0 0
time 5
0 -0.006520736 33.05099 0 0 -6.283122 0
1 0.00652074 47.2058 0 0 0 0
2 0 -47.2058 0 0 0 0
3 0 0.929421 0 0 0 0
4 0 0 0 0 0 0
5 0.007 0.00524667 -0.02 0 0 0
6 -0.007 -47.211 5.93 0 0 0
7 -0.007 8.45016 2.68682 0 0 0
8 0 -47.2058 0 0 0 0
9 0 -4.3996 -3.75516 0 0 0
time 6
0 -0.006520736 37.07606 0 0 -6.261126 0
1 0.00652074 47.2058 0 0 0 0
2 0 -47.2058 0 0 0 0
3 0 0.929421 0 0 0 0
4 0 0 0 0 0 0
5 0.007 0.00524667 -0.02 0 0 0
6 -0.007 -47.211 5.93 0 0 0
7 -0.007 8.45016 2.68682 0 0 0
8 0 -47.2058 0 0 0 0
9 0 -4.3996 -3.75516 0 0 0
time 7
0 -0.006520736 40.93596 0 0 -6.196403 0
1 0.00652074 47.2058 0 0 0 0
2 0 -47.2058 0 0 0 0
3 0 0.929421 0 0 0 0
4 0 0 0 0 0 0
5 0.007 0.00524667 -0.02 0 0 0
6 -0.007 -47.211 5.93 0 0 0
7 -0.007 8.45016 2.68682 0 0 0
8 0 -47.2058 0 0 0 0
9 0 -4.3996 -3.75516 0 0 0
time 8
0 -0.006520736 44.65448 0 0 -6.091201 0
1 0.00652074 47.2058 0 0 0 0
2 0 -47.2058 0 0 0 0
3 0 0.929421 0 0 0 0
4 0 0 0 0 0 0
5 0.007 0.00524667 -0.02 0 0 0
6 -0.007 -47.211 5.93 0 0 0
7 -0.007 8.45016 2.68682 0 0 0
8 0 -47.2058 0 0 0 0
9 0 -4.3996 -3.75516 0 0 0
time 9
0 -0.006520736 48.22812 0 0 -5.94771 0
1 0.00652074 47.2058 0 0 0 0
2 0 -47.2058 0 0 0 0
3 0 0.929421 0 0 0 0
4 0 0 0 0 0 0
5 0.007 0.00524667 -0.02 0 0 0
6 -0.007 -47.211 5.93 0 0 0
7 -0.007 8.45016 2.68682 0 0 0
8 0 -47.2058 0 0 0 0
9 0 -4.3996 -3.75516 0 0 0
time 10
0 -0.006520736 51.66011 0 0 -5.768116 0
1 0.00652074 47.2058 0 0 0 0
2 0 -47.2058 0 0 0 0
3 0 0.929421 0 0 0 0
4 0 0 0 0 0 0
5 0.007 0.00524667 -0.02 0 0 0
6 -0.007 -47.211 5.93 0 0 0
7 -0.007 8.45016 2.68682 0 0 0
8 0 -47.2058 0 0 0 0
9 0 -4.3996 -3.75516 0 0 0
time 11
0 -0.006520736 54.95367 0 0 -5.554609 0
1 0.00652074 47.2058 0 0 0 0
2 0 -47.2058 0 0 0 0
3 0 0.929421 0 0 0 0
4 0 0 0 0 0 0
5 0.007 0.00524667 -0.02 0 0 0
6 -0.007 -47.211 5.93 0 0 0
7 -0.007 8.45016 2.68682 0 0 0
8 0 -47.2058 0 0 0 0
9 0 -4.3996 -3.75516 0 0 0
time 12
0 -0.006520736 58.11204 0 0 -5.309376 0
1 0.00652074 47.2058 0 0 0 0
2 0 -47.2058 0 0 0 0
3 0 0.929421 0 0 0 0
4 0 0 0 0 0 0
5 0.007 0.00524667 -0.02 0 0 0
6 -0.007 -47.211 5.93 0 0 0
7 -0.007 8.45016 2.68682 0 0 0
8 0 -47.2058 0 0 0 0
9 0 -4.3996 -3.75516 0 0 0
time 13
0 -0.006520736 61.13844 0 0 -5.034605 0
1 0.00652074 47.2058 0 0 0 0
2 0 -47.2058 0 0 0 0
3 0 0.929421 0 0 0 0
4 0 0 0 0 0 0
5 0.007 0.00524667 -0.02 0 0 0
6 -0.007 -47.211 5.93 0 0 0
7 -0.007 8.45016 2.68682 0 0 0
8 0 -47.2058 0 0 0 0
9 0 -4.3996 -3.75516 0 0 0
time 14
0 -0.006520736 64.0361 0 0 -4.732484 0
1 0.00652074 47.2058 0 0 0 0
2 0 -47.2058 0 0 0 0
3 0 0.929421 0 0 0 0
4 0 0 0 0 0 0
5 0.007 0.00524667 -0.02 0 0 0
6 -0.007 -47.211 5.93 0 0 0
7 -0.007 8.45016 2.68682 0 0 0
8 0 -47.2058 0 0 0 0
9 0 -4.3996 -3.75516 0 0 0
time 15
0 -0.006520736 66.80825 0 0 -4.4052 0
1 0.00652074 47.2058 0 0 0 0
2 0 -47.2058 0 0 0 0
3 0 0.929421 0 0 0 0
4 0 0 0 0 0 0
5 0.007 0.00524667 -0.02 0 0 0
6 -0.007 -47.211 5.93 0 0 0
7 -0.007 8.45016 2.68682 0 0 0
8 0 -47.2058 0 0 0 0
9 0 -4.3996 -3.75516 0 0 0
time 16
0 -0.006520736 69.45811 0 0 -4.054944 0
1 0.00652074 47.2058 0 0 0 0
2 0 -47.2058 0 0 0 0
3 0 0.929421 0 0 0 0
4 0 0 0 0 0 0
5 0.007 0.00524667 -0.02 0 0 0
6 -0.007 -47.211 5.93 0 0 0
7 -0.007 8.45016 2.68682 0 0 0
8 0 -47.2058 0 0 0 0
9 0 -4.3996 -3.75516 0 0 0
time 17
0 -0.006520736 71.98894 0 0 -3.683901 0
1 0.00652074 47.2058 0 0 0 0
2 0 -47.2058 0 0 0 0
3 0 0.929421 0 0 0 0
4 0 0 0 0 0 0
5 0.007 0.00524667 -0.02 0 0 0
6 -0.007 -47.211 5.93 0 0 0
7 -0.007 8.45016 2.68682 0 0 0
8 0 -47.2058 0 0 0 0
9 0 -4.3996 -3.75516 0 0 0
time 18
0 -0.006520736 74.40392 0 0 -3.29426 0
1 0.00652074 47.2058 0 0 0 0
2 0 -47.2058 0 0 0 0
3 0 0.929421 0 0 0 0
4 0 0 0 0 0 0
5 0.007 0.00524667 -0.02 0 0 0
6 -0.007 -47.211 5.93 0 0 0
7 -0.007 8.45016 2.68682 0 0 0
8 0 -47.2058 0 0 0 0
9 0 -4.3996 -3.75516 0 0 0
time 19
0 -0.006520736 76.70631 0 0 -2.888209 0
1 0.00652074 47.2058 0 0 0 0
2 0 -47.2058 0 0 0 0
3 0 0.929421 0 0 0 0
4 0 0 0 0 0 0
5 0.007 0.00524667 -0.02 0 0 0
6 -0.007 -47.211 5.93 0 0 0
7 -0.007 8.45016 2.68682 0 0 0
8 0 -47.2058 0 0 0 0
9 0 -4.3996 -3.75516 0 0 0
time 20
0 -0.006520736 78.89931 0 0 -2.467936 0
1 0.00652074 47.2058 0 0 0 0
2 0 -47.2058 0 0 0 0
3 0 0.929421 0 0 0 0
4 0 0 0 0 0 0
5 0.007 0.00524667 -0.02 0 0 0
6 -0.007 -47.211 5.93 0 0 0
7 -0.007 8.45016 2.68682 0 0 0
8 0 -47.2058 0 0 0 0
9 0 -4.3996 -3.75516 0 0 0
time 21
0 -0.006520736 80.98657 0 0 -2.035629 0
1 0.00652074 47.2058 0 0 0 0
2 0 -47.2058 0 0 0 0
3 0 0.929421 0 0 0 0
4 0 0 0 0 0 0
5 0.007 0.00524667 -0.02 0 0 0
6 -0.007 -47.211 5.93 0 0 0
7 -0.007 8.45016 2.68682 0 0 0
8 0 -47.2058 0 0 0 0
9 0 -4.3996 -3.75516 0 0 0
time 22
0 -0.006520736 82.96475 0 0 -1.593476 0
1 0.00652074 47.2058 0 0 0 0
2 0 -47.2058 0 0 0 0
3 0 0.929421 0 0 0 0
4 0 0 0 0 0 0
5 0.007 0.00524667 -0.02 0 0 0
6 -0.007 -47.211 5.93 0 0 0
7 -0.007 8.45016 2.68682 0 0 0
8 0 -47.2058 0 0 0 0
9 0 -4.3996 -3.75516 0 0 0
time 23
0 -0.006520736 84.82151 0 0 -1.143666 0
1 0.00652074 47.2058 0 0 0 0
2 0 -47.2058 0 0 0 0
3 0 0.929421 0 0 0 0
4 0 0 0 0 0 0
5 0.007 0.00524667 -0.02 0 0 0
6 -0.007 -47.211 5.93 0 0 0
7 -0.007 8.45016 2.68682 0 0 0
8 0 -47.2058 0 0 0 0
9 0 -4.3996 -3.75516 0 0 0
time 24
0 -0.006520736 86.5442 0 0 -0.6883846 0
1 0.00652074 47.2058 0 0 0 0
2 0 -47.2058 0 0 0 0
3 0 0.929421 0 0 0 0
4 0 0 0 0 0 0
5 0.007 0.00524667 -0.02 0 0 0
6 -0.007 -47.211 5.93 0 0 0
7 -0.007 8.45016 2.68682 0 0 0
8 0 -47.2058 0 0 0 0
9 0 -4.3996 -3.75516 0 0 0
time 25
0 -0.006520736 88.1202 0 0 -0.2298218 0
1 0.00652074 47.2058 0 0 0 0
2 0 -47.2058 0 0 0 0
3 0 0.929421 0 0 0 0
4 0 0 0 0 0 0
5 0.007 0.00524667 -0.02 0 0 0
6 -0.007 -47.211 5.93 0 0 0
7 -0.007 8.45016 2.68682 0 0 0
8 0 -47.2058 0 0 0 0
9 0 -4.3996 -3.75516 0 0 0
time 26
0 -0.006520736 89.53684 0 0 0.2298347 0
1 0.00652074 47.2058 0 0 0 0
2 0 -47.2058 0 0 0 0
3 0 0.929421 0 0 0 0
4 0 0 0 0 0 0
5 0.007 0.00524667 -0.02 0 0 0
6 -0.007 -47.211 5.93 0 0 0
7 -0.007 8.45016 2.68682 0 0 0
8 0 -47.2058 0 0 0 0
9 0 -4.3996 -3.75516 0 0 0
time 27
0 -0.006520736 90.78149 0 0 0.688397 0
1 0.00652074 47.2058 0 0 0 0
2 0 -47.2058 0 0 0 0
3 0 0.929421 0 0 0 0
4 0 0 0 0 0 0
5 0.007 0.00524667 -0.02 0 0 0
6 -0.007 -47.211 5.93 0 0 0
7 -0.007 8.45016 2.68682 0 0 0
8 0 -47.2058 0 0 0 0
9 0 -4.3996 -3.75516 0 0 0
time 28
0 -0.006520736 91.84149 0 0 1.143678 0
1 0.00652074 47.2058 0 0 0 0
2 0 -47.2058 0 0 0 0
3 0 0.929421 0 0 0 0
4 0 0 0 0 0 0
5 0.007 0.00524667 -0.02 0 0 0
6 -0.007 -47.211 5.93 0 0 0
7 -0.007 8.45016 2.68682 0 0 0
8 0 -47.2058 0 0 0 0
9 0 -4.3996 -3.75516 0 0 0
time 29
0 -0.006520736 92.70422 0 0 1.593487 0
1 0.00652074 47.2058 0 0 0 0
2 0 -47.2058 0 0 0 0
3 0 0.929421 0 0 0 0
4 0 0 0 0 0 0
5 0.007 0.00524667 -0.02 0 0 0
6 -0.007 -47.211 5.93 0 0 0
7 -0.007 8.45016 2.68682 0 0 0
8 0 -47.2058 0 0 0 0
9 0 -4.3996 -3.75516 0 0 0
time 30
0 -0.006520736 93.357 0 0 2.03564 0
1 0.00652074 47.2058 0 0 0 0
2 0 -47.2058 0 0 0 0
3 0 0.929421 0 0 0 0
4 0 0 0 0 0 0
5 0.007 0.00524667 -0.02 0 0 0
6 -0.007 -47.211 5.93 0 0 0
7 -0.007 8.45016 2.68682 0 0 0
8 0 -47.2058 0 0 0 0
9 0 -4.3996 -3.75516 0 0 0
time 31
0 -0.006520736 93.78721 0 0 2.467947 0
1 0.00652074 47.2058 0 0 0 0
2 0 -47.2058 0 0 0 0
3 0 0.929421 0 0 0 0
4 0 0 0 0 0 0
5 0.007 0.00524667 -0.02 0 0 0
6 -0.007 -47.211 5.93 0 0 0
7 -0.007 8.45016 2.68682 0 0 0
8 0 -47.2058 0 0 0 0
9 0 -4.3996 -3.75516 0 0 0
time 32
0 -0.006520736 93.95615 0 0 2.88822 0
1 0.00652074 47.2058 0 0 0 0
2 0 -47.2058 0 0 0 0
3 0 0.929421 0 0 0 0
4 0 0 0 0 0 0
5 0.007 0.00524667 -0.02 0 0 0
6 -0.007 -47.211 5.93 0 0 0
7 -0.007 8.45016 2.68682 0 0 0
8 0 -47.2058 0 0 0 0
9 0 -4.3996 -3.75516 0 0 0
time 33
0 -0.006520736 93.74528 0 0 3.29427 0
1 0.00652074 47.2058 0 0 0 0
2 0 -47.2058 0 0 0 0
3 0 0.929421 0 0 0 0
4 0 0 0 0 0 0
5 0.007 0.00524667 -0.02 0 0 0
6 -0.007 -47.211 5.93 0 0 0
7 -0.007 8.45016 2.68682 0 0 0
8 0 -47.2058 0 0 0 0
9 0 -4.3996 -3.75516 0 0 0
time 34
0 -0.006520736 93.07491 0 0 3.683911 0
1 0.00652074 47.2058 0 0 0 0
2 0 -47.2058 0 0 0 0
3 0 0.929421 0 0 0 0
4 0 0 0 0 0 0
5 0.007 0.00524667 -0.02 0 0 0
6 -0.007 -47.211 5.93 0 0 0
7 -0.007 8.45016 2.68682 0 0 0
8 0 -47.2058 0 0 0 0
9 0 -4.3996 -3.75516 0 0 0
time 35
0 -0.006520736 91.86919 0 0 4.054953 0
1 0.00652074 47.2058 0 0 0 0
2 0 -47.2058 0 0 0 0
3 0 0.929421 0 0 0 0
4 0 0 0 0 0 0
5 0.007 0.00524667 -0.02 0 0 0
6 -0.007 -47.211 5.93 0 0 0
7 -0.007 8.45016 2.68682 0 0 0
8 0 -47.2058 0 0 0 0
9 0 -4.3996 -3.75516 0 0 0
time 36
0 -0.006520736 90.0523 0 0 4.40521 0
1 0.00652074 47.2058 0 0 0 0
2 0 -47.2058 0 0 0 0
3 0 0.929421 0 0 0 0
4 0 0 0 0 0 0
5 0.007 0.00524667 -0.02 0 0 0
6 -0.007 -47.211 5.93 0 0 0
7 -0.007 8.45016 2.68682 0 0 0
8 0 -47.2058 0 0 0 0
9 0 -4.3996 -3.75516 0 0 0
time 37
0 -0.006520736 87.54838 0 0 4.732492 0
1 0.00652074 47.2058 0 0 0 0
2 0 -47.2058 0 0 0 0
3 0 0.929421 0 0 0 0
4 0 0 0 0 0 0
5 0.007 0.00524667 -0.02 0 0 0
6 -0.007 -47.211 5.93 0 0 0
7 -0.007 8.45016 2.68682 0 0 0
8 0 -47.2058 0 0 0 0
9 0 -4.3996 -3.75516 0 0 0
time 38
0 -0.006520736 84.28159 0 0 5.034613 0
1 0.00652074 47.2058 0 0 0 0
2 0 -47.2058 0 0 0 0
3 0 0.929421 0 0 0 0
4 0 0 0 0 0 0
5 0.007 0.00524667 -0.02 0 0 0
6 -0.007 -47.211 5.93 0 0 0
7 -0.007 8.45016 2.68682 0 0 0
8 0 -47.2058 0 0 0 0
9 0 -4.3996 -3.75516 0 0 0
time 39
0 -0.006520736 80.17609 0 0 5.309384 0
1 0.00652074 47.2058 0 0 0 0
2 0 -47.2058 0 0 0 0
3 0 0.929421 0 0 0 0
4 0 0 0 0 0 0
5 0.007 0.00524667 -0.02 0 0 0
6 -0.007 -47.211 5.93 0 0 0
7 -0.007 8.45016 2.68682 0 0 0
8 0 -47.2058 0 0 0 0
9 0 -4.3996 -3.75516 0 0 0
time 40
0 -0.006520736 75.15543 0 0 5.554616 0
1 0.00652074 47.2058 0 0 0 0
2 0 -47.2058 0 0 0 0
3 0 0.929421 0 0 0 0
4 0 0 0 0 0 0
5 0.007 0.00524667 -0.02 0 0 0
6 -0.007 -47.211 5.93 0 0 0
7 -0.007 8.45016 2.68682 0 0 0
8 0 -47.2058 0 0 0 0
9 0 -4.3996 -3.75516 0 0 0
time 41
0 -0.006520736 69.21099 0 0 5.768123 0
1 0.00652074 47.2058 0 0 0 0
2 0 -47.2058 0 0 0 0
3 0 0.929421 0 0 0 0
4 0 0 0 0 0 0
5 0.007 0.00524667 -0.02 0 0 0
6 -0.007 -47.211 5.93 0 0 0
7 -0.007 8.45016 2.68682 0 0 0
8 0 -47.2058 0 0 0 0
9 0 -4.3996 -3.75516 0 0 0
time 42
0 -0.006520736 62.8069 0 0 5.947715 0
1 0.00652074 47.2058 0 0 0 0
2 0 -47.2058 0 0 0 0
3 0 0.929421 0 0 0 0
4 0 0 0 0 0 0
5 0.007 0.00524667 -0.02 0 0 0
6 -0.007 -47.211 5.93 0 0 0
7 -0.007 8.45016 2.68682 0 0 0
8 0 -47.2058 0 0 0 0
9 0 -4.3996 -3.75516 0 0 0
time 43
0 -0.006520736 56.54703 0 0 6.091206 0
1 0.00652074 47.2058 0 0 0 0
2 0 -47.2058 0 0 0 0
3 0 0.929421 0 0 0 0
4 0 0 0 0 0 0
5 0.007 0.00524667 -0.02 0 0 0
6 -0.007 -47.211 5.93 0 0 0
7 -0.007 8.45016 2.68682 0 0 0
8 0 -47.2058 0 0 0 0
9 0 -4.3996 -3.75516 0 0 0
time 44
0 -0.006520736 51.09905 0 0 6.196407 0
1 0.00652074 47.2058 0 0 0 0
2 0 -47.2058 0 0 0 0
3 0 0.929421 0 0 0 0
4 0 0 0 0 0 0
5 0.007 0.00524667 -0.02 0 0 0
6 -0.007 -47.211 5.93 0 0 0
7 -0.007 8.45016 2.68682 0 0 0
8 0 -47.2058 0 0 0 0
9 0 -4.3996 -3.75516 0 0 0
time 45
0 -0.006520736 47.12431 0 0 6.261128 0
1 0.00652074 47.2058 0 0 0 0
2 0 -47.2058 0 0 0 0
3 0 0.929421 0 0 0 0
4 0 0 0 0 0 0
5 0.007 0.00524667 -0.02 0 0 0
6 -0.007 -47.211 5.93 0 0 0
7 -0.007 8.45016 2.68682 0 0 0
8 0 -47.2058 0 0 0 0
9 0 -4.3996 -3.75516 0 0 0
end
