version 1
nodes
0 "S" -1
1 "fan" 0
2 "body" 1
3 "eff_loc" 1
4 "null" 3
5 "head" 1
6 "cover" 5
7 "hane" 5
8 "neck" 1
9 "neck_joint" 1
end
skeleton
time 0
0 -0.006520736 44.78805 0 0 0 0
1 0.00652074 47.2058 0 0 0 0
2 0 -47.2058 0 0 0 0
3 0 0.929421 0 0 0 0
4 0 0 0 0 0 0
5 0.007 0.00524667 -0.02 0 0 0
6 -0.007 -47.211 5.93 0 0 0
7 -0.007 8.45016 2.68682 0 0 0
8 0 -47.2058 0 0 0 0
9 0 -4.3996 -3.75516 0 0 0
time 1
0 -0.006520736 44.78805 0 0 0.01774732 0
1 0.00652074 47.2058 0 0 0 0
2 0 -47.2058 0 0 0 0
3 0 0.929421 0 0 0 0
4 0 0 0 0 0 0
5 0.007 0.00524667 -0.02 0 0 0
6 -0.007 -47.211 5.93 0 0 0
7 -0.007 8.45016 2.68682 0 0 0
8 0 -47.2058 0 0 0 0
9 0 -4.3996 -3.75516 0 0 0
time 2
0 -0.006520736 44.78805 0 0 0.03549469 0
1 0.00652074 47.2058 0 0 0 0
2 0 -47.2058 0 0 0 0
3 0 0.929421 0 0 0 0
4 0 0 0 0 0 0
5 0.007 0.00524667 -0.02 0 0 0
6 -0.007 -47.211 5.93 0 0 0
7 -0.007 8.45016 2.68682 0 0 0
8 0 -47.2058 0 0 0 0
9 0 -4.3996 -3.75516 0 0 0
time 3
0 -0.006520736 44.78805 0 0 0.05324208 0
1 0.00652074 47.2058 0 0 0 0
2 0 -47.2058 0 0 0 0
3 0 0.929421 0 0 0 0
4 0 0 0 0 0 0
5 0.007 0.00524667 -0.02 0 0 0
6 -0.007 -47.211 5.93 0 0 0
7 -0.007 8.45016 2.68682 0 0 0
8 0 -47.2058 0 0 0 0
9 0 -4.3996 -3.75516 0 0 0
time 4
0 -0.006520736 44.78805 0 0 0.07098951 0
1 0.00652074 47.2058 0 0 0 0
2 0 -47.2058 0 0 0 0
3 0 0.929421 0 0 0 0
4 0 0 0 0 0 0
5 0.007 0.00524667 -0.02 0 0 0
6 -0.007 -47.211 5.93 0 0 0
7 -0.007 8.45016 2.68682 0 0 0
8 0 -47.2058 0 0 0 0
9 0 -4.3996 -3.75516 0 0 0
time 5
0 -0.006520736 44.78805 0 0 0.08873697 0
1 0.00652074 47.2058 0 0 0 0
2 0 -47.2058 0 0 0 0
3 0 0.929421 0 0 0 0
4 0 0 0 0 0 0
5 0.007 0.00524667 -0.02 0 0 0
6 -0.007 -47.211 5.93 0 0 0
7 -0.007 8.45016 2.68682 0 0 0
8 0 -47.2058 0 0 0 0
9 0 -4.3996 -3.75516 0 0 0
time 6
0 -0.006520736 44.78805 0 0 0.1064845 0
1 0.00652074 47.2058 0 0 0 0
2 0 -47.2058 0 0 0 0
3 0 0.929421 0 0 0 0
4 0 0 0 0 0 0
5 0.007 0.00524667 -0.02 0 0 0
6 -0.007 -47.211 5.93 0 0 0
7 -0.007 8.45016 2.68682 0 0 0
8 0 -47.2058 0 0 0 0
9 0 -4.3996 -3.75516 0 0 0
time 7
0 -0.006520736 44.78805 0 0 0.124232 0
1 0.00652074 47.2058 0 0 0 0
2 0 -47.2058 0 0 0 0
3 0 0.929421 0 0 0 0
4 0 0 0 0 0 0
5 0.007 0.00524667 -0.02 0 0 0
6 -0.007 -47.211 5.93 0 0 0
7 -0.007 8.45016 2.68682 0 0 0
8 0 -47.2058 0 0 0 0
9 0 -4.3996 -3.75516 0 0 0
time 8
0 -0.006520736 44.78805 0 0 0.1419796 0
1 0.00652074 47.2058 0 0 0 0
2 0 -47.2058 0 0 0 0
3 0 0.929421 0 0 0 0
4 0 0 0 0 0 0
5 0.007 0.00524667 -0.02 0 0 0
6 -0.007 -47.211 5.93 0 0 0
7 -0.007 8.45016 2.68682 0 0 0
8 0 -47.2058 0 0 0 0
9 0 -4.3996 -3.75516 0 0 0
time 9
0 -0.006520736 44.78805 0 0 0.1597272 0
1 0.00652074 47.2058 0 0 0 0
2 0 -47.2058 0 0 0 0
3 0 0.929421 0 0 0 0
4 0 0 0 0 0 0
5 0.007 0.00524667 -0.02 0 0 0
6 -0.007 -47.211 5.93 0 0 0
7 -0.007 8.45016 2.68682 0 0 0
8 0 -47.2058 0 0 0 0
9 0 -4.3996 -3.75516 0 0 0
time 10
0 -0.006520736 44.78805 0 0 0.1774749 0
1 0.00652074 47.2058 0 0 0 0
2 0 -47.2058 0 0 0 0
3 0 0.929421 0 0 0 0
4 0 0 0 0 0 0
5 0.007 0.00524667 -0.02 0 0 0
6 -0.007 -47.211 5.93 0 0 0
7 -0.007 8.45016 2.68682 0 0 0
8 0 -47.2058 0 0 0 0
9 0 -4.3996 -3.75516 0 0 0
time 11
0 -0.006520736 44.78805 0 0 0.1952225 0
1 0.00652074 47.2058 0 0 0 0
2 0 -47.2058 0 0 0 0
3 0 0.929421 0 0 0 0
4 0 0 0 0 0 0
5 0.007 0.00524667 -0.02 0 0 0
6 -0.007 -47.211 5.93 0 0 0
7 -0.007 8.45016 2.68682 0 0 0
8 0 -47.2058 0 0 0 0
9 0 -4.3996 -3.75516 0 0 0
time 12
0 -0.006520736 44.78805 0 0 0.2129702 0
1 0.00652074 47.2058 0 0 0 0
2 0 -47.2058 0 0 0 0
3 0 0.929421 0 0 0 0
4 0 0 0 0 0 0
5 0.007 0.00524667 -0.02 0 0 0
6 -0.007 -47.211 5.93 0 0 0
7 -0.007 8.45016 2.68682 0 0 0
8 0 -47.2058 0 0 0 0
9 0 -4.3996 -3.75516 0 0 0
time 13
0 -0.006520736 44.78805 0 0 0.230718 0
1 0.00652074 47.2058 0 0 0 0
2 0 -47.2058 0 0 0 0
3 0 0.929421 0 0 0 0
4 0 0 0 0 0 0
5 0.007 0.00524667 -0.02 0 0 0
6 -0.007 -47.211 5.93 0 0 0
7 -0.007 8.45016 2.68682 0 0 0
8 0 -47.2058 0 0 0 0
9 0 -4.3996 -3.75516 0 0 0
time 14
0 -0.006520736 44.78805 0 0 0.2484658 0
1 0.00652074 47.2058 0 0 0 0
2 0 -47.2058 0 0 0 0
3 0 0.929421 0 0 0 0
4 0 0 0 0 0 0
5 0.007 0.00524667 -0.02 0 0 0
6 -0.007 -47.211 5.93 0 0 0
7 -0.007 8.45016 2.68682 0 0 0
8 0 -47.2058 0 0 0 0
9 0 -4.3996 -3.75516 0 0 0
time 15
0 -0.006520736 44.78805 0 0 0.2662136 0
1 0.00652074 47.2058 0 0 0 0
2 0 -47.2058 0 0 0 0
3 0 0.929421 0 0 0 0
4 0 0 0 0 0 0
5 0.007 0.00524667 -0.02 0 0 0
6 -0.007 -47.211 5.93 0 0 0
7 -0.007 8.45016 2.68682 0 0 0
8 0 -47.2058 0 0 0 0
9 0 -4.3996 -3.75516 0 0 0
time 16
0 -0.006520736 44.78805 0 0 0.2839615 0
1 0.00652074 47.2058 0 0 0 0
2 0 -47.2058 0 0 0 0
3 0 0.929421 0 0 0 0
4 0 0 0 0 0 0
5 0.007 0.00524667 -0.02 0 0 0
6 -0.007 -47.211 5.93 0 0 0
7 -0.007 8.45016 2.68682 0 0 0
8 0 -47.2058 0 0 0 0
9 0 -4.3996 -3.75516 0 0 0
time 17
0 -0.006520736 44.78805 0 0 0.3017093 0
1 0.00652074 47.2058 0 0 0 0
2 0 -47.2058 0 0 0 0
3 0 0.929421 0 0 0 0
4 0 0 0 0 0 0
5 0.007 0.00524667 -0.02 0 0 0
6 -0.007 -47.211 5.93 0 0 0
7 -0.007 8.45016 2.68682 0 0 0
8 0 -47.2058 0 0 0 0
9 0 -4.3996 -3.75516 0 0 0
time 18
0 -0.006520736 44.78805 0 0 0.3194573 0
1 0.00652074 47.2058 0 0 0 0
2 0 -47.2058 0 0 0 0
3 0 0.929421 0 0 0 0
4 0 0 0 0 0 0
5 0.007 0.00524667 -0.02 0 0 0
6 -0.007 -47.211 5.93 0 0 0
7 -0.007 8.45016 2.68682 0 0 0
8 0 -47.2058 0 0 0 0
9 0 -4.3996 -3.75516 0 0 0
time 19
0 -0.006520736 44.78805 0 0 0.3372052 0
1 0.00652074 47.2058 0 0 0 0
2 0 -47.2058 0 0 0 0
3 0 0.929421 0 0 0 0
4 0 0 0 0 0 0
5 0.007 0.00524667 -0.02 0 0 0
6 -0.007 -47.211 5.93 0 0 0
7 -0.007 8.45016 2.68682 0 0 0
8 0 -47.2058 0 0 0 0
9 0 -4.3996 -3.75516 0 0 0
time 20
0 -0.006520736 44.78805 0 0 0.3549532 0
1 0.00652074 47.2058 0 0 0 0
2 0 -47.2058 0 0 0 0
3 0 0.929421 0 0 0 0
4 0 0 0 0 0 0
5 0.007 0.00524667 -0.02 0 0 0
6 -0.007 -47.211 5.93 0 0 0
7 -0.007 8.45016 2.68682 0 0 0
8 0 -47.2058 0 0 0 0
9 0 -4.3996 -3.75516 0 0 0
time 21
0 -0.006520736 44.78805 0 0 0.3727012 0
1 0.00652074 47.2058 0 0 0 0
2 0 -47.2058 0 0 0 0
3 0 0.929421 0 0 0 0
4 0 0 0 0 0 0
5 0.007 0.00524667 -0.02 0 0 0
6 -0.007 -47.211 5.93 0 0 0
7 -0.007 8.45016 2.68682 0 0 0
8 0 -47.2058 0 0 0 0
9 0 -4.3996 -3.75516 0 0 0
time 22
0 -0.006520736 44.78805 0 0 0.3904492 0
1 0.00652074 47.2058 0 0 0 0
2 0 -47.2058 0 0 0 0
3 0 0.929421 0 0 0 0
4 0 0 0 0 0 0
5 0.007 0.00524667 -0.02 0 0 0
6 -0.007 -47.211 5.93 0 0 0
7 -0.007 8.45016 2.68682 0 0 0
8 0 -47.2058 0 0 0 0
9 0 -4.3996 -3.75516 0 0 0
time 23
0 -0.006520736 44.78805 0 0 0.4081973 0
1 0.00652074 47.2058 0 0 0 0
2 0 -47.2058 0 0 0 0
3 0 0.929421 0 0 0 0
4 0 0 0 0 0 0
5 0.007 0.00524667 -0.02 0 0 0
6 -0.007 -47.211 5.93 0 0 0
7 -0.007 8.45016 2.68682 0 0 0
8 0 -47.2058 0 0 0 0
9 0 -4.3996 -3.75516 0 0 0
time 24
0 -0.006520736 44.78805 0 0 0.4259454 0
1 0.00652074 47.2058 0 0 0 0
2 0 -47.2058 0 0 0 0
3 0 0.929421 0 0 0 0
4 0 0 0 0 0 0
5 0.007 0.00524667 -0.02 0 0 0
6 -0.007 -47.211 5.93 0 0 0
7 -0.007 8.45016 2.68682 0 0 0
8 0 -47.2058 0 0 0 0
9 0 -4.3996 -3.75516 0 0 0
time 25
0 -0.006520736 44.78805 0 0 0.4436936 0
1 0.00652074 47.2058 0 0 0 0
2 0 -47.2058 0 0 0 0
3 0 0.929421 0 0 0 0
4 0 0 0 0 0 0
5 0.007 0.00524667 -0.02 0 0 0
6 -0.007 -47.211 5.93 0 0 0
7 -0.007 8.45016 2.68682 0 0 0
8 0 -47.2058 0 0 0 0
9 0 -4.3996 -3.75516 0 0 0
time 26
0 -0.006520736 44.78805 0 0 0.4614417 0
1 0.00652074 47.2058 0 0 0 0
2 0 -47.2058 0 0 0 0
3 0 0.929421 0 0 0 0
4 0 0 0 0 0 0
5 0.007 0.00524667 -0.02 0 0 0
6 -0.007 -47.211 5.93 0 0 0
7 -0.007 8.45016 2.68682 0 0 0
8 0 -47.2058 0 0 0 0
9 0 -4.3996 -3.75516 0 0 0
time 27
0 -0.006520736 44.78805 0 0 0.4791899 0
1 0.00652074 47.2058 0 0 0 0
2 0 -47.2058 0 0 0 0
3 0 0.929421 0 0 0 0
4 0 0 0 0 0 0
5 0.007 0.00524667 -0.02 0 0 0
6 -0.007 -47.211 5.93 0 0 0
7 -0.007 8.45016 2.68682 0 0 0
8 0 -47.2058 0 0 0 0
9 0 -4.3996 -3.75516 0 0 0
time 28
0 -0.006520736 44.78805 0 0 0.4969381 0
1 0.00652074 47.2058 0 0 0 0
2 0 -47.2058 0 0 0 0
3 0 0.929421 0 0 0 0
4 0 0 0 0 0 0
5 0.007 0.00524667 -0.02 0 0 0
6 -0.007 -47.211 5.93 0 0 0
7 -0.007 8.45016 2.68682 0 0 0
8 0 -47.2058 0 0 0 0
9 0 -4.3996 -3.75516 0 0 0
time 29
0 -0.006520736 44.78805 0 0 0.5146864 0
1 0.00652074 47.2058 0 0 0 0
2 0 -47.2058 0 0 0 0
3 0 0.929421 0 0 0 0
4 0 0 0 0 0 0
5 0.007 0.00524667 -0.02 0 0 0
6 -0.007 -47.211 5.93 0 0 0
7 -0.007 8.45016 2.68682 0 0 0
8 0 -47.2058 0 0 0 0
9 0 -4.3996 -3.75516 0 0 0
time 30
0 -0.006520736 44.78805 0 0 0.5324347 0
1 0.00652074 47.2058 0 0 0 0
2 0 -47.2058 0 0 0 0
3 0 0.929421 0 0 0 0
4 0 0 0 0 0 0
5 0.007 0.00524667 -0.02 0 0 0
6 -0.007 -47.211 5.93 0 0 0
7 -0.007 8.45016 2.68682 0 0 0
8 0 -47.2058 0 0 0 0
9 0 -4.3996 -3.75516 0 0 0
time 31
0 -0.006520736 44.78805 0 0 0.5501831 0
1 0.00652074 47.2058 0 0 0 0
2 0 -47.2058 0 0 0 0
3 0 0.929421 0 0 0 0
4 0 0 0 0 0 0
5 0.007 0.00524667 -0.02 0 0 0
6 -0.007 -47.211 5.93 0 0 0
7 -0.007 8.45016 2.68682 0 0 0
8 0 -47.2058 0 0 0 0
9 0 -4.3996 -3.75516 0 0 0
time 32
0 -0.006520736 44.78805 0 0 0.5679314 0
1 0.00652074 47.2058 0 0 0 0
2 0 -47.2058 0 0 0 0
3 0 0.929421 0 0 0 0
4 0 0 0 0 0 0
5 0.007 0.00524667 -0.02 0 0 0
6 -0.007 -47.211 5.93 0 0 0
7 -0.007 8.45016 2.68682 0 0 0
8 0 -47.2058 0 0 0 0
9 0 -4.3996 -3.75516 0 0 0
time 33
0 -0.006520736 44.78805 0 0 0.5856798 0
1 0.00652074 47.2058 0 0 0 0
2 0 -47.2058 0 0 0 0
3 0 0.929421 0 0 0 0
4 0 0 0 0 0 0
5 0.007 0.00524667 -0.02 0 0 0
6 -0.007 -47.211 5.93 0 0 0
7 -0.007 8.45016 2.68682 0 0 0
8 0 -47.2058 0 0 0 0
9 0 -4.3996 -3.75516 0 0 0
time 34
0 -0.006520736 44.78805 0 0 0.6034281 0
1 0.00652074 47.2058 0 0 0 0
2 0 -47.2058 0 0 0 0
3 0 0.929421 0 0 0 0
4 0 0 0 0 0 0
5 0.007 0.00524667 -0.02 0 0 0
6 -0.007 -47.211 5.93 0 0 0
7 -0.007 8.45016 2.68682 0 0 0
8 0 -47.2058 0 0 0 0
9 0 -4.3996 -3.75516 0 0 0
time 35
0 -0.006520736 44.78805 0 0 0.6211766 0
1 0.00652074 47.2058 0 0 0 0
2 0 -47.2058 0 0 0 0
3 0 0.929421 0 0 0 0
4 0 0 0 0 0 0
5 0.007 0.00524667 -0.02 0 0 0
6 -0.007 -47.211 5.93 0 0 0
7 -0.007 8.45016 2.68682 0 0 0
8 0 -47.2058 0 0 0 0
9 0 -4.3996 -3.75516 0 0 0
time 36
0 -0.006520736 44.78805 0 0 0.6389251 0
1 0.00652074 47.2058 0 0 0 0
2 0 -47.2058 0 0 0 0
3 0 0.929421 0 0 0 0
4 0 0 0 0 0 0
5 0.007 0.00524667 -0.02 0 0 0
6 -0.007 -47.211 5.93 0 0 0
7 -0.007 8.45016 2.68682 0 0 0
8 0 -47.2058 0 0 0 0
9 0 -4.3996 -3.75516 0 0 0
time 37
0 -0.006520736 44.78805 0 0 0.6566736 0
1 0.00652074 47.2058 0 0 0 0
2 0 -47.2058 0 0 0 0
3 0 0.929421 0 0 0 0
4 0 0 0 0 0 0
5 0.007 0.00524667 -0.02 0 0 0
6 -0.007 -47.211 5.93 0 0 0
7 -0.007 8.45016 2.68682 0 0 0
8 0 -47.2058 0 0 0 0
9 0 -4.3996 -3.75516 0 0 0
time 38
0 -0.006520736 44.78805 0 0 0.6744221 0
1 0.00652074 47.2058 0 0 0 0
2 0 -47.2058 0 0 0 0
3 0 0.929421 0 0 0 0
4 0 0 0 0 0 0
5 0.007 0.00524667 -0.02 0 0 0
6 -0.007 -47.211 5.93 0 0 0
7 -0.007 8.45016 2.68682 0 0 0
8 0 -47.2058 0 0 0 0
9 0 -4.3996 -3.75516 0 0 0
time 39
0 -0.006520736 44.78805 0 0 0.6921707 0
1 0.00652074 47.2058 0 0 0 0
2 0 -47.2058 0 0 0 0
3 0 0.929421 0 0 0 0
4 0 0 0 0 0 0
5 0.007 0.00524667 -0.02 0 0 0
6 -0.007 -47.211 5.93 0 0 0
7 -0.007 8.45016 2.68682 0 0 0
8 0 -47.2058 0 0 0 0
9 0 -4.3996 -3.75516 0 0 0
time 40
0 -0.006520736 44.78805 0 0 0.7099193 0
1 0.00652074 47.2058 0 0 0 0
2 0 -47.2058 0 0 0 0
3 0 0.929421 0 0 0 0
4 0 0 0 0 0 0
5 0.007 0.00524667 -0.02 0 0 0
6 -0.007 -47.211 5.93 0 0 0
7 -0.007 8.45016 2.68682 0 0 0
8 0 -47.2058 0 0 0 0
9 0 -4.3996 -3.75516 0 0 0
time 41
0 -0.006520736 44.78805 0 0 0.7276679 0
1 0.00652074 47.2058 0 0 0 0
2 0 -47.2058 0 0 0 0
3 0 0.929421 0 0 0 0
4 0 0 0 0 0 0
5 0.007 0.00524667 -0.02 0 0 0
6 -0.007 -47.211 5.93 0 0 0
7 -0.007 8.45016 2.68682 0 0 0
8 0 -47.2058 0 0 0 0
9 0 -4.3996 -3.75516 0 0 0
time 42
0 -0.006520736 44.78805 0 0 0.7454165 0
1 0.00652074 47.2058 0 0 0 0
2 0 -47.2058 0 0 0 0
3 0 0.929421 0 0 0 0
4 0 0 0 0 0 0
5 0.007 0.00524667 -0.02 0 0 0
6 -0.007 -47.211 5.93 0 0 0
7 -0.007 8.45016 2.68682 0 0 0
8 0 -47.2058 0 0 0 0
9 0 -4.3996 -3.75516 0 0 0
time 43
0 -0.006520736 44.78805 0 0 0.7631651 0
1 0.00652074 47.2058 0 0 0 0
2 0 -47.2058 0 0 0 0
3 0 0.929421 0 0 0 0
4 0 0 0 0 0 0
5 0.007 0.00524667 -0.02 0 0 0
6 -0.007 -47.211 5.93 0 0 0
7 -0.007 8.45016 2.68682 0 0 0
8 0 -47.2058 0 0 0 0
9 0 -4.3996 -3.75516 0 0 0
time 44
0 -0.006520736 44.78805 0 0 0.7809138 0
1 0.00652074 47.2058 0 0 0 0
2 0 -47.2058 0 0 0 0
3 0 0.929421 0 0 0 0
4 0 0 0 0 0 0
5 0.007 0.00524667 -0.02 0 0 0
6 -0.007 -47.211 5.93 0 0 0
7 -0.007 8.45016 2.68682 0 0 0
8 0 -47.2058 0 0 0 0
9 0 -4.3996 -3.75516 0 0 0
time 45
0 -0.006520736 44.78805 0 0 0.7986625 0
1 0.00652074 47.2058 0 0 0 0
2 0 -47.2058 0 0 0 0
3 0 0.929421 0 0 0 0
4 0 0 0 0 0 0
5 0.007 0.00524667 -0.02 0 0 0
6 -0.007 -47.211 5.93 0 0 0
7 -0.007 8.45016 2.68682 0 0 0
8 0 -47.2058 0 0 0 0
9 0 -4.3996 -3.75516 0 0 0
time 46
0 -0.006520736 44.78805 0 0 0.8164114 0
1 0.00652074 47.2058 0 0 0 0
2 0 -47.2058 0 0 0 0
3 0 0.929421 0 0 0 0
4 0 0 0 0 0 0
5 0.007 0.00524667 -0.02 0 0 0
6 -0.007 -47.211 5.93 0 0 0
7 -0.007 8.45016 2.68682 0 0 0
8 0 -47.2058 0 0 0 0
9 0 -4.3996 -3.75516 0 0 0
time 47
0 -0.006520736 44.78805 0 0 0.83416 0
1 0.00652074 47.2058 0 0 0 0
2 0 -47.2058 0 0 0 0
3 0 0.929421 0 0 0 0
4 0 0 0 0 0 0
5 0.007 0.00524667 -0.02 0 0 0
6 -0.007 -47.211 5.93 0 0 0
7 -0.007 8.45016 2.68682 0 0 0
8 0 -47.2058 0 0 0 0
9 0 -4.3996 -3.75516 0 0 0
time 48
0 -0.006520736 44.78805 0 0 0.8519089 0
1 0.00652074 47.2058 0 0 0 0
2 0 -47.2058 0 0 0 0
3 0 0.929421 0 0 0 0
4 0 0 0 0 0 0
5 0.007 0.00524667 -0.02 0 0 0
6 -0.007 -47.211 5.93 0 0 0
7 -0.007 8.45016 2.68682 0 0 0
8 0 -47.2058 0 0 0 0
9 0 -4.3996 -3.75516 0 0 0
time 49
0 -0.006520736 44.78805 0 0 0.8696578 0
1 0.00652074 47.2058 0 0 0 0
2 0 -47.2058 0 0 0 0
3 0 0.929421 0 0 0 0
4 0 0 0 0 0 0
5 0.007 0.00524667 -0.02 0 0 0
6 -0.007 -47.211 5.93 0 0 0
7 -0.007 8.45016 2.68682 0 0 0
8 0 -47.2058 0 0 0 0
9 0 -4.3996 -3.75516 0 0 0
time 50
0 -0.006520736 44.78805 0 0 0.8874066 0
1 0.00652074 47.2058 0 0 0 0
2 0 -47.2058 0 0 0 0
3 0 0.929421 0 0 0 0
4 0 0 0 0 0 0
5 0.007 0.00524667 -0.02 0 0 0
6 -0.007 -47.211 5.93 0 0 0
7 -0.007 8.45016 2.68682 0 0 0
8 0 -47.2058 0 0 0 0
9 0 -4.3996 -3.75516 0 0 0
time 51
0 -0.006520736 44.78805 0 0 0.9051554 0
1 0.00652074 47.2058 0 0 0 0
2 0 -47.2058 0 0 0 0
3 0 0.929421 0 0 0 0
4 0 0 0 0 0 0
5 0.007 0.00524667 -0.02 0 0 0
6 -0.007 -47.211 5.93 0 0 0
7 -0.007 8.45016 2.68682 0 0 0
8 0 -47.2058 0 0 0 0
9 0 -4.3996 -3.75516 0 0 0
time 52
0 -0.006520736 44.78805 0 0 0.9229044 0
1 0.00652074 47.2058 0 0 0 0
2 0 -47.2058 0 0 0 0
3 0 0.929421 0 0 0 0
4 0 0 0 0 0 0
5 0.007 0.00524667 -0.02 0 0 0
6 -0.007 -47.211 5.93 0 0 0
7 -0.007 8.45016 2.68682 0 0 0
8 0 -47.2058 0 0 0 0
9 0 -4.3996 -3.75516 0 0 0
time 53
0 -0.006520736 44.78805 0 0 0.9406533 0
1 0.00652074 47.2058 0 0 0 0
2 0 -47.2058 0 0 0 0
3 0 0.929421 0 0 0 0
4 0 0 0 0 0 0
5 0.007 0.00524667 -0.02 0 0 0
6 -0.007 -47.211 5.93 0 0 0
7 -0.007 8.45016 2.68682 0 0 0
8 0 -47.2058 0 0 0 0
9 0 -4.3996 -3.75516 0 0 0
time 54
0 -0.006520736 44.78805 0 0 0.9584023 0
1 0.00652074 47.2058 0 0 0 0
2 0 -47.2058 0 0 0 0
3 0 0.929421 0 0 0 0
4 0 0 0 0 0 0
5 0.007 0.00524667 -0.02 0 0 0
6 -0.007 -47.211 5.93 0 0 0
7 -0.007 8.45016 2.68682 0 0 0
8 0 -47.2058 0 0 0 0
9 0 -4.3996 -3.75516 0 0 0
time 55
0 -0.006520736 44.78805 0 0 0.9761511 0
1 0.00652074 47.2058 0 0 0 0
2 0 -47.2058 0 0 0 0
3 0 0.929421 0 0 0 0
4 0 0 0 0 0 0
5 0.007 0.00524667 -0.02 0 0 0
6 -0.007 -47.211 5.93 0 0 0
7 -0.007 8.45016 2.68682 0 0 0
8 0 -47.2058 0 0 0 0
9 0 -4.3996 -3.75516 0 0 0
time 56
0 -0.006520736 44.78805 0 0 0.9939002 0
1 0.00652074 47.2058 0 0 0 0
2 0 -47.2058 0 0 0 0
3 0 0.929421 0 0 0 0
4 0 0 0 0 0 0
5 0.007 0.00524667 -0.02 0 0 0
6 -0.007 -47.211 5.93 0 0 0
7 -0.007 8.45016 2.68682 0 0 0
8 0 -47.2058 0 0 0 0
9 0 -4.3996 -3.75516 0 0 0
time 57
0 -0.006520736 44.78805 0 0 1.011649 0
1 0.00652074 47.2058 0 0 0 0
2 0 -47.2058 0 0 0 0
3 0 0.929421 0 0 0 0
4 0 0 0 0 0 0
5 0.007 0.00524667 -0.02 0 0 0
6 -0.007 -47.211 5.93 0 0 0
7 -0.007 8.45016 2.68682 0 0 0
8 0 -47.2058 0 0 0 0
9 0 -4.3996 -3.75516 0 0 0
time 58
0 -0.006520736 44.78805 0 0 1.029398 0
1 0.00652074 47.2058 0 0 0 0
2 0 -47.2058 0 0 0 0
3 0 0.929421 0 0 0 0
4 0 0 0 0 0 0
5 0.007 0.00524667 -0.02 0 0 0
6 -0.007 -47.211 5.93 0 0 0
7 -0.007 8.45016 2.68682 0 0 0
8 0 -47.2058 0 0 0 0
9 0 -4.3996 -3.75516 0 0 0
time 59
0 -0.006520736 44.78805 0 0 1.047147 0
1 0.00652074 47.2058 0 0 0 0
2 0 -47.2058 0 0 0 0
3 0 0.929421 0 0 0 0
4 0 0 0 0 0 0
5 0.007 0.00524667 -0.02 0 0 0
6 -0.007 -47.211 5.93 0 0 0
7 -0.007 8.45016 2.68682 0 0 0
8 0 -47.2058 0 0 0 0
9 0 -4.3996 -3.75516 0 0 0
time 60
0 -0.006520736 44.78805 0 0 1.064896 0
1 0.00652074 47.2058 0 0 0 0
2 0 -47.2058 0 0 0 0
3 0 0.929421 0 0 0 0
4 0 0 0 0 0 0
5 0.007 0.00524667 -0.02 0 0 0
6 -0.007 -47.211 5.93 0 0 0
7 -0.007 8.45016 2.68682 0 0 0
8 0 -47.2058 0 0 0 0
9 0 -4.3996 -3.75516 0 0 0
time 61
0 -0.006520736 44.78805 0 0 1.082646 0
1 0.00652074 47.2058 0 0 0 0
2 0 -47.2058 0 0 0 0
3 0 0.929421 0 0 0 0
4 0 0 0 0 0 0
5 0.007 0.00524667 -0.02 0 0 0
6 -0.007 -47.211 5.93 0 0 0
7 -0.007 8.45016 2.68682 0 0 0
8 0 -47.2058 0 0 0 0
9 0 -4.3996 -3.75516 0 0 0
time 62
0 -0.006520736 44.78805 0 0 1.100395 0
1 0.00652074 47.2058 0 0 0 0
2 0 -47.2058 0 0 0 0
3 0 0.929421 0 0 0 0
4 0 0 0 0 0 0
5 0.007 0.00524667 -0.02 0 0 0
6 -0.007 -47.211 5.93 0 0 0
7 -0.007 8.45016 2.68682 0 0 0
8 0 -47.2058 0 0 0 0
9 0 -4.3996 -3.75516 0 0 0
time 63
0 -0.006520736 44.78805 0 0 1.118144 0
1 0.00652074 47.2058 0 0 0 0
2 0 -47.2058 0 0 0 0
3 0 0.929421 0 0 0 0
4 0 0 0 0 0 0
5 0.007 0.00524667 -0.02 0 0 0
6 -0.007 -47.211 5.93 0 0 0
7 -0.007 8.45016 2.68682 0 0 0
8 0 -47.2058 0 0 0 0
9 0 -4.3996 -3.75516 0 0 0
time 64
0 -0.006520736 44.78805 0 0 1.135893 0
1 0.00652074 47.2058 0 0 0 0
2 0 -47.2058 0 0 0 0
3 0 0.929421 0 0 0 0
4 0 0 0 0 0 0
5 0.007 0.00524667 -0.02 0 0 0
6 -0.007 -47.211 5.93 0 0 0
7 -0.007 8.45016 2.68682 0 0 0
8 0 -47.2058 0 0 0 0
9 0 -4.3996 -3.75516 0 0 0
time 65
0 -0.006520736 44.78805 0 0 1.153642 0
1 0.00652074 47.2058 0 0 0 0
2 0 -47.2058 0 0 0 0
3 0 0.929421 0 0 0 0
4 0 0 0 0 0 0
5 0.007 0.00524667 -0.02 0 0 0
6 -0.007 -47.211 5.93 0 0 0
7 -0.007 8.45016 2.68682 0 0 0
8 0 -47.2058 0 0 0 0
9 0 -4.3996 -3.75516 0 0 0
time 66
0 -0.006520736 44.78805 0 0 1.171391 0
1 0.00652074 47.2058 0 0 0 0
2 0 -47.2058 0 0 0 0
3 0 0.929421 0 0 0 0
4 0 0 0 0 0 0
5 0.007 0.00524667 -0.02 0 0 0
6 -0.007 -47.211 5.93 0 0 0
7 -0.007 8.45016 2.68682 0 0 0
8 0 -47.2058 0 0 0 0
9 0 -4.3996 -3.75516 0 0 0
time 67
0 -0.006520736 44.78805 0 0 1.189141 0
1 0.00652074 47.2058 0 0 0 0
2 0 -47.2058 0 0 0 0
3 0 0.929421 0 0 0 0
4 0 0 0 0 0 0
5 0.007 0.00524667 -0.02 0 0 0
6 -0.007 -47.211 5.93 0 0 0
7 -0.007 8.45016 2.68682 0 0 0
8 0 -47.2058 0 0 0 0
9 0 -4.3996 -3.75516 0 0 0
time 68
0 -0.006520736 44.78805 0 0 1.20689 0
1 0.00652074 47.2058 0 0 0 0
2 0 -47.2058 0 0 0 0
3 0 0.929421 0 0 0 0
4 0 0 0 0 0 0
5 0.007 0.00524667 -0.02 0 0 0
6 -0.007 -47.211 5.93 0 0 0
7 -0.007 8.45016 2.68682 0 0 0
8 0 -47.2058 0 0 0 0
9 0 -4.3996 -3.75516 0 0 0
time 69
0 -0.006520736 44.78805 0 0 1.224639 0
1 0.00652074 47.2058 0 0 0 0
2 0 -47.2058 0 0 0 0
3 0 0.929421 0 0 0 0
4 0 0 0 0 0 0
5 0.007 0.00524667 -0.02 0 0 0
6 -0.007 -47.211 5.93 0 0 0
7 -0.007 8.45016 2.68682 0 0 0
8 0 -47.2058 0 0 0 0
9 0 -4.3996 -3.75516 0 0 0
time 70
0 -0.006520736 44.78805 0 0 1.242389 0
1 0.00652074 47.2058 0 0 0 0
2 0 -47.2058 0 0 0 0
3 0 0.929421 0 0 0 0
4 0 0 0 0 0 0
5 0.007 0.00524667 -0.02 0 0 0
6 -0.007 -47.211 5.93 0 0 0
7 -0.007 8.45016 2.68682 0 0 0
8 0 -47.2058 0 0 0 0
9 0 -4.3996 -3.75516 0 0 0
time 71
0 -0.006520736 44.78805 0 0 1.260138 0
1 0.00652074 47.2058 0 0 0 0
2 0 -47.2058 0 0 0 0
3 0 0.929421 0 0 0 0
4 0 0 0 0 0 0
5 0.007 0.00524667 -0.02 0 0 0
6 -0.007 -47.211 5.93 0 0 0
7 -0.007 8.45016 2.68682 0 0 0
8 0 -47.2058 0 0 0 0
9 0 -4.3996 -3.75516 0 0 0
time 72
0 -0.006520736 44.78805 0 0 1.277887 0
1 0.00652074 47.2058 0 0 0 0
2 0 -47.2058 0 0 0 0
3 0 0.929421 0 0 0 0
4 0 0 0 0 0 0
5 0.007 0.00524667 -0.02 0 0 0
6 -0.007 -47.211 5.93 0 0 0
7 -0.007 8.45016 2.68682 0 0 0
8 0 -47.2058 0 0 0 0
9 0 -4.3996 -3.75516 0 0 0
time 73
0 -0.006520736 44.78805 0 0 1.295637 0
1 0.00652074 47.2058 0 0 0 0
2 0 -47.2058 0 0 0 0
3 0 0.929421 0 0 0 0
4 0 0 0 0 0 0
5 0.007 0.00524667 -0.02 0 0 0
6 -0.007 -47.211 5.93 0 0 0
7 -0.007 8.45016 2.68682 0 0 0
8 0 -47.2058 0 0 0 0
9 0 -4.3996 -3.75516 0 0 0
time 74
0 -0.006520736 44.78805 0 0 1.313386 0
1 0.00652074 47.2058 0 0 0 0
2 0 -47.2058 0 0 0 0
3 0 0.929421 0 0 0 0
4 0 0 0 0 0 0
5 0.007 0.00524667 -0.02 0 0 0
6 -0.007 -47.211 5.93 0 0 0
7 -0.007 8.45016 2.68682 0 0 0
8 0 -47.2058 0 0 0 0
9 0 -4.3996 -3.75516 0 0 0
time 75
0 -0.006520736 44.78805 0 0 1.331136 0
1 0.00652074 47.2058 0 0 0 0
2 0 -47.2058 0 0 0 0
3 0 0.929421 0 0 0 0
4 0 0 0 0 0 0
5 0.007 0.00524667 -0.02 0 0 0
6 -0.007 -47.211 5.93 0 0 0
7 -0.007 8.45016 2.68682 0 0 0
8 0 -47.2058 0 0 0 0
9 0 -4.3996 -3.75516 0 0 0
time 76
0 -0.006520736 44.78805 0 0 1.348885 0
1 0.00652074 47.2058 0 0 0 0
2 0 -47.2058 0 0 0 0
3 0 0.929421 0 0 0 0
4 0 0 0 0 0 0
5 0.007 0.00524667 -0.02 0 0 0
6 -0.007 -47.211 5.93 0 0 0
7 -0.007 8.45016 2.68682 0 0 0
8 0 -47.2058 0 0 0 0
9 0 -4.3996 -3.75516 0 0 0
time 77
0 -0.006520736 44.78805 0 0 1.366634 0
1 0.00652074 47.2058 0 0 0 0
2 0 -47.2058 0 0 0 0
3 0 0.929421 0 0 0 0
4 0 0 0 0 0 0
5 0.007 0.00524667 -0.02 0 0 0
6 -0.007 -47.211 5.93 0 0 0
7 -0.007 8.45016 2.68682 0 0 0
8 0 -47.2058 0 0 0 0
9 0 -4.3996 -3.75516 0 0 0
time 78
0 -0.006520736 44.78805 0 0 1.384384 0
1 0.00652074 47.2058 0 0 0 0
2 0 -47.2058 0 0 0 0
3 0 0.929421 0 0 0 0
4 0 0 0 0 0 0
5 0.007 0.00524667 -0.02 0 0 0
6 -0.007 -47.211 5.93 0 0 0
7 -0.007 8.45016 2.68682 0 0 0
8 0 -47.2058 0 0 0 0
9 0 -4.3996 -3.75516 0 0 0
time 79
0 -0.006520736 44.78805 0 0 1.402133 0
1 0.00652074 47.2058 0 0 0 0
2 0 -47.2058 0 0 0 0
3 0 0.929421 0 0 0 0
4 0 0 0 0 0 0
5 0.007 0.00524667 -0.02 0 0 0
6 -0.007 -47.211 5.93 0 0 0
7 -0.007 8.45016 2.68682 0 0 0
8 0 -47.2058 0 0 0 0
9 0 -4.3996 -3.75516 0 0 0
time 80
0 -0.006520736 44.78805 0 0 1.419883 0
1 0.00652074 47.2058 0 0 0 0
2 0 -47.2058 0 0 0 0
3 0 0.929421 0 0 0 0
4 0 0 0 0 0 0
5 0.007 0.00524667 -0.02 0 0 0
6 -0.007 -47.211 5.93 0 0 0
7 -0.007 8.45016 2.68682 0 0 0
8 0 -47.2058 0 0 0 0
9 0 -4.3996 -3.75516 0 0 0
time 81
0 -0.006520736 44.78805 0 0 1.437632 0
1 0.00652074 47.2058 0 0 0 0
2 0 -47.2058 0 0 0 0
3 0 0.929421 0 0 0 0
4 0 0 0 0 0 0
5 0.007 0.00524667 -0.02 0 0 0
6 -0.007 -47.211 5.93 0 0 0
7 -0.007 8.45016 2.68682 0 0 0
8 0 -47.2058 0 0 0 0
9 0 -4.3996 -3.75516 0 0 0
time 82
0 -0.006520736 44.78805 0 0 1.455382 0
1 0.00652074 47.2058 0 0 0 0
2 0 -47.2058 0 0 0 0
3 0 0.929421 0 0 0 0
4 0 0 0 0 0 0
5 0.007 0.00524667 -0.02 0 0 0
6 -0.007 -47.211 5.93 0 0 0
7 -0.007 8.45016 2.68682 0 0 0
8 0 -47.2058 0 0 0 0
9 0 -4.3996 -3.75516 0 0 0
time 83
0 -0.006520736 44.78805 0 0 1.473132 0
1 0.00652074 47.2058 0 0 0 0
2 0 -47.2058 0 0 0 0
3 0 0.929421 0 0 0 0
4 0 0 0 0 0 0
5 0.007 0.00524667 -0.02 0 0 0
6 -0.007 -47.211 5.93 0 0 0
7 -0.007 8.45016 2.68682 0 0 0
8 0 -47.2058 0 0 0 0
9 0 -4.3996 -3.75516 0 0 0
time 84
0 -0.006520736 44.78805 0 0 1.490881 0
1 0.00652074 47.2058 0 0 0 0
2 0 -47.2058 0 0 0 0
3 0 0.929421 0 0 0 0
4 0 0 0 0 0 0
5 0.007 0.00524667 -0.02 0 0 0
6 -0.007 -47.211 5.93 0 0 0
7 -0.007 8.45016 2.68682 0 0 0
8 0 -47.2058 0 0 0 0
9 0 -4.3996 -3.75516 0 0 0
time 85
0 -0.006520736 44.78805 0 0 1.508631 0
1 0.00652074 47.2058 0 0 0 0
2 0 -47.2058 0 0 0 0
3 0 0.929421 0 0 0 0
4 0 0 0 0 0 0
5 0.007 0.00524667 -0.02 0 0 0
6 -0.007 -47.211 5.93 0 0 0
7 -0.007 8.45016 2.68682 0 0 0
8 0 -47.2058 0 0 0 0
9 0 -4.3996 -3.75516 0 0 0
time 86
0 -0.006520736 44.78805 0 0 1.52638 0
1 0.00652074 47.2058 0 0 0 0
2 0 -47.2058 0 0 0 0
3 0 0.929421 0 0 0 0
4 0 0 0 0 0 0
5 0.007 0.00524667 -0.02 0 0 0
6 -0.007 -47.211 5.93 0 0 0
7 -0.007 8.45016 2.68682 0 0 0
8 0 -47.2058 0 0 0 0
9 0 -4.3996 -3.75516 0 0 0
time 87
0 -0.006520736 44.78805 0 0 1.54413 0
1 0.00652074 47.2058 0 0 0 0
2 0 -47.2058 0 0 0 0
3 0 0.929421 0 0 0 0
4 0 0 0 0 0 0
5 0.007 0.00524667 -0.02 0 0 0
6 -0.007 -47.211 5.93 0 0 0
7 -0.007 8.45016 2.68682 0 0 0
8 0 -47.2058 0 0 0 0
9 0 -4.3996 -3.75516 0 0 0
time 88
0 -0.006520736 44.78805 0 0 1.56188 0
1 0.00652074 47.2058 0 0 0 0
2 0 -47.2058 0 0 0 0
3 0 0.929421 0 0 0 0
4 0 0 0 0 0 0
5 0.007 0.00524667 -0.02 0 0 0
6 -0.007 -47.211 5.93 0 0 0
7 -0.007 8.45016 2.68682 0 0 0
8 0 -47.2058 0 0 0 0
9 0 -4.3996 -3.75516 0 0 0
time 89
0 -0.006520736 44.78805 0 0 1.579629 0
1 0.00652074 47.2058 0 0 0 0
2 0 -47.2058 0 0 0 0
3 0 0.929421 0 0 0 0
4 0 0 0 0 0 0
5 0.007 0.00524667 -0.02 0 0 0
6 -0.007 -47.211 5.93 0 0 0
7 -0.007 8.45016 2.68682 0 0 0
8 0 -47.2058 0 0 0 0
9 0 -4.3996 -3.75516 0 0 0
time 90
0 -0.006520736 44.78805 0 0 1.597379 0
1 0.00652074 47.2058 0 0 0 0
2 0 -47.2058 0 0 0 0
3 0 0.929421 0 0 0 0
4 0 0 0 0 0 0
5 0.007 0.00524667 -0.02 0 0 0
6 -0.007 -47.211 5.93 0 0 0
7 -0.007 8.45016 2.68682 0 0 0
8 0 -47.2058 0 0 0 0
9 0 -4.3996 -3.75516 0 0 0
time 91
0 -0.006520736 44.78805 0 0 1.615129 0
1 0.00652074 47.2058 0 0 0 0
2 0 -47.2058 0 0 0 0
3 0 0.929421 0 0 0 0
4 0 0 0 0 0 0
5 0.007 0.00524667 -0.02 0 0 0
6 -0.007 -47.211 5.93 0 0 0
7 -0.007 8.45016 2.68682 0 0 0
8 0 -47.2058 0 0 0 0
9 0 -4.3996 -3.75516 0 0 0
time 92
0 -0.006520736 44.78805 0 0 1.632879 0
1 0.00652074 47.2058 0 0 0 0
2 0 -47.2058 0 0 0 0
3 0 0.929421 0 0 0 0
4 0 0 0 0 0 0
5 0.007 0.00524667 -0.02 0 0 0
6 -0.007 -47.211 5.93 0 0 0
7 -0.007 8.45016 2.68682 0 0 0
8 0 -47.2058 0 0 0 0
9 0 -4.3996 -3.75516 0 0 0
time 93
0 -0.006520736 44.78805 0 0 1.650628 0
1 0.00652074 47.2058 0 0 0 0
2 0 -47.2058 0 0 0 0
3 0 0.929421 0 0 0 0
4 0 0 0 0 0 0
5 0.007 0.00524667 -0.02 0 0 0
6 -0.007 -47.211 5.93 0 0 0
7 -0.007 8.45016 2.68682 0 0 0
8 0 -47.2058 0 0 0 0
9 0 -4.3996 -3.75516 0 0 0
time 94
0 -0.006520736 44.78805 0 0 1.668378 0
1 0.00652074 47.2058 0 0 0 0
2 0 -47.2058 0 0 0 0
3 0 0.929421 0 0 0 0
4 0 0 0 0 0 0
5 0.007 0.00524667 -0.02 0 0 0
6 -0.007 -47.211 5.93 0 0 0
7 -0.007 8.45016 2.68682 0 0 0
8 0 -47.2058 0 0 0 0
9 0 -4.3996 -3.75516 0 0 0
time 95
0 -0.006520736 44.78805 0 0 1.686128 0
1 0.00652074 47.2058 0 0 0 0
2 0 -47.2058 0 0 0 0
3 0 0.929421 0 0 0 0
4 0 0 0 0 0 0
5 0.007 0.00524667 -0.02 0 0 0
6 -0.007 -47.211 5.93 0 0 0
7 -0.007 8.45016 2.68682 0 0 0
8 0 -47.2058 0 0 0 0
9 0 -4.3996 -3.75516 0 0 0
time 96
0 -0.006520736 44.78805 0 0 1.703877 0
1 0.00652074 47.2058 0 0 0 0
2 0 -47.2058 0 0 0 0
3 0 0.929421 0 0 0 0
4 0 0 0 0 0 0
5 0.007 0.00524667 -0.02 0 0 0
6 -0.007 -47.211 5.93 0 0 0
7 -0.007 8.45016 2.68682 0 0 0
8 0 -47.2058 0 0 0 0
9 0 -4.3996 -3.75516 0 0 0
time 97
0 -0.006520736 44.78805 0 0 1.721627 0
1 0.00652074 47.2058 0 0 0 0
2 0 -47.2058 0 0 0 0
3 0 0.929421 0 0 0 0
4 0 0 0 0 0 0
5 0.007 0.00524667 -0.02 0 0 0
6 -0.007 -47.211 5.93 0 0 0
7 -0.007 8.45016 2.68682 0 0 0
8 0 -47.2058 0 0 0 0
9 0 -4.3996 -3.75516 0 0 0
time 98
0 -0.006520736 44.78805 0 0 1.739377 0
1 0.00652074 47.2058 0 0 0 0
2 0 -47.2058 0 0 0 0
3 0 0.929421 0 0 0 0
4 0 0 0 0 0 0
5 0.007 0.00524667 -0.02 0 0 0
6 -0.007 -47.211 5.93 0 0 0
7 -0.007 8.45016 2.68682 0 0 0
8 0 -47.2058 0 0 0 0
9 0 -4.3996 -3.75516 0 0 0
time 99
0 -0.006520736 44.78805 0 0 1.757127 0
1 0.00652074 47.2058 0 0 0 0
2 0 -47.2058 0 0 0 0
3 0 0.929421 0 0 0 0
4 0 0 0 0 0 0
5 0.007 0.00524667 -0.02 0 0 0
6 -0.007 -47.211 5.93 0 0 0
7 -0.007 8.45016 2.68682 0 0 0
8 0 -47.2058 0 0 0 0
9 0 -4.3996 -3.75516 0 0 0
time 100
0 -0.006520736 44.78805 0 0 1.774877 0
1 0.00652074 47.2058 0 0 0 0
2 0 -47.2058 0 0 0 0
3 0 0.929421 0 0 0 0
4 0 0 0 0 0 0
5 0.007 0.00524667 -0.02 0 0 0
6 -0.007 -47.211 5.93 0 0 0
7 -0.007 8.45016 2.68682 0 0 0
8 0 -47.2058 0 0 0 0
9 0 -4.3996 -3.75516 0 0 0
time 101
0 -0.006520736 44.78805 0 0 1.792627 0
1 0.00652074 47.2058 0 0 0 0
2 0 -47.2058 0 0 0 0
3 0 0.929421 0 0 0 0
4 0 0 0 0 0 0
5 0.007 0.00524667 -0.02 0 0 0
6 -0.007 -47.211 5.93 0 0 0
7 -0.007 8.45016 2.68682 0 0 0
8 0 -47.2058 0 0 0 0
9 0 -4.3996 -3.75516 0 0 0
time 102
0 -0.006520736 44.78805 0 0 1.810377 0
1 0.00652074 47.2058 0 0 0 0
2 0 -47.2058 0 0 0 0
3 0 0.929421 0 0 0 0
4 0 0 0 0 0 0
5 0.007 0.00524667 -0.02 0 0 0
6 -0.007 -47.211 5.93 0 0 0
7 -0.007 8.45016 2.68682 0 0 0
8 0 -47.2058 0 0 0 0
9 0 -4.3996 -3.75516 0 0 0
time 103
0 -0.006520736 44.78805 0 0 1.828126 0
1 0.00652074 47.2058 0 0 0 0
2 0 -47.2058 0 0 0 0
3 0 0.929421 0 0 0 0
4 0 0 0 0 0 0
5 0.007 0.00524667 -0.02 0 0 0
6 -0.007 -47.211 5.93 0 0 0
7 -0.007 8.45016 2.68682 0 0 0
8 0 -47.2058 0 0 0 0
9 0 -4.3996 -3.75516 0 0 0
time 104
0 -0.006520736 44.78805 0 0 1.845877 0
1 0.00652074 47.2058 0 0 0 0
2 0 -47.2058 0 0 0 0
3 0 0.929421 0 0 0 0
4 0 0 0 0 0 0
5 0.007 0.00524667 -0.02 0 0 0
6 -0.007 -47.211 5.93 0 0 0
7 -0.007 8.45016 2.68682 0 0 0
8 0 -47.2058 0 0 0 0
9 0 -4.3996 -3.75516 0 0 0
time 105
0 -0.006520736 44.78805 0 0 1.863626 0
1 0.00652074 47.2058 0 0 0 0
2 0 -47.2058 0 0 0 0
3 0 0.929421 0 0 0 0
4 0 0 0 0 0 0
5 0.007 0.00524667 -0.02 0 0 0
6 -0.007 -47.211 5.93 0 0 0
7 -0.007 8.45016 2.68682 0 0 0
8 0 -47.2058 0 0 0 0
9 0 -4.3996 -3.75516 0 0 0
time 106
0 -0.006520736 44.78805 0 0 1.881376 0
1 0.00652074 47.2058 0 0 0 0
2 0 -47.2058 0 0 0 0
3 0 0.929421 0 0 0 0
4 0 0 0 0 0 0
5 0.007 0.00524667 -0.02 0 0 0
6 -0.007 -47.211 5.93 0 0 0
7 -0.007 8.45016 2.68682 0 0 0
8 0 -47.2058 0 0 0 0
9 0 -4.3996 -3.75516 0 0 0
time 107
0 -0.006520736 44.78805 0 0 1.899126 0
1 0.00652074 47.2058 0 0 0 0
2 0 -47.2058 0 0 0 0
3 0 0.929421 0 0 0 0
4 0 0 0 0 0 0
5 0.007 0.00524667 -0.02 0 0 0
6 -0.007 -47.211 5.93 0 0 0
7 -0.007 8.45016 2.68682 0 0 0
8 0 -47.2058 0 0 0 0
9 0 -4.3996 -3.75516 0 0 0
time 108
0 -0.006520736 44.78805 0 0 1.916876 0
1 0.00652074 47.2058 0 0 0 0
2 0 -47.2058 0 0 0 0
3 0 0.929421 0 0 0 0
4 0 0 0 0 0 0
5 0.007 0.00524667 -0.02 0 0 0
6 -0.007 -47.211 5.93 0 0 0
7 -0.007 8.45016 2.68682 0 0 0
8 0 -47.2058 0 0 0 0
9 0 -4.3996 -3.75516 0 0 0
time 109
0 -0.006520736 44.78805 0 0 1.934626 0
1 0.00652074 47.2058 0 0 0 0
2 0 -47.2058 0 0 0 0
3 0 0.929421 0 0 0 0
4 0 0 0 0 0 0
5 0.007 0.00524667 -0.02 0 0 0
6 -0.007 -47.211 5.93 0 0 0
7 -0.007 8.45016 2.68682 0 0 0
8 0 -47.2058 0 0 0 0
9 0 -4.3996 -3.75516 0 0 0
time 110
0 -0.006520736 44.78805 0 0 1.952376 0
1 0.00652074 47.2058 0 0 0 0
2 0 -47.2058 0 0 0 0
3 0 0.929421 0 0 0 0
4 0 0 0 0 0 0
5 0.007 0.00524667 -0.02 0 0 0
6 -0.007 -47.211 5.93 0 0 0
7 -0.007 8.45016 2.68682 0 0 0
8 0 -47.2058 0 0 0 0
9 0 -4.3996 -3.75516 0 0 0
time 111
0 -0.006520736 44.78805 0 0 1.970126 0
1 0.00652074 47.2058 0 0 0 0
2 0 -47.2058 0 0 0 0
3 0 0.929421 0 0 0 0
4 0 0 0 0 0 0
5 0.007 0.00524667 -0.02 0 0 0
6 -0.007 -47.211 5.93 0 0 0
7 -0.007 8.45016 2.68682 0 0 0
8 0 -47.2058 0 0 0 0
9 0 -4.3996 -3.75516 0 0 0
time 112
0 -0.006520736 44.78805 0 0 1.987876 0
1 0.00652074 47.2058 0 0 0 0
2 0 -47.2058 0 0 0 0
3 0 0.929421 0 0 0 0
4 0 0 0 0 0 0
5 0.007 0.00524667 -0.02 0 0 0
6 -0.007 -47.211 5.93 0 0 0
7 -0.007 8.45016 2.68682 0 0 0
8 0 -47.2058 0 0 0 0
9 0 -4.3996 -3.75516 0 0 0
time 113
0 -0.006520736 44.78805 0 0 2.005626 0
1 0.00652074 47.2058 0 0 0 0
2 0 -47.2058 0 0 0 0
3 0 0.929421 0 0 0 0
4 0 0 0 0 0 0
5 0.007 0.00524667 -0.02 0 0 0
6 -0.007 -47.211 5.93 0 0 0
7 -0.007 8.45016 2.68682 0 0 0
8 0 -47.2058 0 0 0 0
9 0 -4.3996 -3.75516 0 0 0
time 114
0 -0.006520736 44.78805 0 0 2.023376 0
1 0.00652074 47.2058 0 0 0 0
2 0 -47.2058 0 0 0 0
3 0 0.929421 0 0 0 0
4 0 0 0 0 0 0
5 0.007 0.00524667 -0.02 0 0 0
6 -0.007 -47.211 5.93 0 0 0
7 -0.007 8.45016 2.68682 0 0 0
8 0 -47.2058 0 0 0 0
9 0 -4.3996 -3.75516 0 0 0
time 115
0 -0.006520736 44.78805 0 0 2.041126 0
1 0.00652074 47.2058 0 0 0 0
2 0 -47.2058 0 0 0 0
3 0 0.929421 0 0 0 0
4 0 0 0 0 0 0
5 0.007 0.00524667 -0.02 0 0 0
6 -0.007 -47.211 5.93 0 0 0
7 -0.007 8.45016 2.68682 0 0 0
8 0 -47.2058 0 0 0 0
9 0 -4.3996 -3.75516 0 0 0
time 116
0 -0.006520736 44.78805 0 0 2.058876 0
1 0.00652074 47.2058 0 0 0 0
2 0 -47.2058 0 0 0 0
3 0 0.929421 0 0 0 0
4 0 0 0 0 0 0
5 0.007 0.00524667 -0.02 0 0 0
6 -0.007 -47.211 5.93 0 0 0
7 -0.007 8.45016 2.68682 0 0 0
8 0 -47.2058 0 0 0 0
9 0 -4.3996 -3.75516 0 0 0
time 117
0 -0.006520736 44.78805 0 0 2.076626 0
1 0.00652074 47.2058 0 0 0 0
2 0 -47.2058 0 0 0 0
3 0 0.929421 0 0 0 0
4 0 0 0 0 0 0
5 0.007 0.00524667 -0.02 0 0 0
6 -0.007 -47.211 5.93 0 0 0
7 -0.007 8.45016 2.68682 0 0 0
8 0 -47.2058 0 0 0 0
9 0 -4.3996 -3.75516 0 0 0
time 118
0 -0.006520736 44.78805 0 0 2.094376 0
1 0.00652074 47.2058 0 0 0 0
2 0 -47.2058 0 0 0 0
3 0 0.929421 0 0 0 0
4 0 0 0 0 0 0
5 0.007 0.00524667 -0.02 0 0 0
6 -0.007 -47.211 5.93 0 0 0
7 -0.007 8.45016 2.68682 0 0 0
8 0 -47.2058 0 0 0 0
9 0 -4.3996 -3.75516 0 0 0
time 119
0 -0.006520736 44.78805 0 0 2.112126 0
1 0.00652074 47.2058 0 0 0 0
2 0 -47.2058 0 0 0 0
3 0 0.929421 0 0 0 0
4 0 0 0 0 0 0
5 0.007 0.00524667 -0.02 0 0 0
6 -0.007 -47.211 5.93 0 0 0
7 -0.007 8.45016 2.68682 0 0 0
8 0 -47.2058 0 0 0 0
9 0 -4.3996 -3.75516 0 0 0
time 120
0 -0.006520736 44.78805 0 0 2.129877 0
1 0.00652074 47.2058 0 0 0 0
2 0 -47.2058 0 0 0 0
3 0 0.929421 0 0 0 0
4 0 0 0 0 0 0
5 0.007 0.00524667 -0.02 0 0 0
6 -0.007 -47.211 5.93 0 0 0
7 -0.007 8.45016 2.68682 0 0 0
8 0 -47.2058 0 0 0 0
9 0 -4.3996 -3.75516 0 0 0
time 121
0 -0.006520736 44.78805 0 0 2.147627 0
1 0.00652074 47.2058 0 0 0 0
2 0 -47.2058 0 0 0 0
3 0 0.929421 0 0 0 0
4 0 0 0 0 0 0
5 0.007 0.00524667 -0.02 0 0 0
6 -0.007 -47.211 5.93 0 0 0
7 -0.007 8.45016 2.68682 0 0 0
8 0 -47.2058 0 0 0 0
9 0 -4.3996 -3.75516 0 0 0
time 122
0 -0.006520736 44.78805 0 0 2.165377 0
1 0.00652074 47.2058 0 0 0 0
2 0 -47.2058 0 0 0 0
3 0 0.929421 0 0 0 0
4 0 0 0 0 0 0
5 0.007 0.00524667 -0.02 0 0 0
6 -0.007 -47.211 5.93 0 0 0
7 -0.007 8.45016 2.68682 0 0 0
8 0 -47.2058 0 0 0 0
9 0 -4.3996 -3.75516 0 0 0
time 123
0 -0.006520736 44.78805 0 0 2.183127 0
1 0.00652074 47.2058 0 0 0 0
2 0 -47.2058 0 0 0 0
3 0 0.929421 0 0 0 0
4 0 0 0 0 0 0
5 0.007 0.00524667 -0.02 0 0 0
6 -0.007 -47.211 5.93 0 0 0
7 -0.007 8.45016 2.68682 0 0 0
8 0 -47.2058 0 0 0 0
9 0 -4.3996 -3.75516 0 0 0
time 124
0 -0.006520736 44.78805 0 0 2.200877 0
1 0.00652074 47.2058 0 0 0 0
2 0 -47.2058 0 0 0 0
3 0 0.929421 0 0 0 0
4 0 0 0 0 0 0
5 0.007 0.00524667 -0.02 0 0 0
6 -0.007 -47.211 5.93 0 0 0
7 -0.007 8.45016 2.68682 0 0 0
8 0 -47.2058 0 0 0 0
9 0 -4.3996 -3.75516 0 0 0
time 125
0 -0.006520736 44.78805 0 0 2.218627 0
1 0.00652074 47.2058 0 0 0 0
2 0 -47.2058 0 0 0 0
3 0 0.929421 0 0 0 0
4 0 0 0 0 0 0
5 0.007 0.00524667 -0.02 0 0 0
6 -0.007 -47.211 5.93 0 0 0
7 -0.007 8.45016 2.68682 0 0 0
8 0 -47.2058 0 0 0 0
9 0 -4.3996 -3.75516 0 0 0
time 126
0 -0.006520736 44.78805 0 0 2.236377 0
1 0.00652074 47.2058 0 0 0 0
2 0 -47.2058 0 0 0 0
3 0 0.929421 0 0 0 0
4 0 0 0 0 0 0
5 0.007 0.00524667 -0.02 0 0 0
6 -0.007 -47.211 5.93 0 0 0
7 -0.007 8.45016 2.68682 0 0 0
8 0 -47.2058 0 0 0 0
9 0 -4.3996 -3.75516 0 0 0
time 127
0 -0.006520736 44.78805 0 0 2.254128 0
1 0.00652074 47.2058 0 0 0 0
2 0 -47.2058 0 0 0 0
3 0 0.929421 0 0 0 0
4 0 0 0 0 0 0
5 0.007 0.00524667 -0.02 0 0 0
6 -0.007 -47.211 5.93 0 0 0
7 -0.007 8.45016 2.68682 0 0 0
8 0 -47.2058 0 0 0 0
9 0 -4.3996 -3.75516 0 0 0
time 128
0 -0.006520736 44.78805 0 0 2.271877 0
1 0.00652074 47.2058 0 0 0 0
2 0 -47.2058 0 0 0 0
3 0 0.929421 0 0 0 0
4 0 0 0 0 0 0
5 0.007 0.00524667 -0.02 0 0 0
6 -0.007 -47.211 5.93 0 0 0
7 -0.007 8.45016 2.68682 0 0 0
8 0 -47.2058 0 0 0 0
9 0 -4.3996 -3.75516 0 0 0
time 129
0 -0.006520736 44.78805 0 0 2.289628 0
1 0.00652074 47.2058 0 0 0 0
2 0 -47.2058 0 0 0 0
3 0 0.929421 0 0 0 0
4 0 0 0 0 0 0
5 0.007 0.00524667 -0.02 0 0 0
6 -0.007 -47.211 5.93 0 0 0
7 -0.007 8.45016 2.68682 0 0 0
8 0 -47.2058 0 0 0 0
9 0 -4.3996 -3.75516 0 0 0
time 130
0 -0.006520736 44.78805 0 0 2.307378 0
1 0.00652074 47.2058 0 0 0 0
2 0 -47.2058 0 0 0 0
3 0 0.929421 0 0 0 0
4 0 0 0 0 0 0
5 0.007 0.00524667 -0.02 0 0 0
6 -0.007 -47.211 5.93 0 0 0
7 -0.007 8.45016 2.68682 0 0 0
8 0 -47.2058 0 0 0 0
9 0 -4.3996 -3.75516 0 0 0
time 131
0 -0.006520736 44.78805 0 0 2.325128 0
1 0.00652074 47.2058 0 0 0 0
2 0 -47.2058 0 0 0 0
3 0 0.929421 0 0 0 0
4 0 0 0 0 0 0
5 0.007 0.00524667 -0.02 0 0 0
6 -0.007 -47.211 5.93 0 0 0
7 -0.007 8.45016 2.68682 0 0 0
8 0 -47.2058 0 0 0 0
9 0 -4.3996 -3.75516 0 0 0
time 132
0 -0.006520736 44.78805 0 0 2.342878 0
1 0.00652074 47.2058 0 0 0 0
2 0 -47.2058 0 0 0 0
3 0 0.929421 0 0 0 0
4 0 0 0 0 0 0
5 0.007 0.00524667 -0.02 0 0 0
6 -0.007 -47.211 5.93 0 0 0
7 -0.007 8.45016 2.68682 0 0 0
8 0 -47.2058 0 0 0 0
9 0 -4.3996 -3.75516 0 0 0
time 133
0 -0.006520736 44.78805 0 0 2.360629 0
1 0.00652074 47.2058 0 0 0 0
2 0 -47.2058 0 0 0 0
3 0 0.929421 0 0 0 0
4 0 0 0 0 0 0
5 0.007 0.00524667 -0.02 0 0 0
6 -0.007 -47.211 5.93 0 0 0
7 -0.007 8.45016 2.68682 0 0 0
8 0 -47.2058 0 0 0 0
9 0 -4.3996 -3.75516 0 0 0
time 134
0 -0.006520736 44.78805 0 0 2.378379 0
1 0.00652074 47.2058 0 0 0 0
2 0 -47.2058 0 0 0 0
3 0 0.929421 0 0 0 0
4 0 0 0 0 0 0
5 0.007 0.00524667 -0.02 0 0 0
6 -0.007 -47.211 5.93 0 0 0
7 -0.007 8.45016 2.68682 0 0 0
8 0 -47.2058 0 0 0 0
9 0 -4.3996 -3.75516 0 0 0
time 135
0 -0.006520736 44.78805 0 0 2.396129 0
1 0.00652074 47.2058 0 0 0 0
2 0 -47.2058 0 0 0 0
3 0 0.929421 0 0 0 0
4 0 0 0 0 0 0
5 0.007 0.00524667 -0.02 0 0 0
6 -0.007 -47.211 5.93 0 0 0
7 -0.007 8.45016 2.68682 0 0 0
8 0 -47.2058 0 0 0 0
9 0 -4.3996 -3.75516 0 0 0
time 136
0 -0.006520736 44.78805 0 0 2.413879 0
1 0.00652074 47.2058 0 0 0 0
2 0 -47.2058 0 0 0 0
3 0 0.929421 0 0 0 0
4 0 0 0 0 0 0
5 0.007 0.00524667 -0.02 0 0 0
6 -0.007 -47.211 5.93 0 0 0
7 -0.007 8.45016 2.68682 0 0 0
8 0 -47.2058 0 0 0 0
9 0 -4.3996 -3.75516 0 0 0
time 137
0 -0.006520736 44.78805 0 0 2.431629 0
1 0.00652074 47.2058 0 0 0 0
2 0 -47.2058 0 0 0 0
3 0 0.929421 0 0 0 0
4 0 0 0 0 0 0
5 0.007 0.00524667 -0.02 0 0 0
6 -0.007 -47.211 5.93 0 0 0
7 -0.007 8.45016 2.68682 0 0 0
8 0 -47.2058 0 0 0 0
9 0 -4.3996 -3.75516 0 0 0
time 138
0 -0.006520736 44.78805 0 0 2.44938 0
1 0.00652074 47.2058 0 0 0 0
2 0 -47.2058 0 0 0 0
3 0 0.929421 0 0 0 0
4 0 0 0 0 0 0
5 0.007 0.00524667 -0.02 0 0 0
6 -0.007 -47.211 5.93 0 0 0
7 -0.007 8.45016 2.68682 0 0 0
8 0 -47.2058 0 0 0 0
9 0 -4.3996 -3.75516 0 0 0
time 139
0 -0.006520736 44.78805 0 0 2.46713 0
1 0.00652074 47.2058 0 0 0 0
2 0 -47.2058 0 0 0 0
3 0 0.929421 0 0 0 0
4 0 0 0 0 0 0
5 0.007 0.00524667 -0.02 0 0 0
6 -0.007 -47.211 5.93 0 0 0
7 -0.007 8.45016 2.68682 0 0 0
8 0 -47.2058 0 0 0 0
9 0 -4.3996 -3.75516 0 0 0
time 140
0 -0.006520736 44.78805 0 0 2.48488 0
1 0.00652074 47.2058 0 0 0 0
2 0 -47.2058 0 0 0 0
3 0 0.929421 0 0 0 0
4 0 0 0 0 0 0
5 0.007 0.00524667 -0.02 0 0 0
6 -0.007 -47.211 5.93 0 0 0
7 -0.007 8.45016 2.68682 0 0 0
8 0 -47.2058 0 0 0 0
9 0 -4.3996 -3.75516 0 0 0
time 141
0 -0.006520736 44.78805 0 0 2.50263 0
1 0.00652074 47.2058 0 0 0 0
2 0 -47.2058 0 0 0 0
3 0 0.929421 0 0 0 0
4 0 0 0 0 0 0
5 0.007 0.00524667 -0.02 0 0 0
6 -0.007 -47.211 5.93 0 0 0
7 -0.007 8.45016 2.68682 0 0 0
8 0 -47.2058 0 0 0 0
9 0 -4.3996 -3.75516 0 0 0
time 142
0 -0.006520736 44.78805 0 0 2.52038 0
1 0.00652074 47.2058 0 0 0 0
2 0 -47.2058 0 0 0 0
3 0 0.929421 0 0 0 0
4 0 0 0 0 0 0
5 0.007 0.00524667 -0.02 0 0 0
6 -0.007 -47.211 5.93 0 0 0
7 -0.007 8.45016 2.68682 0 0 0
8 0 -47.2058 0 0 0 0
9 0 -4.3996 -3.75516 0 0 0
time 143
0 -0.006520736 44.78805 0 0 2.538131 0
1 0.00652074 47.2058 0 0 0 0
2 0 -47.2058 0 0 0 0
3 0 0.929421 0 0 0 0
4 0 0 0 0 0 0
5 0.007 0.00524667 -0.02 0 0 0
6 -0.007 -47.211 5.93 0 0 0
7 -0.007 8.45016 2.68682 0 0 0
8 0 -47.2058 0 0 0 0
9 0 -4.3996 -3.75516 0 0 0
time 144
0 -0.006520736 44.78805 0 0 2.555881 0
1 0.00652074 47.2058 0 0 0 0
2 0 -47.2058 0 0 0 0
3 0 0.929421 0 0 0 0
4 0 0 0 0 0 0
5 0.007 0.00524667 -0.02 0 0 0
6 -0.007 -47.211 5.93 0 0 0
7 -0.007 8.45016 2.68682 0 0 0
8 0 -47.2058 0 0 0 0
9 0 -4.3996 -3.75516 0 0 0
time 145
0 -0.006520736 44.78805 0 0 2.573631 0
1 0.00652074 47.2058 0 0 0 0
2 0 -47.2058 0 0 0 0
3 0 0.929421 0 0 0 0
4 0 0 0 0 0 0
5 0.007 0.00524667 -0.02 0 0 0
6 -0.007 -47.211 5.93 0 0 0
7 -0.007 8.45016 2.68682 0 0 0
8 0 -47.2058 0 0 0 0
9 0 -4.3996 -3.75516 0 0 0
time 146
0 -0.006520736 44.78805 0 0 2.591382 0
1 0.00652074 47.2058 0 0 0 0
2 0 -47.2058 0 0 0 0
3 0 0.929421 0 0 0 0
4 0 0 0 0 0 0
5 0.007 0.00524667 -0.02 0 0 0
6 -0.007 -47.211 5.93 0 0 0
7 -0.007 8.45016 2.68682 0 0 0
8 0 -47.2058 0 0 0 0
9 0 -4.3996 -3.75516 0 0 0
time 147
0 -0.006520736 44.78805 0 0 2.609132 0
1 0.00652074 47.2058 0 0 0 0
2 0 -47.2058 0 0 0 0
3 0 0.929421 0 0 0 0
4 0 0 0 0 0 0
5 0.007 0.00524667 -0.02 0 0 0
6 -0.007 -47.211 5.93 0 0 0
7 -0.007 8.45016 2.68682 0 0 0
8 0 -47.2058 0 0 0 0
9 0 -4.3996 -3.75516 0 0 0
time 148
0 -0.006520736 44.78805 0 0 2.626882 0
1 0.00652074 47.2058 0 0 0 0
2 0 -47.2058 0 0 0 0
3 0 0.929421 0 0 0 0
4 0 0 0 0 0 0
5 0.007 0.00524667 -0.02 0 0 0
6 -0.007 -47.211 5.93 0 0 0
7 -0.007 8.45016 2.68682 0 0 0
8 0 -47.2058 0 0 0 0
9 0 -4.3996 -3.75516 0 0 0
time 149
0 -0.006520736 44.78805 0 0 2.644633 0
1 0.00652074 47.2058 0 0 0 0
2 0 -47.2058 0 0 0 0
3 0 0.929421 0 0 0 0
4 0 0 0 0 0 0
5 0.007 0.00524667 -0.02 0 0 0
6 -0.007 -47.211 5.93 0 0 0
7 -0.007 8.45016 2.68682 0 0 0
8 0 -47.2058 0 0 0 0
9 0 -4.3996 -3.75516 0 0 0
time 150
0 -0.006520736 44.78805 0 0 2.662383 0
1 0.00652074 47.2058 0 0 0 0
2 0 -47.2058 0 0 0 0
3 0 0.929421 0 0 0 0
4 0 0 0 0 0 0
5 0.007 0.00524667 -0.02 0 0 0
6 -0.007 -47.211 5.93 0 0 0
7 -0.007 8.45016 2.68682 0 0 0
8 0 -47.2058 0 0 0 0
9 0 -4.3996 -3.75516 0 0 0
time 151
0 -0.006520736 44.78805 0 0 2.680133 0
1 0.00652074 47.2058 0 0 0 0
2 0 -47.2058 0 0 0 0
3 0 0.929421 0 0 0 0
4 0 0 0 0 0 0
5 0.007 0.00524667 -0.02 0 0 0
6 -0.007 -47.211 5.93 0 0 0
7 -0.007 8.45016 2.68682 0 0 0
8 0 -47.2058 0 0 0 0
9 0 -4.3996 -3.75516 0 0 0
time 152
0 -0.006520736 44.78805 0 0 2.697883 0
1 0.00652074 47.2058 0 0 0 0
2 0 -47.2058 0 0 0 0
3 0 0.929421 0 0 0 0
4 0 0 0 0 0 0
5 0.007 0.00524667 -0.02 0 0 0
6 -0.007 -47.211 5.93 0 0 0
7 -0.007 8.45016 2.68682 0 0 0
8 0 -47.2058 0 0 0 0
9 0 -4.3996 -3.75516 0 0 0
time 153
0 -0.006520736 44.78805 0 0 2.715633 0
1 0.00652074 47.2058 0 0 0 0
2 0 -47.2058 0 0 0 0
3 0 0.929421 0 0 0 0
4 0 0 0 0 0 0
5 0.007 0.00524667 -0.02 0 0 0
6 -0.007 -47.211 5.93 0 0 0
7 -0.007 8.45016 2.68682 0 0 0
8 0 -47.2058 0 0 0 0
9 0 -4.3996 -3.75516 0 0 0
time 154
0 -0.006520736 44.78805 0 0 2.733384 0
1 0.00652074 47.2058 0 0 0 0
2 0 -47.2058 0 0 0 0
3 0 0.929421 0 0 0 0
4 0 0 0 0 0 0
5 0.007 0.00524667 -0.02 0 0 0
6 -0.007 -47.211 5.93 0 0 0
7 -0.007 8.45016 2.68682 0 0 0
8 0 -47.2058 0 0 0 0
9 0 -4.3996 -3.75516 0 0 0
time 155
0 -0.006520736 44.78805 0 0 2.751134 0
1 0.00652074 47.2058 0 0 0 0
2 0 -47.2058 0 0 0 0
3 0 0.929421 0 0 0 0
4 0 0 0 0 0 0
5 0.007 0.00524667 -0.02 0 0 0
6 -0.007 -47.211 5.93 0 0 0
7 -0.007 8.45016 2.68682 0 0 0
8 0 -47.2058 0 0 0 0
9 0 -4.3996 -3.75516 0 0 0
time 156
0 -0.006520736 44.78805 0 0 2.768884 0
1 0.00652074 47.2058 0 0 0 0
2 0 -47.2058 0 0 0 0
3 0 0.929421 0 0 0 0
4 0 0 0 0 0 0
5 0.007 0.00524667 -0.02 0 0 0
6 -0.007 -47.211 5.93 0 0 0
7 -0.007 8.45016 2.68682 0 0 0
8 0 -47.2058 0 0 0 0
9 0 -4.3996 -3.75516 0 0 0
time 157
0 -0.006520736 44.78805 0 0 2.786635 0
1 0.00652074 47.2058 0 0 0 0
2 0 -47.2058 0 0 0 0
3 0 0.929421 0 0 0 0
4 0 0 0 0 0 0
5 0.007 0.00524667 -0.02 0 0 0
6 -0.007 -47.211 5.93 0 0 0
7 -0.007 8.45016 2.68682 0 0 0
8 0 -47.2058 0 0 0 0
9 0 -4.3996 -3.75516 0 0 0
time 158
0 -0.006520736 44.78805 0 0 2.804385 0
1 0.00652074 47.2058 0 0 0 0
2 0 -47.2058 0 0 0 0
3 0 0.929421 0 0 0 0
4 0 0 0 0 0 0
5 0.007 0.00524667 -0.02 0 0 0
6 -0.007 -47.211 5.93 0 0 0
7 -0.007 8.45016 2.68682 0 0 0
8 0 -47.2058 0 0 0 0
9 0 -4.3996 -3.75516 0 0 0
time 159
0 -0.006520736 44.78805 0 0 2.822135 0
1 0.00652074 47.2058 0 0 0 0
2 0 -47.2058 0 0 0 0
3 0 0.929421 0 0 0 0
4 0 0 0 0 0 0
5 0.007 0.00524667 -0.02 0 0 0
6 -0.007 -47.211 5.93 0 0 0
7 -0.007 8.45016 2.68682 0 0 0
8 0 -47.2058 0 0 0 0
9 0 -4.3996 -3.75516 0 0 0
time 160
0 -0.006520736 44.78805 0 0 2.839886 0
1 0.00652074 47.2058 0 0 0 0
2 0 -47.2058 0 0 0 0
3 0 0.929421 0 0 0 0
4 0 0 0 0 0 0
5 0.007 0.00524667 -0.02 0 0 0
6 -0.007 -47.211 5.93 0 0 0
7 -0.007 8.45016 2.68682 0 0 0
8 0 -47.2058 0 0 0 0
9 0 -4.3996 -3.75516 0 0 0
time 161
0 -0.006520736 44.78805 0 0 2.857636 0
1 0.00652074 47.2058 0 0 0 0
2 0 -47.2058 0 0 0 0
3 0 0.929421 0 0 0 0
4 0 0 0 0 0 0
5 0.007 0.00524667 -0.02 0 0 0
6 -0.007 -47.211 5.93 0 0 0
7 -0.007 8.45016 2.68682 0 0 0
8 0 -47.2058 0 0 0 0
9 0 -4.3996 -3.75516 0 0 0
time 162
0 -0.006520736 44.78805 0 0 2.875386 0
1 0.00652074 47.2058 0 0 0 0
2 0 -47.2058 0 0 0 0
3 0 0.929421 0 0 0 0
4 0 0 0 0 0 0
5 0.007 0.00524667 -0.02 0 0 0
6 -0.007 -47.211 5.93 0 0 0
7 -0.007 8.45016 2.68682 0 0 0
8 0 -47.2058 0 0 0 0
9 0 -4.3996 -3.75516 0 0 0
time 163
0 -0.006520736 44.78805 0 0 2.893137 0
1 0.00652074 47.2058 0 0 0 0
2 0 -47.2058 0 0 0 0
3 0 0.929421 0 0 0 0
4 0 0 0 0 0 0
5 0.007 0.00524667 -0.02 0 0 0
6 -0.007 -47.211 5.93 0 0 0
7 -0.007 8.45016 2.68682 0 0 0
8 0 -47.2058 0 0 0 0
9 0 -4.3996 -3.75516 0 0 0
time 164
0 -0.006520736 44.78805 0 0 2.910887 0
1 0.00652074 47.2058 0 0 0 0
2 0 -47.2058 0 0 0 0
3 0 0.929421 0 0 0 0
4 0 0 0 0 0 0
5 0.007 0.00524667 -0.02 0 0 0
6 -0.007 -47.211 5.93 0 0 0
7 -0.007 8.45016 2.68682 0 0 0
8 0 -47.2058 0 0 0 0
9 0 -4.3996 -3.75516 0 0 0
time 165
0 -0.006520736 44.78805 0 0 2.928637 0
1 0.00652074 47.2058 0 0 0 0
2 0 -47.2058 0 0 0 0
3 0 0.929421 0 0 0 0
4 0 0 0 0 0 0
5 0.007 0.00524667 -0.02 0 0 0
6 -0.007 -47.211 5.93 0 0 0
7 -0.007 8.45016 2.68682 0 0 0
8 0 -47.2058 0 0 0 0
9 0 -4.3996 -3.75516 0 0 0
time 166
0 -0.006520736 44.78805 0 0 2.946388 0
1 0.00652074 47.2058 0 0 0 0
2 0 -47.2058 0 0 0 0
3 0 0.929421 0 0 0 0
4 0 0 0 0 0 0
5 0.007 0.00524667 -0.02 0 0 0
6 -0.007 -47.211 5.93 0 0 0
7 -0.007 8.45016 2.68682 0 0 0
8 0 -47.2058 0 0 0 0
9 0 -4.3996 -3.75516 0 0 0
time 167
0 -0.006520736 44.78805 0 0 2.964138 0
1 0.00652074 47.2058 0 0 0 0
2 0 -47.2058 0 0 0 0
3 0 0.929421 0 0 0 0
4 0 0 0 0 0 0
5 0.007 0.00524667 -0.02 0 0 0
6 -0.007 -47.211 5.93 0 0 0
7 -0.007 8.45016 2.68682 0 0 0
8 0 -47.2058 0 0 0 0
9 0 -4.3996 -3.75516 0 0 0
time 168
0 -0.006520736 44.78805 0 0 2.981888 0
1 0.00652074 47.2058 0 0 0 0
2 0 -47.2058 0 0 0 0
3 0 0.929421 0 0 0 0
4 0 0 0 0 0 0
5 0.007 0.00524667 -0.02 0 0 0
6 -0.007 -47.211 5.93 0 0 0
7 -0.007 8.45016 2.68682 0 0 0
8 0 -47.2058 0 0 0 0
9 0 -4.3996 -3.75516 0 0 0
time 169
0 -0.006520736 44.78805 0 0 2.999638 0
1 0.00652074 47.2058 0 0 0 0
2 0 -47.2058 0 0 0 0
3 0 0.929421 0 0 0 0
4 0 0 0 0 0 0
5 0.007 0.00524667 -0.02 0 0 0
6 -0.007 -47.211 5.93 0 0 0
7 -0.007 8.45016 2.68682 0 0 0
8 0 -47.2058 0 0 0 0
9 0 -4.3996 -3.75516 0 0 0
time 170
0 -0.006520736 44.78805 0 0 3.017389 0
1 0.00652074 47.2058 0 0 0 0
2 0 -47.2058 0 0 0 0
3 0 0.929421 0 0 0 0
4 0 0 0 0 0 0
5 0.007 0.00524667 -0.02 0 0 0
6 -0.007 -47.211 5.93 0 0 0
7 -0.007 8.45016 2.68682 0 0 0
8 0 -47.2058 0 0 0 0
9 0 -4.3996 -3.75516 0 0 0
time 171
0 -0.006520736 44.78805 0 0 3.035139 0
1 0.00652074 47.2058 0 0 0 0
2 0 -47.2058 0 0 0 0
3 0 0.929421 0 0 0 0
4 0 0 0 0 0 0
5 0.007 0.00524667 -0.02 0 0 0
6 -0.007 -47.211 5.93 0 0 0
7 -0.007 8.45016 2.68682 0 0 0
8 0 -47.2058 0 0 0 0
9 0 -4.3996 -3.75516 0 0 0
time 172
0 -0.006520736 44.78805 0 0 3.052889 0
1 0.00652074 47.2058 0 0 0 0
2 0 -47.2058 0 0 0 0
3 0 0.929421 0 0 0 0
4 0 0 0 0 0 0
5 0.007 0.00524667 -0.02 0 0 0
6 -0.007 -47.211 5.93 0 0 0
7 -0.007 8.45016 2.68682 0 0 0
8 0 -47.2058 0 0 0 0
9 0 -4.3996 -3.75516 0 0 0
time 173
0 -0.006520736 44.78805 0 0 3.070639 0
1 0.00652074 47.2058 0 0 0 0
2 0 -47.2058 0 0 0 0
3 0 0.929421 0 0 0 0
4 0 0 0 0 0 0
5 0.007 0.00524667 -0.02 0 0 0
6 -0.007 -47.211 5.93 0 0 0
7 -0.007 8.45016 2.68682 0 0 0
8 0 -47.2058 0 0 0 0
9 0 -4.3996 -3.75516 0 0 0
time 174
0 -0.006520736 44.78805 0 0 3.08839 0
1 0.00652074 47.2058 0 0 0 0
2 0 -47.2058 0 0 0 0
3 0 0.929421 0 0 0 0
4 0 0 0 0 0 0
5 0.007 0.00524667 -0.02 0 0 0
6 -0.007 -47.211 5.93 0 0 0
7 -0.007 8.45016 2.68682 0 0 0
8 0 -47.2058 0 0 0 0
9 0 -4.3996 -3.75516 0 0 0
time 175
0 -0.006520736 44.78805 0 0 3.10614 0
1 0.00652074 47.2058 0 0 0 0
2 0 -47.2058 0 0 0 0
3 0 0.929421 0 0 0 0
4 0 0 0 0 0 0
5 0.007 0.00524667 -0.02 0 0 0
6 -0.007 -47.211 5.93 0 0 0
7 -0.007 8.45016 2.68682 0 0 0
8 0 -47.2058 0 0 0 0
9 0 -4.3996 -3.75516 0 0 0
time 176
0 -0.006520736 44.78805 0 0 3.12389 0
1 0.00652074 47.2058 0 0 0 0
2 0 -47.2058 0 0 0 0
3 0 0.929421 0 0 0 0
4 0 0 0 0 0 0
5 0.007 0.00524667 -0.02 0 0 0
6 -0.007 -47.211 5.93 0 0 0
7 -0.007 8.45016 2.68682 0 0 0
8 0 -47.2058 0 0 0 0
9 0 -4.3996 -3.75516 0 0 0
time 177
0 -0.006520736 44.78805 0 0 3.141641 0
1 0.00652074 47.2058 0 0 0 0
2 0 -47.2058 0 0 0 0
3 0 0.929421 0 0 0 0
4 0 0 0 0 0 0
5 0.007 0.00524667 -0.02 0 0 0
6 -0.007 -47.211 5.93 0 0 0
7 -0.007 8.45016 2.68682 0 0 0
8 0 -47.2058 0 0 0 0
9 0 -4.3996 -3.75516 0 0 0
time 178
0 -0.006520736 44.78805 0 0 3.159391 0
1 0.00652074 47.2058 0 0 0 0
2 0 -47.2058 0 0 0 0
3 0 0.929421 0 0 0 0
4 0 0 0 0 0 0
5 0.007 0.00524667 -0.02 0 0 0
6 -0.007 -47.211 5.93 0 0 0
7 -0.007 8.45016 2.68682 0 0 0
8 0 -47.2058 0 0 0 0
9 0 -4.3996 -3.75516 0 0 0
time 179
0 -0.006520736 44.78805 0 0 3.177141 0
1 0.00652074 47.2058 0 0 0 0
2 0 -47.2058 0 0 0 0
3 0 0.929421 0 0 0 0
4 0 0 0 0 0 0
5 0.007 0.00524667 -0.02 0 0 0
6 -0.007 -47.211 5.93 0 0 0
7 -0.007 8.45016 2.68682 0 0 0
8 0 -47.2058 0 0 0 0
9 0 -4.3996 -3.75516 0 0 0
time 180
0 -0.006520736 44.78805 0 0 3.194891 0
1 0.00652074 47.2058 0 0 0 0
2 0 -47.2058 0 0 0 0
3 0 0.929421 0 0 0 0
4 0 0 0 0 0 0
5 0.007 0.00524667 -0.02 0 0 0
6 -0.007 -47.211 5.93 0 0 0
7 -0.007 8.45016 2.68682 0 0 0
8 0 -47.2058 0 0 0 0
9 0 -4.3996 -3.75516 0 0 0
time 181
0 -0.006520736 44.78805 0 0 3.212642 0
1 0.00652074 47.2058 0 0 0 0
2 0 -47.2058 0 0 0 0
3 0 0.929421 0 0 0 0
4 0 0 0 0 0 0
5 0.007 0.00524667 -0.02 0 0 0
6 -0.007 -47.211 5.93 0 0 0
7 -0.007 8.45016 2.68682 0 0 0
8 0 -47.2058 0 0 0 0
9 0 -4.3996 -3.75516 0 0 0
time 182
0 -0.006520736 44.78805 0 0 3.230392 0
1 0.00652074 47.2058 0 0 0 0
2 0 -47.2058 0 0 0 0
3 0 0.929421 0 0 0 0
4 0 0 0 0 0 0
5 0.007 0.00524667 -0.02 0 0 0
6 -0.007 -47.211 5.93 0 0 0
7 -0.007 8.45016 2.68682 0 0 0
8 0 -47.2058 0 0 0 0
9 0 -4.3996 -3.75516 0 0 0
time 183
0 -0.006520736 44.78805 0 0 3.248142 0
1 0.00652074 47.2058 0 0 0 0
2 0 -47.2058 0 0 0 0
3 0 0.929421 0 0 0 0
4 0 0 0 0 0 0
5 0.007 0.00524667 -0.02 0 0 0
6 -0.007 -47.211 5.93 0 0 0
7 -0.007 8.45016 2.68682 0 0 0
8 0 -47.2058 0 0 0 0
9 0 -4.3996 -3.75516 0 0 0
time 184
0 -0.006520736 44.78805 0 0 3.265893 0
1 0.00652074 47.2058 0 0 0 0
2 0 -47.2058 0 0 0 0
3 0 0.929421 0 0 0 0
4 0 0 0 0 0 0
5 0.007 0.00524667 -0.02 0 0 0
6 -0.007 -47.211 5.93 0 0 0
7 -0.007 8.45016 2.68682 0 0 0
8 0 -47.2058 0 0 0 0
9 0 -4.3996 -3.75516 0 0 0
time 185
0 -0.006520736 44.78805 0 0 3.283643 0
1 0.00652074 47.2058 0 0 0 0
2 0 -47.2058 0 0 0 0
3 0 0.929421 0 0 0 0
4 0 0 0 0 0 0
5 0.007 0.00524667 -0.02 0 0 0
6 -0.007 -47.211 5.93 0 0 0
7 -0.007 8.45016 2.68682 0 0 0
8 0 -47.2058 0 0 0 0
9 0 -4.3996 -3.75516 0 0 0
time 186
0 -0.006520736 44.78805 0 0 3.301393 0
1 0.00652074 47.2058 0 0 0 0
2 0 -47.2058 0 0 0 0
3 0 0.929421 0 0 0 0
4 0 0 0 0 0 0
5 0.007 0.00524667 -0.02 0 0 0
6 -0.007 -47.211 5.93 0 0 0
7 -0.007 8.45016 2.68682 0 0 0
8 0 -47.2058 0 0 0 0
9 0 -4.3996 -3.75516 0 0 0
time 187
0 -0.006520736 44.78805 0 0 3.319143 0
1 0.00652074 47.2058 0 0 0 0
2 0 -47.2058 0 0 0 0
3 0 0.929421 0 0 0 0
4 0 0 0 0 0 0
5 0.007 0.00524667 -0.02 0 0 0
6 -0.007 -47.211 5.93 0 0 0
7 -0.007 8.45016 2.68682 0 0 0
8 0 -47.2058 0 0 0 0
9 0 -4.3996 -3.75516 0 0 0
time 188
0 -0.006520736 44.78805 0 0 3.336894 0
1 0.00652074 47.2058 0 0 0 0
2 0 -47.2058 0 0 0 0
3 0 0.929421 0 0 0 0
4 0 0 0 0 0 0
5 0.007 0.00524667 -0.02 0 0 0
6 -0.007 -47.211 5.93 0 0 0
7 -0.007 8.45016 2.68682 0 0 0
8 0 -47.2058 0 0 0 0
9 0 -4.3996 -3.75516 0 0 0
time 189
0 -0.006520736 44.78805 0 0 3.354644 0
1 0.00652074 47.2058 0 0 0 0
2 0 -47.2058 0 0 0 0
3 0 0.929421 0 0 0 0
4 0 0 0 0 0 0
5 0.007 0.00524667 -0.02 0 0 0
6 -0.007 -47.211 5.93 0 0 0
7 -0.007 8.45016 2.68682 0 0 0
8 0 -47.2058 0 0 0 0
9 0 -4.3996 -3.75516 0 0 0
time 190
0 -0.006520736 44.78805 0 0 3.372394 0
1 0.00652074 47.2058 0 0 0 0
2 0 -47.2058 0 0 0 0
3 0 0.929421 0 0 0 0
4 0 0 0 0 0 0
5 0.007 0.00524667 -0.02 0 0 0
6 -0.007 -47.211 5.93 0 0 0
7 -0.007 8.45016 2.68682 0 0 0
8 0 -47.2058 0 0 0 0
9 0 -4.3996 -3.75516 0 0 0
time 191
0 -0.006520736 44.78805 0 0 3.390144 0
1 0.00652074 47.2058 0 0 0 0
2 0 -47.2058 0 0 0 0
3 0 0.929421 0 0 0 0
4 0 0 0 0 0 0
5 0.007 0.00524667 -0.02 0 0 0
6 -0.007 -47.211 5.93 0 0 0
7 -0.007 8.45016 2.68682 0 0 0
8 0 -47.2058 0 0 0 0
9 0 -4.3996 -3.75516 0 0 0
time 192
0 -0.006520736 44.78805 0 0 3.407894 0
1 0.00652074 47.2058 0 0 0 0
2 0 -47.2058 0 0 0 0
3 0 0.929421 0 0 0 0
4 0 0 0 0 0 0
5 0.007 0.00524667 -0.02 0 0 0
6 -0.007 -47.211 5.93 0 0 0
7 -0.007 8.45016 2.68682 0 0 0
8 0 -47.2058 0 0 0 0
9 0 -4.3996 -3.75516 0 0 0
time 193
0 -0.006520736 44.78805 0 0 3.425645 0
1 0.00652074 47.2058 0 0 0 0
2 0 -47.2058 0 0 0 0
3 0 0.929421 0 0 0 0
4 0 0 0 0 0 0
5 0.007 0.00524667 -0.02 0 0 0
6 -0.007 -47.211 5.93 0 0 0
7 -0.007 8.45016 2.68682 0 0 0
8 0 -47.2058 0 0 0 0
9 0 -4.3996 -3.75516 0 0 0
time 194
0 -0.006520736 44.78805 0 0 3.443395 0
1 0.00652074 47.2058 0 0 0 0
2 0 -47.2058 0 0 0 0
3 0 0.929421 0 0 0 0
4 0 0 0 0 0 0
5 0.007 0.00524667 -0.02 0 0 0
6 -0.007 -47.211 5.93 0 0 0
7 -0.007 8.45016 2.68682 0 0 0
8 0 -47.2058 0 0 0 0
9 0 -4.3996 -3.75516 0 0 0
time 195
0 -0.006520736 44.78805 0 0 3.461145 0
1 0.00652074 47.2058 0 0 0 0
2 0 -47.2058 0 0 0 0
3 0 0.929421 0 0 0 0
4 0 0 0 0 0 0
5 0.007 0.00524667 -0.02 0 0 0
6 -0.007 -47.211 5.93 0 0 0
7 -0.007 8.45016 2.68682 0 0 0
8 0 -47.2058 0 0 0 0
9 0 -4.3996 -3.75516 0 0 0
time 196
0 -0.006520736 44.78805 0 0 3.478895 0
1 0.00652074 47.2058 0 0 0 0
2 0 -47.2058 0 0 0 0
3 0 0.929421 0 0 0 0
4 0 0 0 0 0 0
5 0.007 0.00524667 -0.02 0 0 0
6 -0.007 -47.211 5.93 0 0 0
7 -0.007 8.45016 2.68682 0 0 0
8 0 -47.2058 0 0 0 0
9 0 -4.3996 -3.75516 0 0 0
time 197
0 -0.006520736 44.78805 0 0 3.496645 0
1 0.00652074 47.2058 0 0 0 0
2 0 -47.2058 0 0 0 0
3 0 0.929421 0 0 0 0
4 0 0 0 0 0 0
5 0.007 0.00524667 -0.02 0 0 0
6 -0.007 -47.211 5.93 0 0 0
7 -0.007 8.45016 2.68682 0 0 0
8 0 -47.2058 0 0 0 0
9 0 -4.3996 -3.75516 0 0 0
time 198
0 -0.006520736 44.78805 0 0 3.514396 0
1 0.00652074 47.2058 0 0 0 0
2 0 -47.2058 0 0 0 0
3 0 0.929421 0 0 0 0
4 0 0 0 0 0 0
5 0.007 0.00524667 -0.02 0 0 0
6 -0.007 -47.211 5.93 0 0 0
7 -0.007 8.45016 2.68682 0 0 0
8 0 -47.2058 0 0 0 0
9 0 -4.3996 -3.75516 0 0 0
time 199
0 -0.006520736 44.78805 0 0 3.532146 0
1 0.00652074 47.2058 0 0 0 0
2 0 -47.2058 0 0 0 0
3 0 0.929421 0 0 0 0
4 0 0 0 0 0 0
5 0.007 0.00524667 -0.02 0 0 0
6 -0.007 -47.211 5.93 0 0 0
7 -0.007 8.45016 2.68682 0 0 0
8 0 -47.2058 0 0 0 0
9 0 -4.3996 -3.75516 0 0 0
time 200
0 -0.006520736 44.78805 0 0 3.549896 0
1 0.00652074 47.2058 0 0 0 0
2 0 -47.2058 0 0 0 0
3 0 0.929421 0 0 0 0
4 0 0 0 0 0 0
5 0.007 0.00524667 -0.02 0 0 0
6 -0.007 -47.211 5.93 0 0 0
7 -0.007 8.45016 2.68682 0 0 0
8 0 -47.2058 0 0 0 0
9 0 -4.3996 -3.75516 0 0 0
time 201
0 -0.006520736 44.78805 0 0 3.567646 0
1 0.00652074 47.2058 0 0 0 0
2 0 -47.2058 0 0 0 0
3 0 0.929421 0 0 0 0
4 0 0 0 0 0 0
5 0.007 0.00524667 -0.02 0 0 0
6 -0.007 -47.211 5.93 0 0 0
7 -0.007 8.45016 2.68682 0 0 0
8 0 -47.2058 0 0 0 0
9 0 -4.3996 -3.75516 0 0 0
time 202
0 -0.006520736 44.78805 0 0 3.585397 0
1 0.00652074 47.2058 0 0 0 0
2 0 -47.2058 0 0 0 0
3 0 0.929421 0 0 0 0
4 0 0 0 0 0 0
5 0.007 0.00524667 -0.02 0 0 0
6 -0.007 -47.211 5.93 0 0 0
7 -0.007 8.45016 2.68682 0 0 0
8 0 -47.2058 0 0 0 0
9 0 -4.3996 -3.75516 0 0 0
time 203
0 -0.006520736 44.78805 0 0 3.603146 0
1 0.00652074 47.2058 0 0 0 0
2 0 -47.2058 0 0 0 0
3 0 0.929421 0 0 0 0
4 0 0 0 0 0 0
5 0.007 0.00524667 -0.02 0 0 0
6 -0.007 -47.211 5.93 0 0 0
7 -0.007 8.45016 2.68682 0 0 0
8 0 -47.2058 0 0 0 0
9 0 -4.3996 -3.75516 0 0 0
time 204
0 -0.006520736 44.78805 0 0 3.620896 0
1 0.00652074 47.2058 0 0 0 0
2 0 -47.2058 0 0 0 0
3 0 0.929421 0 0 0 0
4 0 0 0 0 0 0
5 0.007 0.00524667 -0.02 0 0 0
6 -0.007 -47.211 5.93 0 0 0
7 -0.007 8.45016 2.68682 0 0 0
8 0 -47.2058 0 0 0 0
9 0 -4.3996 -3.75516 0 0 0
time 205
0 -0.006520736 44.78805 0 0 3.638647 0
1 0.00652074 47.2058 0 0 0 0
2 0 -47.2058 0 0 0 0
3 0 0.929421 0 0 0 0
4 0 0 0 0 0 0
5 0.007 0.00524667 -0.02 0 0 0
6 -0.007 -47.211 5.93 0 0 0
7 -0.007 8.45016 2.68682 0 0 0
8 0 -47.2058 0 0 0 0
9 0 -4.3996 -3.75516 0 0 0
time 206
0 -0.006520736 44.78805 0 0 3.656397 0
1 0.00652074 47.2058 0 0 0 0
2 0 -47.2058 0 0 0 0
3 0 0.929421 0 0 0 0
4 0 0 0 0 0 0
5 0.007 0.00524667 -0.02 0 0 0
6 -0.007 -47.211 5.93 0 0 0
7 -0.007 8.45016 2.68682 0 0 0
8 0 -47.2058 0 0 0 0
9 0 -4.3996 -3.75516 0 0 0
time 207
0 -0.006520736 44.78805 0 0 3.674147 0
1 0.00652074 47.2058 0 0 0 0
2 0 -47.2058 0 0 0 0
3 0 0.929421 0 0 0 0
4 0 0 0 0 0 0
5 0.007 0.00524667 -0.02 0 0 0
6 -0.007 -47.211 5.93 0 0 0
7 -0.007 8.45016 2.68682 0 0 0
8 0 -47.2058 0 0 0 0
9 0 -4.3996 -3.75516 0 0 0
time 208
0 -0.006520736 44.78805 0 0 3.691897 0
1 0.00652074 47.2058 0 0 0 0
2 0 -47.2058 0 0 0 0
3 0 0.929421 0 0 0 0
4 0 0 0 0 0 0
5 0.007 0.00524667 -0.02 0 0 0
6 -0.007 -47.211 5.93 0 0 0
7 -0.007 8.45016 2.68682 0 0 0
8 0 -47.2058 0 0 0 0
9 0 -4.3996 -3.75516 0 0 0
time 209
0 -0.006520736 44.78805 0 0 3.709647 0
1 0.00652074 47.2058 0 0 0 0
2 0 -47.2058 0 0 0 0
3 0 0.929421 0 0 0 0
4 0 0 0 0 0 0
5 0.007 0.00524667 -0.02 0 0 0
6 -0.007 -47.211 5.93 0 0 0
7 -0.007 8.45016 2.68682 0 0 0
8 0 -47.2058 0 0 0 0
9 0 -4.3996 -3.75516 0 0 0
time 210
0 -0.006520736 44.78805 0 0 3.727397 0
1 0.00652074 47.2058 0 0 0 0
2 0 -47.2058 0 0 0 0
3 0 0.929421 0 0 0 0
4 0 0 0 0 0 0
5 0.007 0.00524667 -0.02 0 0 0
6 -0.007 -47.211 5.93 0 0 0
7 -0.007 8.45016 2.68682 0 0 0
8 0 -47.2058 0 0 0 0
9 0 -4.3996 -3.75516 0 0 0
time 211
0 -0.006520736 44.78805 0 0 3.745146 0
1 0.00652074 47.2058 0 0 0 0
2 0 -47.2058 0 0 0 0
3 0 0.929421 0 0 0 0
4 0 0 0 0 0 0
5 0.007 0.00524667 -0.02 0 0 0
6 -0.007 -47.211 5.93 0 0 0
7 -0.007 8.45016 2.68682 0 0 0
8 0 -47.2058 0 0 0 0
9 0 -4.3996 -3.75516 0 0 0
time 212
0 -0.006520736 44.78805 0 0 3.762897 0
1 0.00652074 47.2058 0 0 0 0
2 0 -47.2058 0 0 0 0
3 0 0.929421 0 0 0 0
4 0 0 0 0 0 0
5 0.007 0.00524667 -0.02 0 0 0
6 -0.007 -47.211 5.93 0 0 0
7 -0.007 8.45016 2.68682 0 0 0
8 0 -47.2058 0 0 0 0
9 0 -4.3996 -3.75516 0 0 0
time 213
0 -0.006520736 44.78805 0 0 3.780647 0
1 0.00652074 47.2058 0 0 0 0
2 0 -47.2058 0 0 0 0
3 0 0.929421 0 0 0 0
4 0 0 0 0 0 0
5 0.007 0.00524667 -0.02 0 0 0
6 -0.007 -47.211 5.93 0 0 0
7 -0.007 8.45016 2.68682 0 0 0
8 0 -47.2058 0 0 0 0
9 0 -4.3996 -3.75516 0 0 0
time 214
0 -0.006520736 44.78805 0 0 3.798397 0
1 0.00652074 47.2058 0 0 0 0
2 0 -47.2058 0 0 0 0
3 0 0.929421 0 0 0 0
4 0 0 0 0 0 0
5 0.007 0.00524667 -0.02 0 0 0
6 -0.007 -47.211 5.93 0 0 0
7 -0.007 8.45016 2.68682 0 0 0
8 0 -47.2058 0 0 0 0
9 0 -4.3996 -3.75516 0 0 0
time 215
0 -0.006520736 44.78805 0 0 3.816147 0
1 0.00652074 47.2058 0 0 0 0
2 0 -47.2058 0 0 0 0
3 0 0.929421 0 0 0 0
4 0 0 0 0 0 0
5 0.007 0.00524667 -0.02 0 0 0
6 -0.007 -47.211 5.93 0 0 0
7 -0.007 8.45016 2.68682 0 0 0
8 0 -47.2058 0 0 0 0
9 0 -4.3996 -3.75516 0 0 0
time 216
0 -0.006520736 44.78805 0 0 3.833897 0
1 0.00652074 47.2058 0 0 0 0
2 0 -47.2058 0 0 0 0
3 0 0.929421 0 0 0 0
4 0 0 0 0 0 0
5 0.007 0.00524667 -0.02 0 0 0
6 -0.007 -47.211 5.93 0 0 0
7 -0.007 8.45016 2.68682 0 0 0
8 0 -47.2058 0 0 0 0
9 0 -4.3996 -3.75516 0 0 0
time 217
0 -0.006520736 44.78805 0 0 3.851647 0
1 0.00652074 47.2058 0 0 0 0
2 0 -47.2058 0 0 0 0
3 0 0.929421 0 0 0 0
4 0 0 0 0 0 0
5 0.007 0.00524667 -0.02 0 0 0
6 -0.007 -47.211 5.93 0 0 0
7 -0.007 8.45016 2.68682 0 0 0
8 0 -47.2058 0 0 0 0
9 0 -4.3996 -3.75516 0 0 0
time 218
0 -0.006520736 44.78805 0 0 3.869397 0
1 0.00652074 47.2058 0 0 0 0
2 0 -47.2058 0 0 0 0
3 0 0.929421 0 0 0 0
4 0 0 0 0 0 0
5 0.007 0.00524667 -0.02 0 0 0
6 -0.007 -47.211 5.93 0 0 0
7 -0.007 8.45016 2.68682 0 0 0
8 0 -47.2058 0 0 0 0
9 0 -4.3996 -3.75516 0 0 0
time 219
0 -0.006520736 44.78805 0 0 3.887147 0
1 0.00652074 47.2058 0 0 0 0
2 0 -47.2058 0 0 0 0
3 0 0.929421 0 0 0 0
4 0 0 0 0 0 0
5 0.007 0.00524667 -0.02 0 0 0
6 -0.007 -47.211 5.93 0 0 0
7 -0.007 8.45016 2.68682 0 0 0
8 0 -47.2058 0 0 0 0
9 0 -4.3996 -3.75516 0 0 0
time 220
0 -0.006520736 44.78805 0 0 3.904897 0
1 0.00652074 47.2058 0 0 0 0
2 0 -47.2058 0 0 0 0
3 0 0.929421 0 0 0 0
4 0 0 0 0 0 0
5 0.007 0.00524667 -0.02 0 0 0
6 -0.007 -47.211 5.93 0 0 0
7 -0.007 8.45016 2.68682 0 0 0
8 0 -47.2058 0 0 0 0
9 0 -4.3996 -3.75516 0 0 0
time 221
0 -0.006520736 44.78805 0 0 3.922647 0
1 0.00652074 47.2058 0 0 0 0
2 0 -47.2058 0 0 0 0
3 0 0.929421 0 0 0 0
4 0 0 0 0 0 0
5 0.007 0.00524667 -0.02 0 0 0
6 -0.007 -47.211 5.93 0 0 0
7 -0.007 8.45016 2.68682 0 0 0
8 0 -47.2058 0 0 0 0
9 0 -4.3996 -3.75516 0 0 0
time 222
0 -0.006520736 44.78805 0 0 3.940397 0
1 0.00652074 47.2058 0 0 0 0
2 0 -47.2058 0 0 0 0
3 0 0.929421 0 0 0 0
4 0 0 0 0 0 0
5 0.007 0.00524667 -0.02 0 0 0
6 -0.007 -47.211 5.93 0 0 0
7 -0.007 8.45016 2.68682 0 0 0
8 0 -47.2058 0 0 0 0
9 0 -4.3996 -3.75516 0 0 0
time 223
0 -0.006520736 44.78805 0 0 3.958147 0
1 0.00652074 47.2058 0 0 0 0
2 0 -47.2058 0 0 0 0
3 0 0.929421 0 0 0 0
4 0 0 0 0 0 0
5 0.007 0.00524667 -0.02 0 0 0
6 -0.007 -47.211 5.93 0 0 0
7 -0.007 8.45016 2.68682 0 0 0
8 0 -47.2058 0 0 0 0
9 0 -4.3996 -3.75516 0 0 0
time 224
0 -0.006520736 44.78805 0 0 3.975897 0
1 0.00652074 47.2058 0 0 0 0
2 0 -47.2058 0 0 0 0
3 0 0.929421 0 0 0 0
4 0 0 0 0 0 0
5 0.007 0.00524667 -0.02 0 0 0
6 -0.007 -47.211 5.93 0 0 0
7 -0.007 8.45016 2.68682 0 0 0
8 0 -47.2058 0 0 0 0
9 0 -4.3996 -3.75516 0 0 0
time 225
0 -0.006520736 44.78805 0 0 3.993647 0
1 0.00652074 47.2058 0 0 0 0
2 0 -47.2058 0 0 0 0
3 0 0.929421 0 0 0 0
4 0 0 0 0 0 0
5 0.007 0.00524667 -0.02 0 0 0
6 -0.007 -47.211 5.93 0 0 0
7 -0.007 8.45016 2.68682 0 0 0
8 0 -47.2058 0 0 0 0
9 0 -4.3996 -3.75516 0 0 0
time 226
0 -0.006520736 44.78805 0 0 4.011396 0
1 0.00652074 47.2058 0 0 0 0
2 0 -47.2058 0 0 0 0
3 0 0.929421 0 0 0 0
4 0 0 0 0 0 0
5 0.007 0.00524667 -0.02 0 0 0
6 -0.007 -47.211 5.93 0 0 0
7 -0.007 8.45016 2.68682 0 0 0
8 0 -47.2058 0 0 0 0
9 0 -4.3996 -3.75516 0 0 0
time 227
0 -0.006520736 44.78805 0 0 4.029146 0
1 0.00652074 47.2058 0 0 0 0
2 0 -47.2058 0 0 0 0
3 0 0.929421 0 0 0 0
4 0 0 0 0 0 0
5 0.007 0.00524667 -0.02 0 0 0
6 -0.007 -47.211 5.93 0 0 0
7 -0.007 8.45016 2.68682 0 0 0
8 0 -47.2058 0 0 0 0
9 0 -4.3996 -3.75516 0 0 0
time 228
0 -0.006520736 44.78805 0 0 4.046896 0
1 0.00652074 47.2058 0 0 0 0
2 0 -47.2058 0 0 0 0
3 0 0.929421 0 0 0 0
4 0 0 0 0 0 0
5 0.007 0.00524667 -0.02 0 0 0
6 -0.007 -47.211 5.93 0 0 0
7 -0.007 8.45016 2.68682 0 0 0
8 0 -47.2058 0 0 0 0
9 0 -4.3996 -3.75516 0 0 0
time 229
0 -0.006520736 44.78805 0 0 4.064646 0
1 0.00652074 47.2058 0 0 0 0
2 0 -47.2058 0 0 0 0
3 0 0.929421 0 0 0 0
4 0 0 0 0 0 0
5 0.007 0.00524667 -0.02 0 0 0
6 -0.007 -47.211 5.93 0 0 0
7 -0.007 8.45016 2.68682 0 0 0
8 0 -47.2058 0 0 0 0
9 0 -4.3996 -3.75516 0 0 0
time 230
0 -0.006520736 44.78805 0 0 4.082396 0
1 0.00652074 47.2058 0 0 0 0
2 0 -47.2058 0 0 0 0
3 0 0.929421 0 0 0 0
4 0 0 0 0 0 0
5 0.007 0.00524667 -0.02 0 0 0
6 -0.007 -47.211 5.93 0 0 0
7 -0.007 8.45016 2.68682 0 0 0
8 0 -47.2058 0 0 0 0
9 0 -4.3996 -3.75516 0 0 0
time 231
0 -0.006520736 44.78805 0 0 4.100145 0
1 0.00652074 47.2058 0 0 0 0
2 0 -47.2058 0 0 0 0
3 0 0.929421 0 0 0 0
4 0 0 0 0 0 0
5 0.007 0.00524667 -0.02 0 0 0
6 -0.007 -47.211 5.93 0 0 0
7 -0.007 8.45016 2.68682 0 0 0
8 0 -47.2058 0 0 0 0
9 0 -4.3996 -3.75516 0 0 0
time 232
0 -0.006520736 44.78805 0 0 4.117895 0
1 0.00652074 47.2058 0 0 0 0
2 0 -47.2058 0 0 0 0
3 0 0.929421 0 0 0 0
4 0 0 0 0 0 0
5 0.007 0.00524667 -0.02 0 0 0
6 -0.007 -47.211 5.93 0 0 0
7 -0.007 8.45016 2.68682 0 0 0
8 0 -47.2058 0 0 0 0
9 0 -4.3996 -3.75516 0 0 0
time 233
0 -0.006520736 44.78805 0 0 4.135645 0
1 0.00652074 47.2058 0 0 0 0
2 0 -47.2058 0 0 0 0
3 0 0.929421 0 0 0 0
4 0 0 0 0 0 0
5 0.007 0.00524667 -0.02 0 0 0
6 -0.007 -47.211 5.93 0 0 0
7 -0.007 8.45016 2.68682 0 0 0
8 0 -47.2058 0 0 0 0
9 0 -4.3996 -3.75516 0 0 0
time 234
0 -0.006520736 44.78805 0 0 4.153394 0
1 0.00652074 47.2058 0 0 0 0
2 0 -47.2058 0 0 0 0
3 0 0.929421 0 0 0 0
4 0 0 0 0 0 0
5 0.007 0.00524667 -0.02 0 0 0
6 -0.007 -47.211 5.93 0 0 0
7 -0.007 8.45016 2.68682 0 0 0
8 0 -47.2058 0 0 0 0
9 0 -4.3996 -3.75516 0 0 0
time 235
0 -0.006520736 44.78805 0 0 4.171144 0
1 0.00652074 47.2058 0 0 0 0
2 0 -47.2058 0 0 0 0
3 0 0.929421 0 0 0 0
4 0 0 0 0 0 0
5 0.007 0.00524667 -0.02 0 0 0
6 -0.007 -47.211 5.93 0 0 0
7 -0.007 8.45016 2.68682 0 0 0
8 0 -47.2058 0 0 0 0
9 0 -4.3996 -3.75516 0 0 0
time 236
0 -0.006520736 44.78805 0 0 4.188894 0
1 0.00652074 47.2058 0 0 0 0
2 0 -47.2058 0 0 0 0
3 0 0.929421 0 0 0 0
4 0 0 0 0 0 0
5 0.007 0.00524667 -0.02 0 0 0
6 -0.007 -47.211 5.93 0 0 0
7 -0.007 8.45016 2.68682 0 0 0
8 0 -47.2058 0 0 0 0
9 0 -4.3996 -3.75516 0 0 0
time 237
0 -0.006520736 44.78805 0 0 4.206644 0
1 0.00652074 47.2058 0 0 0 0
2 0 -47.2058 0 0 0 0
3 0 0.929421 0 0 0 0
4 0 0 0 0 0 0
5 0.007 0.00524667 -0.02 0 0 0
6 -0.007 -47.211 5.93 0 0 0
7 -0.007 8.45016 2.68682 0 0 0
8 0 -47.2058 0 0 0 0
9 0 -4.3996 -3.75516 0 0 0
time 238
0 -0.006520736 44.78805 0 0 4.224393 0
1 0.00652074 47.2058 0 0 0 0
2 0 -47.2058 0 0 0 0
3 0 0.929421 0 0 0 0
4 0 0 0 0 0 0
5 0.007 0.00524667 -0.02 0 0 0
6 -0.007 -47.211 5.93 0 0 0
7 -0.007 8.45016 2.68682 0 0 0
8 0 -47.2058 0 0 0 0
9 0 -4.3996 -3.75516 0 0 0
time 239
0 -0.006520736 44.78805 0 0 4.242143 0
1 0.00652074 47.2058 0 0 0 0
2 0 -47.2058 0 0 0 0
3 0 0.929421 0 0 0 0
4 0 0 0 0 0 0
5 0.007 0.00524667 -0.02 0 0 0
6 -0.007 -47.211 5.93 0 0 0
7 -0.007 8.45016 2.68682 0 0 0
8 0 -47.2058 0 0 0 0
9 0 -4.3996 -3.75516 0 0 0
time 240
0 -0.006520736 44.78805 0 0 4.259893 0
1 0.00652074 47.2058 0 0 0 0
2 0 -47.2058 0 0 0 0
3 0 0.929421 0 0 0 0
4 0 0 0 0 0 0
5 0.007 0.00524667 -0.02 0 0 0
6 -0.007 -47.211 5.93 0 0 0
7 -0.007 8.45016 2.68682 0 0 0
8 0 -47.2058 0 0 0 0
9 0 -4.3996 -3.75516 0 0 0
time 241
0 -0.006520736 44.78805 0 0 4.277642 0
1 0.00652074 47.2058 0 0 0 0
2 0 -47.2058 0 0 0 0
3 0 0.929421 0 0 0 0
4 0 0 0 0 0 0
5 0.007 0.00524667 -0.02 0 0 0
6 -0.007 -47.211 5.93 0 0 0
7 -0.007 8.45016 2.68682 0 0 0
8 0 -47.2058 0 0 0 0
9 0 -4.3996 -3.75516 0 0 0
time 242
0 -0.006520736 44.78805 0 0 4.295392 0
1 0.00652074 47.2058 0 0 0 0
2 0 -47.2058 0 0 0 0
3 0 0.929421 0 0 0 0
4 0 0 0 0 0 0
5 0.007 0.00524667 -0.02 0 0 0
6 -0.007 -47.211 5.93 0 0 0
7 -0.007 8.45016 2.68682 0 0 0
8 0 -47.2058 0 0 0 0
9 0 -4.3996 -3.75516 0 0 0
time 243
0 -0.006520736 44.78805 0 0 4.313142 0
1 0.00652074 47.2058 0 0 0 0
2 0 -47.2058 0 0 0 0
3 0 0.929421 0 0 0 0
4 0 0 0 0 0 0
5 0.007 0.00524667 -0.02 0 0 0
6 -0.007 -47.211 5.93 0 0 0
7 -0.007 8.45016 2.68682 0 0 0
8 0 -47.2058 0 0 0 0
9 0 -4.3996 -3.75516 0 0 0
time 244
0 -0.006520736 44.78805 0 0 4.330891 0
1 0.00652074 47.2058 0 0 0 0
2 0 -47.2058 0 0 0 0
3 0 0.929421 0 0 0 0
4 0 0 0 0 0 0
5 0.007 0.00524667 -0.02 0 0 0
6 -0.007 -47.211 5.93 0 0 0
7 -0.007 8.45016 2.68682 0 0 0
8 0 -47.2058 0 0 0 0
9 0 -4.3996 -3.75516 0 0 0
time 245
0 -0.006520736 44.78805 0 0 4.348641 0
1 0.00652074 47.2058 0 0 0 0
2 0 -47.2058 0 0 0 0
3 0 0.929421 0 0 0 0
4 0 0 0 0 0 0
5 0.007 0.00524667 -0.02 0 0 0
6 -0.007 -47.211 5.93 0 0 0
7 -0.007 8.45016 2.68682 0 0 0
8 0 -47.2058 0 0 0 0
9 0 -4.3996 -3.75516 0 0 0
time 246
0 -0.006520736 44.78805 0 0 4.36639 0
1 0.00652074 47.2058 0 0 0 0
2 0 -47.2058 0 0 0 0
3 0 0.929421 0 0 0 0
4 0 0 0 0 0 0
5 0.007 0.00524667 -0.02 0 0 0
6 -0.007 -47.211 5.93 0 0 0
7 -0.007 8.45016 2.68682 0 0 0
8 0 -47.2058 0 0 0 0
9 0 -4.3996 -3.75516 0 0 0
time 247
0 -0.006520736 44.78805 0 0 4.384139 0
1 0.00652074 47.2058 0 0 0 0
2 0 -47.2058 0 0 0 0
3 0 0.929421 0 0 0 0
4 0 0 0 0 0 0
5 0.007 0.00524667 -0.02 0 0 0
6 -0.007 -47.211 5.93 0 0 0
7 -0.007 8.45016 2.68682 0 0 0
8 0 -47.2058 0 0 0 0
9 0 -4.3996 -3.75516 0 0 0
time 248
0 -0.006520736 44.78805 0 0 4.401889 0
1 0.00652074 47.2058 0 0 0 0
2 0 -47.2058 0 0 0 0
3 0 0.929421 0 0 0 0
4 0 0 0 0 0 0
5 0.007 0.00524667 -0.02 0 0 0
6 -0.007 -47.211 5.93 0 0 0
7 -0.007 8.45016 2.68682 0 0 0
8 0 -47.2058 0 0 0 0
9 0 -4.3996 -3.75516 0 0 0
time 249
0 -0.006520736 44.78805 0 0 4.419639 0
1 0.00652074 47.2058 0 0 0 0
2 0 -47.2058 0 0 0 0
3 0 0.929421 0 0 0 0
4 0 0 0 0 0 0
5 0.007 0.00524667 -0.02 0 0 0
6 -0.007 -47.211 5.93 0 0 0
7 -0.007 8.45016 2.68682 0 0 0
8 0 -47.2058 0 0 0 0
9 0 -4.3996 -3.75516 0 0 0
time 250
0 -0.006520736 44.78805 0 0 4.437388 0
1 0.00652074 47.2058 0 0 0 0
2 0 -47.2058 0 0 0 0
3 0 0.929421 0 0 0 0
4 0 0 0 0 0 0
5 0.007 0.00524667 -0.02 0 0 0
6 -0.007 -47.211 5.93 0 0 0
7 -0.007 8.45016 2.68682 0 0 0
8 0 -47.2058 0 0 0 0
9 0 -4.3996 -3.75516 0 0 0
time 251
0 -0.006520736 44.78805 0 0 4.455138 0
1 0.00652074 47.2058 0 0 0 0
2 0 -47.2058 0 0 0 0
3 0 0.929421 0 0 0 0
4 0 0 0 0 0 0
5 0.007 0.00524667 -0.02 0 0 0
6 -0.007 -47.211 5.93 0 0 0
7 -0.007 8.45016 2.68682 0 0 0
8 0 -47.2058 0 0 0 0
9 0 -4.3996 -3.75516 0 0 0
time 252
0 -0.006520736 44.78805 0 0 4.472887 0
1 0.00652074 47.2058 0 0 0 0
2 0 -47.2058 0 0 0 0
3 0 0.929421 0 0 0 0
4 0 0 0 0 0 0
5 0.007 0.00524667 -0.02 0 0 0
6 -0.007 -47.211 5.93 0 0 0
7 -0.007 8.45016 2.68682 0 0 0
8 0 -47.2058 0 0 0 0
9 0 -4.3996 -3.75516 0 0 0
time 253
0 -0.006520736 44.78805 0 0 4.490636 0
1 0.00652074 47.2058 0 0 0 0
2 0 -47.2058 0 0 0 0
3 0 0.929421 0 0 0 0
4 0 0 0 0 0 0
5 0.007 0.00524667 -0.02 0 0 0
6 -0.007 -47.211 5.93 0 0 0
7 -0.007 8.45016 2.68682 0 0 0
8 0 -47.2058 0 0 0 0
9 0 -4.3996 -3.75516 0 0 0
time 254
0 -0.006520736 44.78805 0 0 4.508386 0
1 0.00652074 47.2058 0 0 0 0
2 0 -47.2058 0 0 0 0
3 0 0.929421 0 0 0 0
4 0 0 0 0 0 0
5 0.007 0.00524667 -0.02 0 0 0
6 -0.007 -47.211 5.93 0 0 0
7 -0.007 8.45016 2.68682 0 0 0
8 0 -47.2058 0 0 0 0
9 0 -4.3996 -3.75516 0 0 0
time 255
0 -0.006520736 44.78805 0 0 4.526135 0
1 0.00652074 47.2058 0 0 0 0
2 0 -47.2058 0 0 0 0
3 0 0.929421 0 0 0 0
4 0 0 0 0 0 0
5 0.007 0.00524667 -0.02 0 0 0
6 -0.007 -47.211 5.93 0 0 0
7 -0.007 8.45016 2.68682 0 0 0
8 0 -47.2058 0 0 0 0
9 0 -4.3996 -3.75516 0 0 0
time 256
0 -0.006520736 44.78805 0 0 4.543885 0
1 0.00652074 47.2058 0 0 0 0
2 0 -47.2058 0 0 0 0
3 0 0.929421 0 0 0 0
4 0 0 0 0 0 0
5 0.007 0.00524667 -0.02 0 0 0
6 -0.007 -47.211 5.93 0 0 0
7 -0.007 8.45016 2.68682 0 0 0
8 0 -47.2058 0 0 0 0
9 0 -4.3996 -3.75516 0 0 0
time 257
0 -0.006520736 44.78805 0 0 4.561634 0
1 0.00652074 47.2058 0 0 0 0
2 0 -47.2058 0 0 0 0
3 0 0.929421 0 0 0 0
4 0 0 0 0 0 0
5 0.007 0.00524667 -0.02 0 0 0
6 -0.007 -47.211 5.93 0 0 0
7 -0.007 8.45016 2.68682 0 0 0
8 0 -47.2058 0 0 0 0
9 0 -4.3996 -3.75516 0 0 0
time 258
0 -0.006520736 44.78805 0 0 4.579383 0
1 0.00652074 47.2058 0 0 0 0
2 0 -47.2058 0 0 0 0
3 0 0.929421 0 0 0 0
4 0 0 0 0 0 0
5 0.007 0.00524667 -0.02 0 0 0
6 -0.007 -47.211 5.93 0 0 0
7 -0.007 8.45016 2.68682 0 0 0
8 0 -47.2058 0 0 0 0
9 0 -4.3996 -3.75516 0 0 0
time 259
0 -0.006520736 44.78805 0 0 4.597133 0
1 0.00652074 47.2058 0 0 0 0
2 0 -47.2058 0 0 0 0
3 0 0.929421 0 0 0 0
4 0 0 0 0 0 0
5 0.007 0.00524667 -0.02 0 0 0
6 -0.007 -47.211 5.93 0 0 0
7 -0.007 8.45016 2.68682 0 0 0
8 0 -47.2058 0 0 0 0
9 0 -4.3996 -3.75516 0 0 0
time 260
0 -0.006520736 44.78805 0 0 4.614882 0
1 0.00652074 47.2058 0 0 0 0
2 0 -47.2058 0 0 0 0
3 0 0.929421 0 0 0 0
4 0 0 0 0 0 0
5 0.007 0.00524667 -0.02 0 0 0
6 -0.007 -47.211 5.93 0 0 0
7 -0.007 8.45016 2.68682 0 0 0
8 0 -47.2058 0 0 0 0
9 0 -4.3996 -3.75516 0 0 0
time 261
0 -0.006520736 44.78805 0 0 4.632631 0
1 0.00652074 47.2058 0 0 0 0
2 0 -47.2058 0 0 0 0
3 0 0.929421 0 0 0 0
4 0 0 0 0 0 0
5 0.007 0.00524667 -0.02 0 0 0
6 -0.007 -47.211 5.93 0 0 0
7 -0.007 8.45016 2.68682 0 0 0
8 0 -47.2058 0 0 0 0
9 0 -4.3996 -3.75516 0 0 0
time 262
0 -0.006520736 44.78805 0 0 4.65038 0
1 0.00652074 47.2058 0 0 0 0
2 0 -47.2058 0 0 0 0
3 0 0.929421 0 0 0 0
4 0 0 0 0 0 0
5 0.007 0.00524667 -0.02 0 0 0
6 -0.007 -47.211 5.93 0 0 0
7 -0.007 8.45016 2.68682 0 0 0
8 0 -47.2058 0 0 0 0
9 0 -4.3996 -3.75516 0 0 0
time 263
0 -0.006520736 44.78805 0 0 4.668129 0
1 0.00652074 47.2058 0 0 0 0
2 0 -47.2058 0 0 0 0
3 0 0.929421 0 0 0 0
4 0 0 0 0 0 0
5 0.007 0.00524667 -0.02 0 0 0
6 -0.007 -47.211 5.93 0 0 0
7 -0.007 8.45016 2.68682 0 0 0
8 0 -47.2058 0 0 0 0
9 0 -4.3996 -3.75516 0 0 0
time 264
0 -0.006520736 44.78805 0 0 4.685878 0
1 0.00652074 47.2058 0 0 0 0
2 0 -47.2058 0 0 0 0
3 0 0.929421 0 0 0 0
4 0 0 0 0 0 0
5 0.007 0.00524667 -0.02 0 0 0
6 -0.007 -47.211 5.93 0 0 0
7 -0.007 8.45016 2.68682 0 0 0
8 0 -47.2058 0 0 0 0
9 0 -4.3996 -3.75516 0 0 0
time 265
0 -0.006520736 44.78805 0 0 4.703628 0
1 0.00652074 47.2058 0 0 0 0
2 0 -47.2058 0 0 0 0
3 0 0.929421 0 0 0 0
4 0 0 0 0 0 0
5 0.007 0.00524667 -0.02 0 0 0
6 -0.007 -47.211 5.93 0 0 0
7 -0.007 8.45016 2.68682 0 0 0
8 0 -47.2058 0 0 0 0
9 0 -4.3996 -3.75516 0 0 0
time 266
0 -0.006520736 44.78805 0 0 4.721376 0
1 0.00652074 47.2058 0 0 0 0
2 0 -47.2058 0 0 0 0
3 0 0.929421 0 0 0 0
4 0 0 0 0 0 0
5 0.007 0.00524667 -0.02 0 0 0
6 -0.007 -47.211 5.93 0 0 0
7 -0.007 8.45016 2.68682 0 0 0
8 0 -47.2058 0 0 0 0
9 0 -4.3996 -3.75516 0 0 0
time 267
0 -0.006520736 44.78805 0 0 4.739126 0
1 0.00652074 47.2058 0 0 0 0
2 0 -47.2058 0 0 0 0
3 0 0.929421 0 0 0 0
4 0 0 0 0 0 0
5 0.007 0.00524667 -0.02 0 0 0
6 -0.007 -47.211 5.93 0 0 0
7 -0.007 8.45016 2.68682 0 0 0
8 0 -47.2058 0 0 0 0
9 0 -4.3996 -3.75516 0 0 0
time 268
0 -0.006520736 44.78805 0 0 4.756875 0
1 0.00652074 47.2058 0 0 0 0
2 0 -47.2058 0 0 0 0
3 0 0.929421 0 0 0 0
4 0 0 0 0 0 0
5 0.007 0.00524667 -0.02 0 0 0
6 -0.007 -47.211 5.93 0 0 0
7 -0.007 8.45016 2.68682 0 0 0
8 0 -47.2058 0 0 0 0
9 0 -4.3996 -3.75516 0 0 0
time 269
0 -0.006520736 44.78805 0 0 4.774624 0
1 0.00652074 47.2058 0 0 0 0
2 0 -47.2058 0 0 0 0
3 0 0.929421 0 0 0 0
4 0 0 0 0 0 0
5 0.007 0.00524667 -0.02 0 0 0
6 -0.007 -47.211 5.93 0 0 0
7 -0.007 8.45016 2.68682 0 0 0
8 0 -47.2058 0 0 0 0
9 0 -4.3996 -3.75516 0 0 0
time 270
0 -0.006520736 44.78805 0 0 4.792373 0
1 0.00652074 47.2058 0 0 0 0
2 0 -47.2058 0 0 0 0
3 0 0.929421 0 0 0 0
4 0 0 0 0 0 0
5 0.007 0.00524667 -0.02 0 0 0
6 -0.007 -47.211 5.93 0 0 0
7 -0.007 8.45016 2.68682 0 0 0
8 0 -47.2058 0 0 0 0
9 0 -4.3996 -3.75516 0 0 0
time 271
0 -0.006520736 44.78805 0 0 4.810122 0
1 0.00652074 47.2058 0 0 0 0
2 0 -47.2058 0 0 0 0
3 0 0.929421 0 0 0 0
4 0 0 0 0 0 0
5 0.007 0.00524667 -0.02 0 0 0
6 -0.007 -47.211 5.93 0 0 0
7 -0.007 8.45016 2.68682 0 0 0
8 0 -47.2058 0 0 0 0
9 0 -4.3996 -3.75516 0 0 0
time 272
0 -0.006520736 44.78805 0 0 4.827871 0
1 0.00652074 47.2058 0 0 0 0
2 0 -47.2058 0 0 0 0
3 0 0.929421 0 0 0 0
4 0 0 0 0 0 0
5 0.007 0.00524667 -0.02 0 0 0
6 -0.007 -47.211 5.93 0 0 0
7 -0.007 8.45016 2.68682 0 0 0
8 0 -47.2058 0 0 0 0
9 0 -4.3996 -3.75516 0 0 0
time 273
0 -0.006520736 44.78805 0 0 4.84562 0
1 0.00652074 47.2058 0 0 0 0
2 0 -47.2058 0 0 0 0
3 0 0.929421 0 0 0 0
4 0 0 0 0 0 0
5 0.007 0.00524667 -0.02 0 0 0
6 -0.007 -47.211 5.93 0 0 0
7 -0.007 8.45016 2.68682 0 0 0
8 0 -47.2058 0 0 0 0
9 0 -4.3996 -3.75516 0 0 0
time 274
0 -0.006520736 44.78805 0 0 4.863369 0
1 0.00652074 47.2058 0 0 0 0
2 0 -47.2058 0 0 0 0
3 0 0.929421 0 0 0 0
4 0 0 0 0 0 0
5 0.007 0.00524667 -0.02 0 0 0
6 -0.007 -47.211 5.93 0 0 0
7 -0.007 8.45016 2.68682 0 0 0
8 0 -47.2058 0 0 0 0
9 0 -4.3996 -3.75516 0 0 0
time 275
0 -0.006520736 44.78805 0 0 4.881118 0
1 0.00652074 47.2058 0 0 0 0
2 0 -47.2058 0 0 0 0
3 0 0.929421 0 0 0 0
4 0 0 0 0 0 0
5 0.007 0.00524667 -0.02 0 0 0
6 -0.007 -47.211 5.93 0 0 0
7 -0.007 8.45016 2.68682 0 0 0
8 0 -47.2058 0 0 0 0
9 0 -4.3996 -3.75516 0 0 0
time 276
0 -0.006520736 44.78805 0 0 4.898866 0
1 0.00652074 47.2058 0 0 0 0
2 0 -47.2058 0 0 0 0
3 0 0.929421 0 0 0 0
4 0 0 0 0 0 0
5 0.007 0.00524667 -0.02 0 0 0
6 -0.007 -47.211 5.93 0 0 0
7 -0.007 8.45016 2.68682 0 0 0
8 0 -47.2058 0 0 0 0
9 0 -4.3996 -3.75516 0 0 0
time 277
0 -0.006520736 44.78805 0 0 4.916615 0
1 0.00652074 47.2058 0 0 0 0
2 0 -47.2058 0 0 0 0
3 0 0.929421 0 0 0 0
4 0 0 0 0 0 0
5 0.007 0.00524667 -0.02 0 0 0
6 -0.007 -47.211 5.93 0 0 0
7 -0.007 8.45016 2.68682 0 0 0
8 0 -47.2058 0 0 0 0
9 0 -4.3996 -3.75516 0 0 0
time 278
0 -0.006520736 44.78805 0 0 4.934364 0
1 0.00652074 47.2058 0 0 0 0
2 0 -47.2058 0 0 0 0
3 0 0.929421 0 0 0 0
4 0 0 0 0 0 0
5 0.007 0.00524667 -0.02 0 0 0
6 -0.007 -47.211 5.93 0 0 0
7 -0.007 8.45016 2.68682 0 0 0
8 0 -47.2058 0 0 0 0
9 0 -4.3996 -3.75516 0 0 0
time 279
0 -0.006520736 44.78805 0 0 4.952113 0
1 0.00652074 47.2058 0 0 0 0
2 0 -47.2058 0 0 0 0
3 0 0.929421 0 0 0 0
4 0 0 0 0 0 0
5 0.007 0.00524667 -0.02 0 0 0
6 -0.007 -47.211 5.93 0 0 0
7 -0.007 8.45016 2.68682 0 0 0
8 0 -47.2058 0 0 0 0
9 0 -4.3996 -3.75516 0 0 0
time 280
0 -0.006520736 44.78805 0 0 4.969862 0
1 0.00652074 47.2058 0 0 0 0
2 0 -47.2058 0 0 0 0
3 0 0.929421 0 0 0 0
4 0 0 0 0 0 0
5 0.007 0.00524667 -0.02 0 0 0
6 -0.007 -47.211 5.93 0 0 0
7 -0.007 8.45016 2.68682 0 0 0
8 0 -47.2058 0 0 0 0
9 0 -4.3996 -3.75516 0 0 0
time 281
0 -0.006520736 44.78805 0 0 4.98761 0
1 0.00652074 47.2058 0 0 0 0
2 0 -47.2058 0 0 0 0
3 0 0.929421 0 0 0 0
4 0 0 0 0 0 0
5 0.007 0.00524667 -0.02 0 0 0
6 -0.007 -47.211 5.93 0 0 0
7 -0.007 8.45016 2.68682 0 0 0
8 0 -47.2058 0 0 0 0
9 0 -4.3996 -3.75516 0 0 0
time 282
0 -0.006520736 44.78805 0 0 5.005359 0
1 0.00652074 47.2058 0 0 0 0
2 0 -47.2058 0 0 0 0
3 0 0.929421 0 0 0 0
4 0 0 0 0 0 0
5 0.007 0.00524667 -0.02 0 0 0
6 -0.007 -47.211 5.93 0 0 0
7 -0.007 8.45016 2.68682 0 0 0
8 0 -47.2058 0 0 0 0
9 0 -4.3996 -3.75516 0 0 0
time 283
0 -0.006520736 44.78805 0 0 5.023107 0
1 0.00652074 47.2058 0 0 0 0
2 0 -47.2058 0 0 0 0
3 0 0.929421 0 0 0 0
4 0 0 0 0 0 0
5 0.007 0.00524667 -0.02 0 0 0
6 -0.007 -47.211 5.93 0 0 0
7 -0.007 8.45016 2.68682 0 0 0
8 0 -47.2058 0 0 0 0
9 0 -4.3996 -3.75516 0 0 0
time 284
0 -0.006520736 44.78805 0 0 5.040856 0
1 0.00652074 47.2058 0 0 0 0
2 0 -47.2058 0 0 0 0
3 0 0.929421 0 0 0 0
4 0 0 0 0 0 0
5 0.007 0.00524667 -0.02 0 0 0
6 -0.007 -47.211 5.93 0 0 0
7 -0.007 8.45016 2.68682 0 0 0
8 0 -47.2058 0 0 0 0
9 0 -4.3996 -3.75516 0 0 0
time 285
0 -0.006520736 44.78805 0 0 5.058605 0
1 0.00652074 47.2058 0 0 0 0
2 0 -47.2058 0 0 0 0
3 0 0.929421 0 0 0 0
4 0 0 0 0 0 0
5 0.007 0.00524667 -0.02 0 0 0
6 -0.007 -47.211 5.93 0 0 0
7 -0.007 8.45016 2.68682 0 0 0
8 0 -47.2058 0 0 0 0
9 0 -4.3996 -3.75516 0 0 0
time 286
0 -0.006520736 44.78805 0 0 5.076354 0
1 0.00652074 47.2058 0 0 0 0
2 0 -47.2058 0 0 0 0
3 0 0.929421 0 0 0 0
4 0 0 0 0 0 0
5 0.007 0.00524667 -0.02 0 0 0
6 -0.007 -47.211 5.93 0 0 0
7 -0.007 8.45016 2.68682 0 0 0
8 0 -47.2058 0 0 0 0
9 0 -4.3996 -3.75516 0 0 0
time 287
0 -0.006520736 44.78805 0 0 5.094102 0
1 0.00652074 47.2058 0 0 0 0
2 0 -47.2058 0 0 0 0
3 0 0.929421 0 0 0 0
4 0 0 0 0 0 0
5 0.007 0.00524667 -0.02 0 0 0
6 -0.007 -47.211 5.93 0 0 0
7 -0.007 8.45016 2.68682 0 0 0
8 0 -47.2058 0 0 0 0
9 0 -4.3996 -3.75516 0 0 0
time 288
0 -0.006520736 44.78805 0 0 5.111851 0
1 0.00652074 47.2058 0 0 0 0
2 0 -47.2058 0 0 0 0
3 0 0.929421 0 0 0 0
4 0 0 0 0 0 0
5 0.007 0.00524667 -0.02 0 0 0
6 -0.007 -47.211 5.93 0 0 0
7 -0.007 8.45016 2.68682 0 0 0
8 0 -47.2058 0 0 0 0
9 0 -4.3996 -3.75516 0 0 0
time 289
0 -0.006520736 44.78805 0 0 5.129599 0
1 0.00652074 47.2058 0 0 0 0
2 0 -47.2058 0 0 0 0
3 0 0.929421 0 0 0 0
4 0 0 0 0 0 0
5 0.007 0.00524667 -0.02 0 0 0
6 -0.007 -47.211 5.93 0 0 0
7 -0.007 8.45016 2.68682 0 0 0
8 0 -47.2058 0 0 0 0
9 0 -4.3996 -3.75516 0 0 0
time 290
0 -0.006520736 44.78805 0 0 5.147348 0
1 0.00652074 47.2058 0 0 0 0
2 0 -47.2058 0 0 0 0
3 0 0.929421 0 0 0 0
4 0 0 0 0 0 0
5 0.007 0.00524667 -0.02 0 0 0
6 -0.007 -47.211 5.93 0 0 0
7 -0.007 8.45016 2.68682 0 0 0
8 0 -47.2058 0 0 0 0
9 0 -4.3996 -3.75516 0 0 0
time 291
0 -0.006520736 44.78805 0 0 5.165096 0
1 0.00652074 47.2058 0 0 0 0
2 0 -47.2058 0 0 0 0
3 0 0.929421 0 0 0 0
4 0 0 0 0 0 0
5 0.007 0.00524667 -0.02 0 0 0
6 -0.007 -47.211 5.93 0 0 0
7 -0.007 8.45016 2.68682 0 0 0
8 0 -47.2058 0 0 0 0
9 0 -4.3996 -3.75516 0 0 0
time 292
0 -0.006520736 44.78805 0 0 5.182845 0
1 0.00652074 47.2058 0 0 0 0
2 0 -47.2058 0 0 0 0
3 0 0.929421 0 0 0 0
4 0 0 0 0 0 0
5 0.007 0.00524667 -0.02 0 0 0
6 -0.007 -47.211 5.93 0 0 0
7 -0.007 8.45016 2.68682 0 0 0
8 0 -47.2058 0 0 0 0
9 0 -4.3996 -3.75516 0 0 0
time 293
0 -0.006520736 44.78805 0 0 5.200593 0
1 0.00652074 47.2058 0 0 0 0
2 0 -47.2058 0 0 0 0
3 0 0.929421 0 0 0 0
4 0 0 0 0 0 0
5 0.007 0.00524667 -0.02 0 0 0
6 -0.007 -47.211 5.93 0 0 0
7 -0.007 8.45016 2.68682 0 0 0
8 0 -47.2058 0 0 0 0
9 0 -4.3996 -3.75516 0 0 0
time 294
0 -0.006520736 44.78805 0 0 5.218342 0
1 0.00652074 47.2058 0 0 0 0
2 0 -47.2058 0 0 0 0
3 0 0.929421 0 0 0 0
4 0 0 0 0 0 0
5 0.007 0.00524667 -0.02 0 0 0
6 -0.007 -47.211 5.93 0 0 0
7 -0.007 8.45016 2.68682 0 0 0
8 0 -47.2058 0 0 0 0
9 0 -4.3996 -3.75516 0 0 0
time 295
0 -0.006520736 44.78805 0 0 5.23609 0
1 0.00652074 47.2058 0 0 0 0
2 0 -47.2058 0 0 0 0
3 0 0.929421 0 0 0 0
4 0 0 0 0 0 0
5 0.007 0.00524667 -0.02 0 0 0
6 -0.007 -47.211 5.93 0 0 0
7 -0.007 8.45016 2.68682 0 0 0
8 0 -47.2058 0 0 0 0
9 0 -4.3996 -3.75516 0 0 0
time 296
0 -0.006520736 44.78805 0 0 5.253839 0
1 0.00652074 47.2058 0 0 0 0
2 0 -47.2058 0 0 0 0
3 0 0.929421 0 0 0 0
4 0 0 0 0 0 0
5 0.007 0.00524667 -0.02 0 0 0
6 -0.007 -47.211 5.93 0 0 0
7 -0.007 8.45016 2.68682 0 0 0
8 0 -47.2058 0 0 0 0
9 0 -4.3996 -3.75516 0 0 0
time 297
0 -0.006520736 44.78805 0 0 5.271587 0
1 0.00652074 47.2058 0 0 0 0
2 0 -47.2058 0 0 0 0
3 0 0.929421 0 0 0 0
4 0 0 0 0 0 0
5 0.007 0.00524667 -0.02 0 0 0
6 -0.007 -47.211 5.93 0 0 0
7 -0.007 8.45016 2.68682 0 0 0
8 0 -47.2058 0 0 0 0
9 0 -4.3996 -3.75516 0 0 0
time 298
0 -0.006520736 44.78805 0 0 5.289335 0
1 0.00652074 47.2058 0 0 0 0
2 0 -47.2058 0 0 0 0
3 0 0.929421 0 0 0 0
4 0 0 0 0 0 0
5 0.007 0.00524667 -0.02 0 0 0
6 -0.007 -47.211 5.93 0 0 0
7 -0.007 8.45016 2.68682 0 0 0
8 0 -47.2058 0 0 0 0
9 0 -4.3996 -3.75516 0 0 0
time 299
0 -0.006520736 44.78805 0 0 5.307083 0
1 0.00652074 47.2058 0 0 0 0
2 0 -47.2058 0 0 0 0
3 0 0.929421 0 0 0 0
4 0 0 0 0 0 0
5 0.007 0.00524667 -0.02 0 0 0
6 -0.007 -47.211 5.93 0 0 0
7 -0.007 8.45016 2.68682 0 0 0
8 0 -47.2058 0 0 0 0
9 0 -4.3996 -3.75516 0 0 0
time 300
0 -0.006520736 44.78805 0 0 5.324831 0
1 0.00652074 47.2058 0 0 0 0
2 0 -47.2058 0 0 0 0
3 0 0.929421 0 0 0 0
4 0 0 0 0 0 0
5 0.007 0.00524667 -0.02 0 0 0
6 -0.007 -47.211 5.93 0 0 0
7 -0.007 8.45016 2.68682 0 0 0
8 0 -47.2058 0 0 0 0
9 0 -4.3996 -3.75516 0 0 0
time 301
0 -0.006520736 44.78805 0 0 5.34258 0
1 0.00652074 47.2058 0 0 0 0
2 0 -47.2058 0 0 0 0
3 0 0.929421 0 0 0 0
4 0 0 0 0 0 0
5 0.007 0.00524667 -0.02 0 0 0
6 -0.007 -47.211 5.93 0 0 0
7 -0.007 8.45016 2.68682 0 0 0
8 0 -47.2058 0 0 0 0
9 0 -4.3996 -3.75516 0 0 0
time 302
0 -0.006520736 44.78805 0 0 5.360327 0
1 0.00652074 47.2058 0 0 0 0
2 0 -47.2058 0 0 0 0
3 0 0.929421 0 0 0 0
4 0 0 0 0 0 0
5 0.007 0.00524667 -0.02 0 0 0
6 -0.007 -47.211 5.93 0 0 0
7 -0.007 8.45016 2.68682 0 0 0
8 0 -47.2058 0 0 0 0
9 0 -4.3996 -3.75516 0 0 0
time 303
0 -0.006520736 44.78805 0 0 5.378075 0
1 0.00652074 47.2058 0 0 0 0
2 0 -47.2058 0 0 0 0
3 0 0.929421 0 0 0 0
4 0 0 0 0 0 0
5 0.007 0.00524667 -0.02 0 0 0
6 -0.007 -47.211 5.93 0 0 0
7 -0.007 8.45016 2.68682 0 0 0
8 0 -47.2058 0 0 0 0
9 0 -4.3996 -3.75516 0 0 0
time 304
0 -0.006520736 44.78805 0 0 5.395823 0
1 0.00652074 47.2058 0 0 0 0
2 0 -47.2058 0 0 0 0
3 0 0.929421 0 0 0 0
4 0 0 0 0 0 0
5 0.007 0.00524667 -0.02 0 0 0
6 -0.007 -47.211 5.93 0 0 0
7 -0.007 8.45016 2.68682 0 0 0
8 0 -47.2058 0 0 0 0
9 0 -4.3996 -3.75516 0 0 0
time 305
0 -0.006520736 44.78805 0 0 5.413572 0
1 0.00652074 47.2058 0 0 0 0
2 0 -47.2058 0 0 0 0
3 0 0.929421 0 0 0 0
4 0 0 0 0 0 0
5 0.007 0.00524667 -0.02 0 0 0
6 -0.007 -47.211 5.93 0 0 0
7 -0.007 8.45016 2.68682 0 0 0
8 0 -47.2058 0 0 0 0
9 0 -4.3996 -3.75516 0 0 0
time 306
0 -0.006520736 44.78805 0 0 5.431319 0
1 0.00652074 47.2058 0 0 0 0
2 0 -47.2058 0 0 0 0
3 0 0.929421 0 0 0 0
4 0 0 0 0 0 0
5 0.007 0.00524667 -0.02 0 0 0
6 -0.007 -47.211 5.93 0 0 0
7 -0.007 8.45016 2.68682 0 0 0
8 0 -47.2058 0 0 0 0
9 0 -4.3996 -3.75516 0 0 0
time 307
0 -0.006520736 44.78805 0 0 5.449068 0
1 0.00652074 47.2058 0 0 0 0
2 0 -47.2058 0 0 0 0
3 0 0.929421 0 0 0 0
4 0 0 0 0 0 0
5 0.007 0.00524667 -0.02 0 0 0
6 -0.007 -47.211 5.93 0 0 0
7 -0.007 8.45016 2.68682 0 0 0
8 0 -47.2058 0 0 0 0
9 0 -4.3996 -3.75516 0 0 0
time 308
0 -0.006520736 44.78805 0 0 5.466815 0
1 0.00652074 47.2058 0 0 0 0
2 0 -47.2058 0 0 0 0
3 0 0.929421 0 0 0 0
4 0 0 0 0 0 0
5 0.007 0.00524667 -0.02 0 0 0
6 -0.007 -47.211 5.93 0 0 0
7 -0.007 8.45016 2.68682 0 0 0
8 0 -47.2058 0 0 0 0
9 0 -4.3996 -3.75516 0 0 0
time 309
0 -0.006520736 44.78805 0 0 5.484564 0
1 0.00652074 47.2058 0 0 0 0
2 0 -47.2058 0 0 0 0
3 0 0.929421 0 0 0 0
4 0 0 0 0 0 0
5 0.007 0.00524667 -0.02 0 0 0
6 -0.007 -47.211 5.93 0 0 0
7 -0.007 8.45016 2.68682 0 0 0
8 0 -47.2058 0 0 0 0
9 0 -4.3996 -3.75516 0 0 0
time 310
0 -0.006520736 44.78805 0 0 5.502312 0
1 0.00652074 47.2058 0 0 0 0
2 0 -47.2058 0 0 0 0
3 0 0.929421 0 0 0 0
4 0 0 0 0 0 0
5 0.007 0.00524667 -0.02 0 0 0
6 -0.007 -47.211 5.93 0 0 0
7 -0.007 8.45016 2.68682 0 0 0
8 0 -47.2058 0 0 0 0
9 0 -4.3996 -3.75516 0 0 0
time 311
0 -0.006520736 44.78805 0 0 5.520059 0
1 0.00652074 47.2058 0 0 0 0
2 0 -47.2058 0 0 0 0
3 0 0.929421 0 0 0 0
4 0 0 0 0 0 0
5 0.007 0.00524667 -0.02 0 0 0
6 -0.007 -47.211 5.93 0 0 0
7 -0.007 8.45016 2.68682 0 0 0
8 0 -47.2058 0 0 0 0
9 0 -4.3996 -3.75516 0 0 0
time 312
0 -0.006520736 44.78805 0 0 5.537807 0
1 0.00652074 47.2058 0 0 0 0
2 0 -47.2058 0 0 0 0
3 0 0.929421 0 0 0 0
4 0 0 0 0 0 0
5 0.007 0.00524667 -0.02 0 0 0
6 -0.007 -47.211 5.93 0 0 0
7 -0.007 8.45016 2.68682 0 0 0
8 0 -47.2058 0 0 0 0
9 0 -4.3996 -3.75516 0 0 0
time 313
0 -0.006520736 44.78805 0 0 5.555555 0
1 0.00652074 47.2058 0 0 0 0
2 0 -47.2058 0 0 0 0
3 0 0.929421 0 0 0 0
4 0 0 0 0 0 0
5 0.007 0.00524667 -0.02 0 0 0
6 -0.007 -47.211 5.93 0 0 0
7 -0.007 8.45016 2.68682 0 0 0
8 0 -47.2058 0 0 0 0
9 0 -4.3996 -3.75516 0 0 0
time 314
0 -0.006520736 44.78805 0 0 5.573303 0
1 0.00652074 47.2058 0 0 0 0
2 0 -47.2058 0 0 0 0
3 0 0.929421 0 0 0 0
4 0 0 0 0 0 0
5 0.007 0.00524667 -0.02 0 0 0
6 -0.007 -47.211 5.93 0 0 0
7 -0.007 8.45016 2.68682 0 0 0
8 0 -47.2058 0 0 0 0
9 0 -4.3996 -3.75516 0 0 0
time 315
0 -0.006520736 44.78805 0 0 5.59105 0
1 0.00652074 47.2058 0 0 0 0
2 0 -47.2058 0 0 0 0
3 0 0.929421 0 0 0 0
4 0 0 0 0 0 0
5 0.007 0.00524667 -0.02 0 0 0
6 -0.007 -47.211 5.93 0 0 0
7 -0.007 8.45016 2.68682 0 0 0
8 0 -47.2058 0 0 0 0
9 0 -4.3996 -3.75516 0 0 0
time 316
0 -0.006520736 44.78805 0 0 5.608798 0
1 0.00652074 47.2058 0 0 0 0
2 0 -47.2058 0 0 0 0
3 0 0.929421 0 0 0 0
4 0 0 0 0 0 0
5 0.007 0.00524667 -0.02 0 0 0
6 -0.007 -47.211 5.93 0 0 0
7 -0.007 8.45016 2.68682 0 0 0
8 0 -47.2058 0 0 0 0
9 0 -4.3996 -3.75516 0 0 0
time 317
0 -0.006520736 44.78805 0 0 5.626545 0
1 0.00652074 47.2058 0 0 0 0
2 0 -47.2058 0 0 0 0
3 0 0.929421 0 0 0 0
4 0 0 0 0 0 0
5 0.007 0.00524667 -0.02 0 0 0
6 -0.007 -47.211 5.93 0 0 0
7 -0.007 8.45016 2.68682 0 0 0
8 0 -47.2058 0 0 0 0
9 0 -4.3996 -3.75516 0 0 0
time 318
0 -0.006520736 44.78805 0 0 5.644293 0
1 0.00652074 47.2058 0 0 0 0
2 0 -47.2058 0 0 0 0
3 0 0.929421 0 0 0 0
4 0 0 0 0 0 0
5 0.007 0.00524667 -0.02 0 0 0
6 -0.007 -47.211 5.93 0 0 0
7 -0.007 8.45016 2.68682 0 0 0
8 0 -47.2058 0 0 0 0
9 0 -4.3996 -3.75516 0 0 0
time 319
0 -0.006520736 44.78805 0 0 5.662041 0
1 0.00652074 47.2058 0 0 0 0
2 0 -47.2058 0 0 0 0
3 0 0.929421 0 0 0 0
4 0 0 0 0 0 0
5 0.007 0.00524667 -0.02 0 0 0
6 -0.007 -47.211 5.93 0 0 0
7 -0.007 8.45016 2.68682 0 0 0
8 0 -47.2058 0 0 0 0
9 0 -4.3996 -3.75516 0 0 0
time 320
0 -0.006520736 44.78805 0 0 5.679789 0
1 0.00652074 47.2058 0 0 0 0
2 0 -47.2058 0 0 0 0
3 0 0.929421 0 0 0 0
4 0 0 0 0 0 0
5 0.007 0.00524667 -0.02 0 0 0
6 -0.007 -47.211 5.93 0 0 0
7 -0.007 8.45016 2.68682 0 0 0
8 0 -47.2058 0 0 0 0
9 0 -4.3996 -3.75516 0 0 0
time 321
0 -0.006520736 44.78805 0 0 5.697536 0
1 0.00652074 47.2058 0 0 0 0
2 0 -47.2058 0 0 0 0
3 0 0.929421 0 0 0 0
4 0 0 0 0 0 0
5 0.007 0.00524667 -0.02 0 0 0
6 -0.007 -47.211 5.93 0 0 0
7 -0.007 8.45016 2.68682 0 0 0
8 0 -47.2058 0 0 0 0
9 0 -4.3996 -3.75516 0 0 0
time 322
0 -0.006520736 44.78805 0 0 5.715283 0
1 0.00652074 47.2058 0 0 0 0
2 0 -47.2058 0 0 0 0
3 0 0.929421 0 0 0 0
4 0 0 0 0 0 0
5 0.007 0.00524667 -0.02 0 0 0
6 -0.007 -47.211 5.93 0 0 0
7 -0.007 8.45016 2.68682 0 0 0
8 0 -47.2058 0 0 0 0
9 0 -4.3996 -3.75516 0 0 0
time 323
0 -0.006520736 44.78805 0 0 5.73303 0
1 0.00652074 47.2058 0 0 0 0
2 0 -47.2058 0 0 0 0
3 0 0.929421 0 0 0 0
4 0 0 0 0 0 0
5 0.007 0.00524667 -0.02 0 0 0
6 -0.007 -47.211 5.93 0 0 0
7 -0.007 8.45016 2.68682 0 0 0
8 0 -47.2058 0 0 0 0
9 0 -4.3996 -3.75516 0 0 0
time 324
0 -0.006520736 44.78805 0 0 5.750779 0
1 0.00652074 47.2058 0 0 0 0
2 0 -47.2058 0 0 0 0
3 0 0.929421 0 0 0 0
4 0 0 0 0 0 0
5 0.007 0.00524667 -0.02 0 0 0
6 -0.007 -47.211 5.93 0 0 0
7 -0.007 8.45016 2.68682 0 0 0
8 0 -47.2058 0 0 0 0
9 0 -4.3996 -3.75516 0 0 0
time 325
0 -0.006520736 44.78805 0 0 5.768525 0
1 0.00652074 47.2058 0 0 0 0
2 0 -47.2058 0 0 0 0
3 0 0.929421 0 0 0 0
4 0 0 0 0 0 0
5 0.007 0.00524667 -0.02 0 0 0
6 -0.007 -47.211 5.93 0 0 0
7 -0.007 8.45016 2.68682 0 0 0
8 0 -47.2058 0 0 0 0
9 0 -4.3996 -3.75516 0 0 0
time 326
0 -0.006520736 44.78805 0 0 5.786273 0
1 0.00652074 47.2058 0 0 0 0
2 0 -47.2058 0 0 0 0
3 0 0.929421 0 0 0 0
4 0 0 0 0 0 0
5 0.007 0.00524667 -0.02 0 0 0
6 -0.007 -47.211 5.93 0 0 0
7 -0.007 8.45016 2.68682 0 0 0
8 0 -47.2058 0 0 0 0
9 0 -4.3996 -3.75516 0 0 0
time 327
0 -0.006520736 44.78805 0 0 5.80402 0
1 0.00652074 47.2058 0 0 0 0
2 0 -47.2058 0 0 0 0
3 0 0.929421 0 0 0 0
4 0 0 0 0 0 0
5 0.007 0.00524667 -0.02 0 0 0
6 -0.007 -47.211 5.93 0 0 0
7 -0.007 8.45016 2.68682 0 0 0
8 0 -47.2058 0 0 0 0
9 0 -4.3996 -3.75516 0 0 0
time 328
0 -0.006520736 44.78805 0 0 5.821767 0
1 0.00652074 47.2058 0 0 0 0
2 0 -47.2058 0 0 0 0
3 0 0.929421 0 0 0 0
4 0 0 0 0 0 0
5 0.007 0.00524667 -0.02 0 0 0
6 -0.007 -47.211 5.93 0 0 0
7 -0.007 8.45016 2.68682 0 0 0
8 0 -47.2058 0 0 0 0
9 0 -4.3996 -3.75516 0 0 0
time 329
0 -0.006520736 44.78805 0 0 5.839514 0
1 0.00652074 47.2058 0 0 0 0
2 0 -47.2058 0 0 0 0
3 0 0.929421 0 0 0 0
4 0 0 0 0 0 0
5 0.007 0.00524667 -0.02 0 0 0
6 -0.007 -47.211 5.93 0 0 0
7 -0.007 8.45016 2.68682 0 0 0
8 0 -47.2058 0 0 0 0
9 0 -4.3996 -3.75516 0 0 0
time 330
0 -0.006520736 44.78805 0 0 5.857262 0
1 0.00652074 47.2058 0 0 0 0
2 0 -47.2058 0 0 0 0
3 0 0.929421 0 0 0 0
4 0 0 0 0 0 0
5 0.007 0.00524667 -0.02 0 0 0
6 -0.007 -47.211 5.93 0 0 0
7 -0.007 8.45016 2.68682 0 0 0
8 0 -47.2058 0 0 0 0
9 0 -4.3996 -3.75516 0 0 0
time 331
0 -0.006520736 44.78805 0 0 5.875009 0
1 0.00652074 47.2058 0 0 0 0
2 0 -47.2058 0 0 0 0
3 0 0.929421 0 0 0 0
4 0 0 0 0 0 0
5 0.007 0.00524667 -0.02 0 0 0
6 -0.007 -47.211 5.93 0 0 0
7 -0.007 8.45016 2.68682 0 0 0
8 0 -47.2058 0 0 0 0
9 0 -4.3996 -3.75516 0 0 0
time 332
0 -0.006520736 44.78805 0 0 5.892756 0
1 0.00652074 47.2058 0 0 0 0
2 0 -47.2058 0 0 0 0
3 0 0.929421 0 0 0 0
4 0 0 0 0 0 0
5 0.007 0.00524667 -0.02 0 0 0
6 -0.007 -47.211 5.93 0 0 0
7 -0.007 8.45016 2.68682 0 0 0
8 0 -47.2058 0 0 0 0
9 0 -4.3996 -3.75516 0 0 0
time 333
0 -0.006520736 44.78805 0 0 5.910503 0
1 0.00652074 47.2058 0 0 0 0
2 0 -47.2058 0 0 0 0
3 0 0.929421 0 0 0 0
4 0 0 0 0 0 0
5 0.007 0.00524667 -0.02 0 0 0
6 -0.007 -47.211 5.93 0 0 0
7 -0.007 8.45016 2.68682 0 0 0
8 0 -47.2058 0 0 0 0
9 0 -4.3996 -3.75516 0 0 0
time 334
0 -0.006520736 44.78805 0 0 5.92825 0
1 0.00652074 47.2058 0 0 0 0
2 0 -47.2058 0 0 0 0
3 0 0.929421 0 0 0 0
4 0 0 0 0 0 0
5 0.007 0.00524667 -0.02 0 0 0
6 -0.007 -47.211 5.93 0 0 0
7 -0.007 8.45016 2.68682 0 0 0
8 0 -47.2058 0 0 0 0
9 0 -4.3996 -3.75516 0 0 0
time 335
0 -0.006520736 44.78805 0 0 5.945997 0
1 0.00652074 47.2058 0 0 0 0
2 0 -47.2058 0 0 0 0
3 0 0.929421 0 0 0 0
4 0 0 0 0 0 0
5 0.007 0.00524667 -0.02 0 0 0
6 -0.007 -47.211 5.93 0 0 0
7 -0.007 8.45016 2.68682 0 0 0
8 0 -47.2058 0 0 0 0
9 0 -4.3996 -3.75516 0 0 0
time 336
0 -0.006520736 44.78805 0 0 5.963744 0
1 0.00652074 47.2058 0 0 0 0
2 0 -47.2058 0 0 0 0
3 0 0.929421 0 0 0 0
4 0 0 0 0 0 0
5 0.007 0.00524667 -0.02 0 0 0
6 -0.007 -47.211 5.93 0 0 0
7 -0.007 8.45016 2.68682 0 0 0
8 0 -47.2058 0 0 0 0
9 0 -4.3996 -3.75516 0 0 0
time 337
0 -0.006520736 44.78805 0 0 5.981491 0
1 0.00652074 47.2058 0 0 0 0
2 0 -47.2058 0 0 0 0
3 0 0.929421 0 0 0 0
4 0 0 0 0 0 0
5 0.007 0.00524667 -0.02 0 0 0
6 -0.007 -47.211 5.93 0 0 0
7 -0.007 8.45016 2.68682 0 0 0
8 0 -47.2058 0 0 0 0
9 0 -4.3996 -3.75516 0 0 0
time 338
0 -0.006520736 44.78805 0 0 5.999238 0
1 0.00652074 47.2058 0 0 0 0
2 0 -47.2058 0 0 0 0
3 0 0.929421 0 0 0 0
4 0 0 0 0 0 0
5 0.007 0.00524667 -0.02 0 0 0
6 -0.007 -47.211 5.93 0 0 0
7 -0.007 8.45016 2.68682 0 0 0
8 0 -47.2058 0 0 0 0
9 0 -4.3996 -3.75516 0 0 0
time 339
0 -0.006520736 44.78805 0 0 6.016984 0
1 0.00652074 47.2058 0 0 0 0
2 0 -47.2058 0 0 0 0
3 0 0.929421 0 0 0 0
4 0 0 0 0 0 0
5 0.007 0.00524667 -0.02 0 0 0
6 -0.007 -47.211 5.93 0 0 0
7 -0.007 8.45016 2.68682 0 0 0
8 0 -47.2058 0 0 0 0
9 0 -4.3996 -3.75516 0 0 0
time 340
0 -0.006520736 44.78805 0 0 6.03473 0
1 0.00652074 47.2058 0 0 0 0
2 0 -47.2058 0 0 0 0
3 0 0.929421 0 0 0 0
4 0 0 0 0 0 0
5 0.007 0.00524667 -0.02 0 0 0
6 -0.007 -47.211 5.93 0 0 0
7 -0.007 8.45016 2.68682 0 0 0
8 0 -47.2058 0 0 0 0
9 0 -4.3996 -3.75516 0 0 0
time 341
0 -0.006520736 44.78805 0 0 6.052478 0
1 0.00652074 47.2058 0 0 0 0
2 0 -47.2058 0 0 0 0
3 0 0.929421 0 0 0 0
4 0 0 0 0 0 0
5 0.007 0.00524667 -0.02 0 0 0
6 -0.007 -47.211 5.93 0 0 0
7 -0.007 8.45016 2.68682 0 0 0
8 0 -47.2058 0 0 0 0
9 0 -4.3996 -3.75516 0 0 0
time 342
0 -0.006520736 44.78805 0 0 6.070225 0
1 0.00652074 47.2058 0 0 0 0
2 0 -47.2058 0 0 0 0
3 0 0.929421 0 0 0 0
4 0 0 0 0 0 0
5 0.007 0.00524667 -0.02 0 0 0
6 -0.007 -47.211 5.93 0 0 0
7 -0.007 8.45016 2.68682 0 0 0
8 0 -47.2058 0 0 0 0
9 0 -4.3996 -3.75516 0 0 0
time 343
0 -0.006520736 44.78805 0 0 6.087971 0
1 0.00652074 47.2058 0 0 0 0
2 0 -47.2058 0 0 0 0
3 0 0.929421 0 0 0 0
4 0 0 0 0 0 0
5 0.007 0.00524667 -0.02 0 0 0
6 -0.007 -47.211 5.93 0 0 0
7 -0.007 8.45016 2.68682 0 0 0
8 0 -47.2058 0 0 0 0
9 0 -4.3996 -3.75516 0 0 0
time 344
0 -0.006520736 44.78805 0 0 6.105718 0
1 0.00652074 47.2058 0 0 0 0
2 0 -47.2058 0 0 0 0
3 0 0.929421 0 0 0 0
4 0 0 0 0 0 0
5 0.007 0.00524667 -0.02 0 0 0
6 -0.007 -47.211 5.93 0 0 0
7 -0.007 8.45016 2.68682 0 0 0
8 0 -47.2058 0 0 0 0
9 0 -4.3996 -3.75516 0 0 0
time 345
0 -0.006520736 44.78805 0 0 6.123465 0
1 0.00652074 47.2058 0 0 0 0
2 0 -47.2058 0 0 0 0
3 0 0.929421 0 0 0 0
4 0 0 0 0 0 0
5 0.007 0.00524667 -0.02 0 0 0
6 -0.007 -47.211 5.93 0 0 0
7 -0.007 8.45016 2.68682 0 0 0
8 0 -47.2058 0 0 0 0
9 0 -4.3996 -3.75516 0 0 0
time 346
0 -0.006520736 44.78805 0 0 6.141212 0
1 0.00652074 47.2058 0 0 0 0
2 0 -47.2058 0 0 0 0
3 0 0.929421 0 0 0 0
4 0 0 0 0 0 0
5 0.007 0.00524667 -0.02 0 0 0
6 -0.007 -47.211 5.93 0 0 0
7 -0.007 8.45016 2.68682 0 0 0
8 0 -47.2058 0 0 0 0
9 0 -4.3996 -3.75516 0 0 0
time 347
0 -0.006520736 44.78805 0 0 6.158958 0
1 0.00652074 47.2058 0 0 0 0
2 0 -47.2058 0 0 0 0
3 0 0.929421 0 0 0 0
4 0 0 0 0 0 0
5 0.007 0.00524667 -0.02 0 0 0
6 -0.007 -47.211 5.93 0 0 0
7 -0.007 8.45016 2.68682 0 0 0
8 0 -47.2058 0 0 0 0
9 0 -4.3996 -3.75516 0 0 0
time 348
0 -0.006520736 44.78805 0 0 6.176703 0
1 0.00652074 47.2058 0 0 0 0
2 0 -47.2058 0 0 0 0
3 0 0.929421 0 0 0 0
4 0 0 0 0 0 0
5 0.007 0.00524667 -0.02 0 0 0
6 -0.007 -47.211 5.93 0 0 0
7 -0.007 8.45016 2.68682 0 0 0
8 0 -47.2058 0 0 0 0
9 0 -4.3996 -3.75516 0 0 0
time 349
0 -0.006520736 44.78805 0 0 6.19445 0
1 0.00652074 47.2058 0 0 0 0
2 0 -47.2058 0 0 0 0
3 0 0.929421 0 0 0 0
4 0 0 0 0 0 0
5 0.007 0.00524667 -0.02 0 0 0
6 -0.007 -47.211 5.93 0 0 0
7 -0.007 8.45016 2.68682 0 0 0
8 0 -47.2058 0 0 0 0
9 0 -4.3996 -3.75516 0 0 0
time 350
0 -0.006520736 44.78805 0 0 6.212197 0
1 0.00652074 47.2058 0 0 0 0
2 0 -47.2058 0 0 0 0
3 0 0.929421 0 0 0 0
4 0 0 0 0 0 0
5 0.007 0.00524667 -0.02 0 0 0
6 -0.007 -47.211 5.93 0 0 0
7 -0.007 8.45016 2.68682 0 0 0
8 0 -47.2058 0 0 0 0
9 0 -4.3996 -3.75516 0 0 0
time 351
0 -0.006520736 44.78805 0 0 6.229943 0
1 0.00652074 47.2058 0 0 0 0
2 0 -47.2058 0 0 0 0
3 0 0.929421 0 0 0 0
4 0 0 0 0 0 0
5 0.007 0.00524667 -0.02 0 0 0
6 -0.007 -47.211 5.93 0 0 0
7 -0.007 8.45016 2.68682 0 0 0
8 0 -47.2058 0 0 0 0
9 0 -4.3996 -3.75516 0 0 0
time 352
0 -0.006520736 44.78805 0 0 6.247689 0
1 0.00652074 47.2058 0 0 0 0
2 0 -47.2058 0 0 0 0
3 0 0.929421 0 0 0 0
4 0 0 0 0 0 0
5 0.007 0.00524667 -0.02 0 0 0
6 -0.007 -47.211 5.93 0 0 0
7 -0.007 8.45016 2.68682 0 0 0
8 0 -47.2058 0 0 0 0
9 0 -4.3996 -3.75516 0 0 0
end
