version 1
nodes
0 "S" -1
1 "fan" 0
2 "body" 1
3 "eff_loc" 1
4 "null" 3
5 "head" 1
6 "cover" 5
7 "hane" 5
8 "neck" 1
9 "neck_joint" 1
end
skeleton
time 0
0 -0.00652074 0.001197609 0 0 0 0
1 0.006520736 47.2058 0 0 0 0
2 0 -47.2058 0 0 0 0
3 0 0.929421 0 0 0 0
4 0 0 0 0 0 0
5 0.007 0.00524667 -0.02 0 0 0
6 -0.007 -47.211 5.93 0 0 0
7 -0.007 8.45016 2.68682 0 0 0
8 0 -47.2058 0 0 0 0
9 0 -4.3996 -3.75516 0 0 0
time 1
0 -0.00652074 3.876094 -4.358663 0 0 0
1 0.006520736 47.2058 0 -0.2617994 0 0
2 0 -47.2058 0 0 0 0
3 0 0.929421 0 0 0 0
4 0 0 0 0 0 0
5 0.007 0.00524667 -0.02 0 0 0
6 -0.007 -47.211 5.93 0 0 0
7 -0.007 8.45016 2.68682 0 0 0
8 0 -47.2058 0 0 0 0
9 0 -4.3996 -3.75516 0 0 0
time 2
0 -0.00652074 7.093194 -9.718042 0 0 0
1 0.006520736 47.2058 0 -0.523599 0 0
2 0 -47.2058 0 0 0 0
3 0 0.929421 0 0 0 0
4 0 0 0 0 0 0
5 0.007 0.00524667 -0.02 0 0 0
6 -0.007 -47.211 5.93 0 0 0
7 -0.007 8.45016 2.68682 0 0 0
8 0 -47.2058 0 0 0 0
9 0 -4.3996 -3.75516 0 0 0
time 3
0 -0.00652074 9.696225 -16.01251 0 0 0
1 0.006520736 47.2058 0 -0.7853985 0 0
2 0 -47.2058 0 0 0 0
3 0 0.929421 0 0 0 0
4 0 0 0 0 0 0
5 0.007 0.00524667 -0.02 0 0 0
6 -0.007 -47.211 5.93 0 0 0
7 -0.007 8.45016 2.68682 0 0 0
8 0 -47.2058 0 0 0 0
9 0 -4.3996 -3.75516 0 0 0
time 4
0 -0.00652074 11.7289 -23.17643 0 0 0
1 0.006520736 47.2058 0 -1.047198 0 0
2 0 -47.2058 0 0 0 0
3 0 0.929421 0 0 0 0
4 0 0 0 0 0 0
5 0.007 0.00524667 -0.02 0 0 0
6 -0.007 -47.211 5.93 0 0 0
7 -0.007 8.45016 2.68682 0 0 0
8 0 -47.2058 0 0 0 0
9 0 -4.3996 -3.75516 0 0 0
time 5
0 -0.00652074 13.23496 -31.14419 0 0 0
1 0.006520736 47.2058 0 -1.308998 0 0
2 0 -47.2058 0 0 0 0
3 0 0.929421 0 0 0 0
4 0 0 0 0 0 0
5 0.007 0.00524667 -0.02 0 0 0
6 -0.007 -47.211 5.93 0 0 0
7 -0.007 8.45016 2.68682 0 0 0
8 0 -47.2058 0 0 0 0
9 0 -4.3996 -3.75516 0 0 0
time 6
0 -0.00652074 14.25811 -39.85014 0 0 0
1 0.006520736 47.2058 0 -1.570797 0 0
2 0 -47.2058 0 0 0 0
3 0 0.929421 0 0 0 0
4 0 0 0 0 0 0
5 0.007 0.00524667 -0.02 0 0 0
6 -0.007 -47.211 5.93 0 0 0
7 -0.007 8.45016 2.68682 0 0 0
8 0 -47.2058 0 0 0 0
9 0 -4.3996 -3.75516 0 0 0
time 7
0 -0.00652074 14.84209 -49.22867 0 0 0
1 0.006520736 47.2058 0 -1.832597 0 0
2 0 -47.2058 0 0 0 0
3 0 0.929421 0 0 0 0
4 0 0 0 0 0 0
5 0.007 0.00524667 -0.02 0 0 0
6 -0.007 -47.211 5.93 0 0 0
7 -0.007 8.45016 2.68682 0 0 0
8 0 -47.2058 0 0 0 0
9 0 -4.3996 -3.75516 0 0 0
time 8
0 -0.00652074 15.03061 -59.21412 0 0 0
1 0.006520736 47.2058 0 -2.094397 0 0
2 0 -47.2058 0 0 0 0
3 0 0.929421 0 0 0 0
4 0 0 0 0 0 0
5 0.007 0.00524667 -0.02 0 0 0
6 -0.007 -47.211 5.93 0 0 0
7 -0.007 8.45016 2.68682 0 0 0
8 0 -47.2058 0 0 0 0
9 0 -4.3996 -3.75516 0 0 0
time 9
0 -0.00652074 14.86739 -69.74089 0 0 0
1 0.006520736 47.2058 0 -2.356197 0 0
2 0 -47.2058 0 0 0 0
3 0 0.929421 0 0 0 0
4 0 0 0 0 0 0
5 0.007 0.00524667 -0.02 0 0 0
6 -0.007 -47.211 5.93 0 0 0
7 -0.007 8.45016 2.68682 0 0 0
8 0 -47.2058 0 0 0 0
9 0 -4.3996 -3.75516 0 0 0
time 10
0 -0.00652074 14.39617 -80.74334 0 0 0
1 0.006520736 47.2058 0 -2.617996 0 0
2 0 -47.2058 0 0 0 0
3 0 0.929421 0 0 0 0
4 0 0 0 0 0 0
5 0.007 0.00524667 -0.02 0 0 0
6 -0.007 -47.211 5.93 0 0 0
7 -0.007 8.45016 2.68682 0 0 0
8 0 -47.2058 0 0 0 0
9 0 -4.3996 -3.75516 0 0 0
time 11
0 -0.00652074 13.66066 -92.15585 0 0 0
1 0.006520736 47.2058 0 -2.879796 0 0
2 0 -47.2058 0 0 0 0
3 0 0.929421 0 0 0 0
4 0 0 0 0 0 0
5 0.007 0.00524667 -0.02 0 0 0
6 -0.007 -47.211 5.93 0 0 0
7 -0.007 8.45016 2.68682 0 0 0
8 0 -47.2058 0 0 0 0
9 0 -4.3996 -3.75516 0 0 0
time 12
0 -0.00652074 12.70459 -103.9128 0 0 0
1 0.006520736 47.2058 0 -3.141596 0 0
2 0 -47.2058 0 0 0 0
3 0 0.929421 0 0 0 0
4 0 0 0 0 0 0
5 0.007 0.00524667 -0.02 0 0 0
6 -0.007 -47.211 5.93 0 0 0
7 -0.007 8.45016 2.68682 0 0 0
8 0 -47.2058 0 0 0 0
9 0 -4.3996 -3.75516 0 0 0
time 13
0 -0.00652074 11.57167 -115.9468 0 0 0
1 0.006520736 47.2058 0 -3.403395 0 0
2 0 -47.2058 0 0 0 0
3 0 0.929421 0 0 0 0
4 0 0 0 0 0 0
5 0.007 0.00524667 -0.02 0 0 0
6 -0.007 -47.211 5.93 0 0 0
7 -0.007 8.45016 2.68682 0 0 0
8 0 -47.2058 0 0 0 0
9 0 -4.3996 -3.75516 0 0 0
time 14
0 -0.00652074 10.30564 -128.1849 0 0 0
1 0.006520736 47.2058 0 -3.665195 0 0
2 0 -47.2058 0 0 0 0
3 0 0.929421 0 0 0 0
4 0 0 0 0 0 0
5 0.007 0.00524667 -0.02 0 0 0
6 -0.007 -47.211 5.93 0 0 0
7 -0.007 8.45016 2.68682 0 0 0
8 0 -47.2058 0 0 0 0
9 0 -4.3996 -3.75516 0 0 0
time 15
0 -0.00652074 8.950219 -140.5584 0 0 0
1 0.006520736 47.2058 0 -3.926994 0 0
2 0 -47.2058 0 0 0 0
3 0 0.929421 0 0 0 0
4 0 0 0 0 0 0
5 0.007 0.00524667 -0.02 0 0 0
6 -0.007 -47.211 5.93 0 0 0
7 -0.007 8.45016 2.68682 0 0 0
8 0 -47.2058 0 0 0 0
9 0 -4.3996 -3.75516 0 0 0
time 16
0 -0.00652074 7.549127 -152.9997 0 0 0
1 0.006520736 47.2058 0 -4.188793 0 0
2 0 -47.2058 0 0 0 0
3 0 0.929421 0 0 0 0
4 0 0 0 0 0 0
5 0.007 0.00524667 -0.02 0 0 0
6 -0.007 -47.211 5.93 0 0 0
7 -0.007 8.45016 2.68682 0 0 0
8 0 -47.2058 0 0 0 0
9 0 -4.3996 -3.75516 0 0 0
time 17
0 -0.00652074 6.146088 -165.441 0 0 0
1 0.006520736 47.2058 0 -4.450593 0 0
2 0 -47.2058 0 0 0 0
3 0 0.929421 0 0 0 0
4 0 0 0 0 0 0
5 0.007 0.00524667 -0.02 0 0 0
6 -0.007 -47.211 5.93 0 0 0
7 -0.007 8.45016 2.68682 0 0 0
8 0 -47.2058 0 0 0 0
9 0 -4.3996 -3.75516 0 0 0
time 18
0 -0.00652074 4.784822 -177.8146 0 0 0
1 0.006520736 47.2058 0 -4.712392 0 0
2 0 -47.2058 0 0 0 0
3 0 0.929421 0 0 0 0
4 0 0 0 0 0 0
5 0.007 0.00524667 -0.02 0 0 0
6 -0.007 -47.211 5.93 0 0 0
7 -0.007 8.45016 2.68682 0 0 0
8 0 -47.2058 0 0 0 0
9 0 -4.3996 -3.75516 0 0 0
time 19
0 -0.00652074 3.509058 -190.0527 0 0 0
1 0.006520736 47.2058 0 -4.974191 0 0
2 0 -47.2058 0 0 0 0
3 0 0.929421 0 0 0 0
4 0 0 0 0 0 0
5 0.007 0.00524667 -0.02 0 0 0
6 -0.007 -47.211 5.93 0 0 0
7 -0.007 8.45016 2.68682 0 0 0
8 0 -47.2058 0 0 0 0
9 0 -4.3996 -3.75516 0 0 0
time 20
0 -0.00652074 2.383771 -202.0876 0 0 0
1 0.006520736 47.2058 0 -5.23599 0 0
2 0 -47.2058 0 0 0 0
3 0 0.929421 0 0 0 0
4 0 0 0 0 0 0
5 0.007 0.00524667 -0.02 0 0 0
6 -0.007 -47.211 5.93 0 0 0
7 -0.007 8.45016 2.68682 0 0 0
8 0 -47.2058 0 0 0 0
9 0 -4.3996 -3.75516 0 0 0
time 21
0 -0.00652074 1.455869 -213.8515 0 0 0
1 0.006520736 47.2058 0 -5.497789 0 0
2 0 -47.2058 0 0 0 0
3 0 0.929421 0 0 0 0
4 0 0 0 0 0 0
5 0.007 0.00524667 -0.02 0 0 0
6 -0.007 -47.211 5.93 0 0 0
7 -0.007 8.45016 2.68682 0 0 0
8 0 -47.2058 0 0 0 0
9 0 -4.3996 -3.75516 0 0 0
time 22
0 -0.00652074 0.7419702 -225.2767 0 0 0
1 0.006520736 47.2058 0 -5.759588 0 0
2 0 -47.2058 0 0 0 0
3 0 0.929421 0 0 0 0
4 0 0 0 0 0 0
5 0.007 0.00524667 -0.02 0 0 0
6 -0.007 -47.211 5.93 0 0 0
7 -0.007 8.45016 2.68682 0 0 0
8 0 -47.2058 0 0 0 0
9 0 -4.3996 -3.75516 0 0 0
time 23
0 -0.00652074 0.2586947 -236.2954 0 0 0
1 0.006520736 47.2058 0 -6.021387 0 0
2 0 -47.2058 0 0 0 0
3 0 0.929421 0 0 0 0
4 0 0 0 0 0 0
5 0.007 0.00524667 -0.02 0 0 0
6 -0.007 -47.211 5.93 0 0 0
7 -0.007 8.45016 2.68682 0 0 0
8 0 -47.2058 0 0 0 0
9 0 -4.3996 -3.75516 0 0 0
time 24
0 -0.00652074 0.022661 -246.84 0 0 0
1 0.006520736 47.2058 0 -6.283185 0 0
2 0 -47.2058 0 0 0 0
3 0 0.929421 0 0 0 0
4 0 0 0 0 0 0
5 0.007 0.00524667 -0.02 0 0 0
6 -0.007 -47.211 5.93 0 0 0
7 -0.007 8.45016 2.68682 0 0 0
8 0 -47.2058 0 0 0 0
9 0 -4.3996 -3.75516 0 0 0
time 25
0 -0.00652074 0.001197609 -246.84 0 0 0
1 0.006520736 47.2058 0 -6.283185 0 0
2 0 -47.2058 0 0 0 0
3 0 0.929421 0 0 0 0
4 0 0 0 0 0 0
5 0.007 0.00524667 -0.02 0 0 0
6 -0.007 -47.211 5.93 0 0 0
7 -0.007 8.45016 2.68682 0 0 0
8 0 -47.2058 0 0 0 0
9 0 -4.3996 -3.75516 0 0 0
time 26
0 -0.00652074 0.001197609 -246.84 0 0 0
1 0.006520736 47.2058 0 -6.283185 0 0
2 0 -47.2058 0 0 0 0
3 0 0.929421 0 0 0 0
4 0 0 0 0 0 0
5 0.007 0.00524667 -0.02 0 0 0
6 -0.007 -47.211 5.93 0 0 0
7 -0.007 8.45016 2.68682 0 0 0
8 0 -47.2058 0 0 0 0
9 0 -4.3996 -3.75516 0 0 0
time 27
0 -0.00652074 0.001197609 -246.84 0 0 0
1 0.006520736 47.2058 0 -6.283185 0 0
2 0 -47.2058 0 0 0 0
3 0 0.929421 0 0 0 0
4 0 0 0 0 0 0
5 0.007 0.00524667 -0.02 0 0 0
6 -0.007 -47.211 5.93 0 0 0
7 -0.007 8.45016 2.68682 0 0 0
8 0 -47.2058 0 0 0 0
9 0 -4.3996 -3.75516 0 0 0
time 28
0 -0.00652074 0.001197609 -246.84 0 0 0
1 0.006520736 47.2058 0 -6.283185 0 0
2 0 -47.2058 0 0 0 0
3 0 0.929421 0 0 0 0
4 0 0 0 0 0 0
5 0.007 0.00524667 -0.02 0 0 0
6 -0.007 -47.211 5.93 0 0 0
7 -0.007 8.45016 2.68682 0 0 0
8 0 -47.2058 0 0 0 0
9 0 -4.3996 -3.75516 0 0 0
time 29
0 -0.00652074 0.001197609 -246.84 0 0 0
1 0.006520736 47.2058 0 -6.283185 0 0
2 0 -47.2058 0 0 0 0
3 0 0.929421 0 0 0 0
4 0 0 0 0 0 0
5 0.007 0.00524667 -0.02 0 0 0
6 -0.007 -47.211 5.93 0 0 0
7 -0.007 8.45016 2.68682 0 0 0
8 0 -47.2058 0 0 0 0
9 0 -4.3996 -3.75516 0 0 0
time 30
0 -0.00652074 0.001197609 -246.84 0 0 0
1 0.006520736 47.2058 0 -6.283185 0 0
2 0 -47.2058 0 0 0 0
3 0 0.929421 0 0 0 0
4 0 0 0 0 0 0
5 0.007 0.00524667 -0.02 0 0 0
6 -0.007 -47.211 5.93 0 0 0
7 -0.007 8.45016 2.68682 0 0 0
8 0 -47.2058 0 0 0 0
9 0 -4.3996 -3.75516 0 0 0
time 31
0 -0.00652074 0.001197609 -246.84 0 0 0
1 0.006520736 47.2058 0 -6.283185 0 0
2 0 -47.2058 0 0 0 0
3 0 0.929421 0 0 0 0
4 0 0 0 0 0 0
5 0.007 0.00524667 -0.02 0 0 0
6 -0.007 -47.211 5.93 0 0 0
7 -0.007 8.45016 2.68682 0 0 0
8 0 -47.2058 0 0 0 0
9 0 -4.3996 -3.75516 0 0 0
time 32
0 -0.00652074 0.001197609 -246.84 0 0 0
1 0.006520736 47.2058 0 -6.283185 0 0
2 0 -47.2058 0 0 0 0
3 0 0.929421 0 0 0 0
4 0 0 0 0 0 0
5 0.007 0.00524667 -0.02 0 0 0
6 -0.007 -47.211 5.93 0 0 0
7 -0.007 8.45016 2.68682 0 0 0
8 0 -47.2058 0 0 0 0
9 0 -4.3996 -3.75516 0 0 0
time 33
0 -0.00652074 0.001197609 -246.84 0 0 0
1 0.006520736 47.2058 0 -6.283185 0 0
2 0 -47.2058 0 0 0 0
3 0 0.929421 0 0 0 0
4 0 0 0 0 0 0
5 0.007 0.00524667 -0.02 0 0 0
6 -0.007 -47.211 5.93 0 0 0
7 -0.007 8.45016 2.68682 0 0 0
8 0 -47.2058 0 0 0 0
9 0 -4.3996 -3.75516 0 0 0
time 34
0 -0.00652074 0.001197609 -246.84 0 0 0
1 0.006520736 47.2058 0 -6.283185 0 0
2 0 -47.2058 0 0 0 0
3 0 0.929421 0 0 0 0
4 0 0 0 0 0 0
5 0.007 0.00524667 -0.02 0 0 0
6 -0.007 -47.211 5.93 0 0 0
7 -0.007 8.45016 2.68682 0 0 0
8 0 -47.2058 0 0 0 0
9 0 -4.3996 -3.75516 0 0 0
time 35
0 -0.00652074 0.001197609 -246.84 0 0 0
1 0.006520736 47.2058 0 -6.283185 0 0
2 0 -47.2058 0 0 0 0
3 0 0.929421 0 0 0 0
4 0 0 0 0 0 0
5 0.007 0.00524667 -0.02 0 0 0
6 -0.007 -47.211 5.93 0 0 0
7 -0.007 8.45016 2.68682 0 0 0
8 0 -47.2058 0 0 0 0
9 0 -4.3996 -3.75516 0 0 0
time 36
0 -0.00652074 0.001197609 -246.84 0 0 0
1 0.006520736 47.2058 0 -6.283185 0 0
2 0 -47.2058 0 0 0 0
3 0 0.929421 0 0 0 0
4 0 0 0 0 0 0
5 0.007 0.00524667 -0.02 0 0 0
6 -0.007 -47.211 5.93 0 0 0
7 -0.007 8.45016 2.68682 0 0 0
8 0 -47.2058 0 0 0 0
9 0 -4.3996 -3.75516 0 0 0
time 37
0 -0.00652074 0.001197609 -246.84 0 0 0
1 0.006520736 47.2058 0 -6.283185 0 0
2 0 -47.2058 0 0 0 0
3 0 0.929421 0 0 0 0
4 0 0 0 0 0 0
5 0.007 0.00524667 -0.02 0 0 0
6 -0.007 -47.211 5.93 0 0 0
7 -0.007 8.45016 2.68682 0 0 0
8 0 -47.2058 0 0 0 0
9 0 -4.3996 -3.75516 0 0 0
time 38
0 -0.00652074 0.001197609 -246.84 0 0 0
1 0.006520736 47.2058 0 -6.283185 0 0
2 0 -47.2058 0 0 0 0
3 0 0.929421 0 0 0 0
4 0 0 0 0 0 0
5 0.007 0.00524667 -0.02 0 0 0
6 -0.007 -47.211 5.93 0 0 0
7 -0.007 8.45016 2.68682 0 0 0
8 0 -47.2058 0 0 0 0
9 0 -4.3996 -3.75516 0 0 0
time 39
0 -0.00652074 0.001197609 -246.84 0 0 0
1 0.006520736 47.2058 0 -6.283185 0 0
2 0 -47.2058 0 0 0 0
3 0 0.929421 0 0 0 0
4 0 0 0 0 0 0
5 0.007 0.00524667 -0.02 0 0 0
6 -0.007 -47.211 5.93 0 0 0
7 -0.007 8.45016 2.68682 0 0 0
8 0 -47.2058 0 0 0 0
9 0 -4.3996 -3.75516 0 0 0
time 40
0 -0.00652074 0.001197609 -246.84 0 0 0
1 0.006520736 47.2058 0 -6.283185 0 0
2 0 -47.2058 0 0 0 0
3 0 0.929421 0 0 0 0
4 0 0 0 0 0 0
5 0.007 0.00524667 -0.02 0 0 0
6 -0.007 -47.211 5.93 0 0 0
7 -0.007 8.45016 2.68682 0 0 0
8 0 -47.2058 0 0 0 0
9 0 -4.3996 -3.75516 0 0 0
time 41
0 -0.00652074 0.001197609 -246.84 0 0 0
1 0.006520736 47.2058 0 -6.283185 0 0
2 0 -47.2058 0 0 0 0
3 0 0.929421 0 0 0 0
4 0 0 0 0 0 0
5 0.007 0.00524667 -0.02 0 0 0
6 -0.007 -47.211 5.93 0 0 0
7 -0.007 8.45016 2.68682 0 0 0
8 0 -47.2058 0 0 0 0
9 0 -4.3996 -3.75516 0 0 0
time 42
0 -0.00652074 0.001197609 -246.84 0 0 0
1 0.006520736 47.2058 0 -6.283185 0 0
2 0 -47.2058 0 0 0 0
3 0 0.929421 0 0 0 0
4 0 0 0 0 0 0
5 0.007 0.00524667 -0.02 0 0 0
6 -0.007 -47.211 5.93 0 0 0
7 -0.007 8.45016 2.68682 0 0 0
8 0 -47.2058 0 0 0 0
9 0 -4.3996 -3.75516 0 0 0
time 43
0 -0.00652074 0.001197609 -246.84 0 0 0
1 0.006520736 47.2058 0 -6.283185 0 0
2 0 -47.2058 0 0 0 0
3 0 0.929421 0 0 0 0
4 0 0 0 0 0 0
5 0.007 0.00524667 -0.02 0 0 0
6 -0.007 -47.211 5.93 0 0 0
7 -0.007 8.45016 2.68682 0 0 0
8 0 -47.2058 0 0 0 0
9 0 -4.3996 -3.75516 0 0 0
time 44
0 -0.00652074 0.001197609 -246.84 0 0 0
1 0.006520736 47.2058 0 -6.283185 0 0
2 0 -47.2058 0 0 0 0
3 0 0.929421 0 0 0 0
4 0 0 0 0 0 0
5 0.007 0.00524667 -0.02 0 0 0
6 -0.007 -47.211 5.93 0 0 0
7 -0.007 8.45016 2.68682 0 0 0
8 0 -47.2058 0 0 0 0
9 0 -4.3996 -3.75516 0 0 0
time 45
0 -0.00652074 0.001197609 -246.84 0 0 0
1 0.006520736 47.2058 0 -6.283185 0 0
2 0 -47.2058 0 0 0 0
3 0 0.929421 0 0 0 0
4 0 0 0 0 0 0
5 0.007 0.00524667 -0.02 0 0 0
6 -0.007 -47.211 5.93 0 0 0
7 -0.007 8.45016 2.68682 0 0 0
8 0 -47.2058 0 0 0 0
9 0 -4.3996 -3.75516 0 0 0
time 46
0 -0.00652074 0.001197609 -246.84 0 0 0
1 0.006520736 47.2058 0 -6.283185 0 0
2 0 -47.2058 0 0 0 0
3 0 0.929421 0 0 0 0
4 0 0 0 0 0 0
5 0.007 0.00524667 -0.02 0 0 0
6 -0.007 -47.211 5.93 0 0 0
7 -0.007 8.45016 2.68682 0 0 0
8 0 -47.2058 0 0 0 0
9 0 -4.3996 -3.75516 0 0 0
time 47
0 -0.00652074 0.001197609 -246.84 0 0 0
1 0.006520736 47.2058 0 -6.283185 0 0
2 0 -47.2058 0 0 0 0
3 0 0.929421 0 0 0 0
4 0 0 0 0 0 0
5 0.007 0.00524667 -0.02 0 0 0
6 -0.007 -47.211 5.93 0 0 0
7 -0.007 8.45016 2.68682 0 0 0
8 0 -47.2058 0 0 0 0
9 0 -4.3996 -3.75516 0 0 0
time 48
0 -0.00652074 0.001197609 -246.84 0 0 0
1 0.006520736 47.2058 0 -6.283185 0 0
2 0 -47.2058 0 0 0 0
3 0 0.929421 0 0 0 0
4 0 0 0 0 0 0
5 0.007 0.00524667 -0.02 0 0 0
6 -0.007 -47.211 5.93 0 0 0
7 -0.007 8.45016 2.68682 0 0 0
8 0 -47.2058 0 0 0 0
9 0 -4.3996 -3.75516 0 0 0
time 49
0 -0.00652074 0.001197609 -246.84 0 0 0
1 0.006520736 47.2058 0 -6.283185 0 0
2 0 -47.2058 0 0 0 0
3 0 0.929421 0 0 0 0
4 0 0 0 0 0 0
5 0.007 0.00524667 -0.02 0 0 0
6 -0.007 -47.211 5.93 0 0 0
7 -0.007 8.45016 2.68682 0 0 0
8 0 -47.2058 0 0 0 0
9 0 -4.3996 -3.75516 0 0 0
time 50
0 -0.00652074 0.001197609 -246.84 0 0 0
1 0.006520736 47.2058 0 -6.283185 0 0
2 0 -47.2058 0 0 0 0
3 0 0.929421 0 0 0 0
4 0 0 0 0 0 0
5 0.007 0.00524667 -0.02 0 0 0
6 -0.007 -47.211 5.93 0 0 0
7 -0.007 8.45016 2.68682 0 0 0
8 0 -47.2058 0 0 0 0
9 0 -4.3996 -3.75516 0 0 0
time 51
0 -0.00652074 0.001197609 -246.84 0 0 0
1 0.006520736 47.2058 0 -6.283185 0 0
2 0 -47.2058 0 0 0 0
3 0 0.929421 0 0 0 0
4 0 0 0 0 0 0
5 0.007 0.00524667 -0.02 0 0 0
6 -0.007 -47.211 5.93 0 0 0
7 -0.007 8.45016 2.68682 0 0 0
8 0 -47.2058 0 0 0 0
9 0 -4.3996 -3.75516 0 0 0
time 52
0 -0.00652074 0.001197609 -246.84 0 0 0
1 0.006520736 47.2058 0 -6.283185 0 0
2 0 -47.2058 0 0 0 0
3 0 0.929421 0 0 0 0
4 0 0 0 0 0 0
5 0.007 0.00524667 -0.02 0 0 0
6 -0.007 -47.211 5.93 0 0 0
7 -0.007 8.45016 2.68682 0 0 0
8 0 -47.2058 0 0 0 0
9 0 -4.3996 -3.75516 0 0 0
time 53
0 -0.00652074 0.001197609 -246.84 0 0 0
1 0.006520736 47.2058 0 -6.283185 0 0
2 0 -47.2058 0 0 0 0
3 0 0.929421 0 0 0 0
4 0 0 0 0 0 0
5 0.007 0.00524667 -0.02 0 0 0
6 -0.007 -47.211 5.93 0 0 0
7 -0.007 8.45016 2.68682 0 0 0
8 0 -47.2058 0 0 0 0
9 0 -4.3996 -3.75516 0 0 0
time 54
0 -0.00652074 0.001197609 -246.84 0 0 0
1 0.006520736 47.2058 0 -6.283185 0 0
2 0 -47.2058 0 0 0 0
3 0 0.929421 0 0 0 0
4 0 0 0 0 0 0
5 0.007 0.00524667 -0.02 0 0 0
6 -0.007 -47.211 5.93 0 0 0
7 -0.007 8.45016 2.68682 0 0 0
8 0 -47.2058 0 0 0 0
9 0 -4.3996 -3.75516 0 0 0
time 55
0 -0.00652074 0.001197609 -246.84 0 0 0
1 0.006520736 47.2058 0 -6.283185 0 0
2 0 -47.2058 0 0 0 0
3 0 0.929421 0 0 0 0
4 0 0 0 0 0 0
5 0.007 0.00524667 -0.02 0 0 0
6 -0.007 -47.211 5.93 0 0 0
7 -0.007 8.45016 2.68682 0 0 0
8 0 -47.2058 0 0 0 0
9 0 -4.3996 -3.75516 0 0 0
time 56
0 -0.00652074 0.001197609 -246.84 0 0 0
1 0.006520736 47.2058 0 -6.283185 0 0
2 0 -47.2058 0 0 0 0
3 0 0.929421 0 0 0 0
4 0 0 0 0 0 0
5 0.007 0.00524667 -0.02 0 0 0
6 -0.007 -47.211 5.93 0 0 0
7 -0.007 8.45016 2.68682 0 0 0
8 0 -47.2058 0 0 0 0
9 0 -4.3996 -3.75516 0 0 0
time 57
0 -0.00652074 0.001197609 -246.84 0 0 0
1 0.006520736 47.2058 0 -6.283185 0 0
2 0 -47.2058 0 0 0 0
3 0 0.929421 0 0 0 0
4 0 0 0 0 0 0
5 0.007 0.00524667 -0.02 0 0 0
6 -0.007 -47.211 5.93 0 0 0
7 -0.007 8.45016 2.68682 0 0 0
8 0 -47.2058 0 0 0 0
9 0 -4.3996 -3.75516 0 0 0
time 58
0 -0.00652074 0.001197609 -246.84 0 0 0
1 0.006520736 47.2058 0 -6.283185 0 0
2 0 -47.2058 0 0 0 0
3 0 0.929421 0 0 0 0
4 0 0 0 0 0 0
5 0.007 0.00524667 -0.02 0 0 0
6 -0.007 -47.211 5.93 0 0 0
7 -0.007 8.45016 2.68682 0 0 0
8 0 -47.2058 0 0 0 0
9 0 -4.3996 -3.75516 0 0 0
time 59
0 -0.00652074 0.001197609 -246.84 0 0 0
1 0.006520736 47.2058 0 -6.283185 0 0
2 0 -47.2058 0 0 0 0
3 0 0.929421 0 0 0 0
4 0 0 0 0 0 0
5 0.007 0.00524667 -0.02 0 0 0
6 -0.007 -47.211 5.93 0 0 0
7 -0.007 8.45016 2.68682 0 0 0
8 0 -47.2058 0 0 0 0
9 0 -4.3996 -3.75516 0 0 0
end
