<?xml version="1.0"?>
<COLLADA xmlns="http://www.collada.org/2005/11/COLLADASchema" version="1.4.1">
    <asset>
        <contributor>
            <authoring_tool>CINEMA4D 15.064 COLLADA Exporter</authoring_tool>
        </contributor>
        <created>2020-06-14T00:02:30Z</created>
        <modified>2020-06-14T00:02:30Z</modified>
        <unit meter="0.01" name="centimeter"/>
        <up_axis>Y_UP</up_axis>
    </asset>
    <library_images>
        <image id="ID5">
            <init_from>shell_koppa_tx_fix.png</init_from>
        </image>
    </library_images>
    <library_effects>
        <effect id="ID4">
            <profile_COMMON>
                <newparam sid="ID6">
                    <surface type="2D">
                        <init_from>ID5</init_from>
                    </surface>
                </newparam>
                <newparam sid="ID7">
                    <sampler2D>
                        <source>ID6</source>
                    </sampler2D>
                </newparam>
                <technique sid="COMMON">
                    <blinn>
                        <diffuse>
                            <texture texture="ID7" texcoord="UVSET0"/>
                        </diffuse>
                    </blinn>
                </technique>
            </profile_COMMON>
        </effect>
    </library_effects>
    <library_materials>
        <material id="ID3" name="m0">
            <instance_effect url="#ID4"/>
        </material>
    </library_materials>
    <library_geometries>
        <geometry id="ID10">
            <mesh>
                <source id="ID11">
                    <float_array id="ID12" count="1029">-15.4059 -39.7873 60.6664 -22.2698 -34.8752 74.1864 -29.0718 -29.9035 60.7032 -28.1568 -43.6219 65.8307 8.4387 -42.0712 60.6578 0.030934 -42.101 74.1594 -8.37683 -42.0712 60.6578 0.032008 -52.7602 65.7967 29.0718 -29.9035 60.7032 22.2698 -34.8752 74.1864 15.4677 -39.7873 60.6664 28.1568 -43.6219 65.8307 0.030934 -44.0152 74.7682 0.030934 -44.0152 74.7682 0.030934 -43.9509 57.5217 0.030934 -43.9509 57.5217 23.3936 -36.4243 74.7965 23.3936 -36.4243 74.7965 23.3936 -36.36 57.55 23.3936 -36.36 57.55 -23.3936 -36.4243 74.7965 -23.3936 -36.4243 74.7965 -23.3936 -36.36 57.55 -23.3936 -36.36 57.55 -37.8325 -16.551 74.8706 -37.8325 -16.551 74.8706 -37.8325 -16.4867 57.6241 -37.8325 -16.4867 57.6241 -37.8325 -4.12381 74.9622 -37.8325 -4.12381 74.9622 37.8325 -4.12381 74.9622 37.8325 -4.12381 74.9622 37.8325 -16.4867 57.6241 37.8325 -16.4867 57.6241 37.8325 -16.551 74.8706 37.8325 -16.551 74.8706 6.9e-005 -61.0717 -46.5139 6.9e-005 -59.8714 36.0254 42.1959 -52.4792 -41.5197 42.1959 -52.4792 -41.5197 53.163 -30.7515 31.5124 23.5384 -31.5464 59.6925 23.5384 -31.5464 59.6925 24.8349 -36.9178 -66.8974 24.8349 -36.9178 -66.8974 24.8349 -36.9178 -66.8974 52.5684 -32.5731 -37.4027 27.9062 -10.1559 -78.5961 27.9062 -10.1559 -78.5961 37.7795 -7.46848 59.6925 6.9e-005 -39.6591 59.6925 64.9496 -8.13473 -30.2215 62.4175 -5.16223 28.2707 58.5326 -35.9549 -2.56517 -23.5382 -31.5464 59.6925 -23.5382 -31.5464 59.6925 -27.9061 -10.1559 -78.5961 -27.9061 -10.1559 -78.5961 -24.8347 -36.9178 -66.8974 -24.8347 -36.9178 -66.8974 -24.8347 -36.9178 -66.8974 -42.1957 -52.4792 -41.5197 -42.1957 -52.4792 -41.5197 -58.5324 -35.9549 -2.56517 -53.1629 -30.7515 31.5124 -52.5683 -32.5731 -37.4027 -37.7794 -7.46848 59.6925 -64.9494 -8.13473 -30.2215 -62.4173 -5.16223 28.2707 -40.4361 -47.8541 33.455 -40.4361 -47.8541 33.455 40.4363 -47.8541 33.455 40.4363 -47.8541 33.455 -48.1283 -57.6618 -3.46813 -48.1283 -57.6618 -3.46813 48.1284 -57.6618 -3.46813 48.1284 -57.6618 -3.46813 -14.1685 -70.2976 -3.69387 14.1687 -69.3978 -3.69387 -4e-006 6.27084 88.4791 -4e-006 11.5492 78.4545 31.9993 -5.65773 -91.6784 52.5732 -11.0087 -78.2096 28.44 -15.8832 -89.5917 47.9019 -21.0812 -76.6819 74.6076 -24.0961 -35.8237 63.7744 -24.5876 -58.4016 79.0874 -13.8578 -37.3412 68.5464 -14.4546 -59.883 80.8583 2.40343 36.4563 75.5724 -4.83375 43.9341 25.4079 -17.2956 84.811 38.5532 -19.0686 80.5346 49.4447 -14.5877 75.681 24.1776 -23.7741 77.9126 31.2642 3.85495 -85.836 50.6193 -1.34156 -73.1068 74.6052 -3.86714 -35.5341 65.0962 -4.54401 -56.3301 75.0733 11.8293 37.2572 44.7285 -5.45454 76.677 65.1869 14.2313 34.6853 25.1514 -0.76961 74.4298 27.1069 -6.30411 83.6518 65.0838 -8.84557 59.9992 65.0629 -1.7325 67.9523 58.3644 6.58493 69.6278 72.1173 3.45765 58.9975 65.6449 12.1181 60.6479 56.4981 14.2088 55.9342 81.0325 -15.7713 10.5899 84.5014 -5.78093 11.3455 79.0719 3.94582 11.556 68.1966 -1.89438 -24.4429 80.4499 -21.4264 -12.4853 84.5753 -11.2175 -13.3511 79.4881 -1.32449 -12.735 -47.9019 -21.0812 -76.6819 -52.5732 -11.0087 -78.2095 -28.44 -15.8832 -89.5917 -31.9993 -5.65772 -91.6784 -68.5464 -14.4546 -59.883 -63.7744 -24.5876 -58.4016 -79.0874 -13.8578 -37.3412 -74.6076 -24.0961 -35.8237 -80.8583 2.40343 36.4563 -75.5724 -4.83375 43.9341 -25.4079 -17.2957 84.811 -49.4447 -14.5877 75.6809 -38.5532 -19.0685 80.5347 -24.1776 -23.7741 77.9126 -31.2642 3.85494 -85.836 -50.6193 -1.34157 -73.1068 -65.0962 -4.54402 -56.3301 -74.6052 -3.86714 -35.5341 -75.0733 11.8293 37.2572 -44.7285 -5.45454 76.677 -27.1069 -6.30411 83.6518 -25.1514 -0.783398 74.349 -65.0629 -1.73256 67.9522 -65.0838 -8.84556 59.9992 -58.3644 6.58493 69.6278 -72.1173 3.45765 58.9975 -65.6449 12.1181 60.6479 -56.4981 14.2088 55.9341 -84.5014 -5.78099 11.3455 -81.0325 -15.7713 10.5899 -79.0719 3.94583 11.556 -65.1869 14.2313 34.6853 -84.5753 -11.2175 -13.3511 -80.4499 -21.4264 -12.4853 -79.4881 -1.3245 -12.735 -68.1966 -1.89437 -24.4429 38.6951 -0.691292 69.1892 -38.6951 -0.691292 69.1892 -62.6268 -25.0046 -33.1899 -39.2186 -22.9661 -72.0246 39.2186 -22.9661 -72.0246 62.6268 -25.0046 -33.1899 -63.5197 -6.90805 46.9146 63.5197 -6.90807 46.9146 -4.60055 -13.7545 82.2212 -6.38388 -6.16272 89.4331 -9.37471 4.2563 87.2465 -9.77873 9.46646 77.2074 9.77873 9.46646 77.2074 9.37471 4.25632 87.2465 6.38387 -6.16269 89.4331 4.60055 -13.7545 82.2211 0 -17.6458 -87.7836 -3e-006 -13.3663 70.9191 0 -13.2522 -94.4526 0 -2.74825 -97.2736 -41.6477 -23.7476 71.659 -38.2668 -23.7383 60.1619 41.6477 -23.7476 71.6589 38.2668 -23.7383 60.1619 -1e-006 6.73945 -91.2957 34.1029 39.2508 46.1618 61.6286 22.4688 0.558448 55.7782 12.39 -39.1194 17.8794 34.728 -62.1211 -3e-006 22.8587 -75.0655 -6e-006 15.1591 74.6273 -6e-006 43.7558 54.4171 -6e-006 52.3948 43.2642 -5e-006 64.9439 10.5727 17.8793 57.3884 26.4267 -5e-006 64.0622 -5.2684 -4e-006 55.8875 -39.3183 17.8793 58.6407 -21.9731 -4e-006 48.4688 -51.1837 49.9547 34.9817 18.8685 50.2915 31.7842 -24.2242 -34.1029 39.2508 46.1618 -39.5504 49.6361 1.40121 -61.6286 22.4688 0.55845 -49.0954 35.3922 -16.8775 -36.8589 19.6067 61.4792 -56.526 12.3993 47.7182 -34.4812 40.0549 -41.8237 -50.2915 31.7842 -24.2242 -52.0122 30.4927 30.9742 -49.9548 34.9817 18.8685 -17.8794 58.6407 -21.9731 -17.8794 34.728 -62.1211 -17.8794 28.6655 63.4017 -38.0043 19.2788 -55.3903 -55.7782 12.39 -39.1194 -17.8794 57.3884 26.4267 -7e-006 51.5098 95.7255 17.8793 28.6656 63.4017 -6e-006 94.3408 40.6114 -5e-006 97.1284 -31.2131 -3e-006 61.7224 -91.0691 69.7918 47.417 66.8045 52.0122 30.4927 30.9742 56.526 12.3993 47.7182 36.8589 19.6067 61.4792 80.2332 60.1567 0.543985 39.5504 49.6361 1.40121 49.0954 35.3922 -16.8775 72.4713 45.4621 -58.9708 38.0043 19.2788 -55.3903 34.4812 40.0549 -41.8237 -69.7919 47.417 66.8045 -80.2332 60.1567 0.54399 -72.4713 45.4621 -58.9708 0 64.6539 2.21384 27.8801 -11.3158 76.5718 27.8801 -11.3158 76.5718 24.0943 22.3761 61.654 24.0943 22.3761 61.654 24.0943 22.3761 61.654 20.315 48.4891 47.7481 20.315 48.4891 47.7481 20.315 48.4891 47.7481 36.4678 49.5057 23.4052 36.4678 49.5057 23.4052 36.4678 49.5057 23.4052 36.4678 49.5057 23.4052 20.1121 60.7988 2.22006 20.1121 60.7988 2.22006 14.5547 8.94938 74.2925 14.5547 8.94938 74.2925 14.5547 8.94938 74.2925 18.6099 52.1777 -44.7833 18.6099 52.1777 -44.7833 18.6099 52.1777 -44.7833 12.2038 19.0296 -75.3752 12.2038 19.0296 -75.3752 12.2038 19.0296 -75.3752 35.2762 51.4458 -20.0089 35.2762 51.4458 -20.0089 35.2762 51.4458 -20.0089 26.1953 24.4922 -59.6806 26.1953 24.4922 -59.6806 26.1953 24.4922 -59.6806 44.0625 5.61445 -51.4368 44.0625 5.61445 -51.4368 44.0625 5.61445 -51.4368 61.2165 -7.46824 -37.742 61.2165 -7.46824 -37.742 61.2165 -7.46824 -37.742 21.863 0.09891 -80.0448 60.081 16.498 19.4839 60.081 16.498 19.4839 60.081 16.498 19.4839 61.5608 4.39308 39.5066 61.5608 4.39308 39.5066 43.5875 -6.03073 -64.447 43.5875 -6.03073 -64.447 67.2262 -4.93715 -0.715447 67.2262 -4.93715 -0.715447 67.2262 -4.93715 -0.715447 57.4036 18.8858 -18.8529 57.4036 18.8858 -18.8529 57.4036 18.8858 -18.8529 57.4036 18.8858 -18.8529 48.7794 -5.40273 64.2281 48.7794 -5.40273 64.2281 0 33.6767 65.6669 0 39.883 -64.2693 0 64.8248 -23.5896 0 63.5193 28.2147 51.2917 27.2495 -40.4715 47.7982 26.8521 47.8537 54.354 37.0795 0.979829 -20.315 48.4891 47.7481 -20.315 48.4891 47.7481 -20.315 48.4891 47.7481 -36.4678 49.5057 23.4052 -36.4678 49.5057 23.4052 -36.4678 49.5057 23.4052 -36.4678 49.5057 23.4052 -24.0943 22.3761 61.654 -24.0943 22.3761 61.654 -24.0943 22.3761 61.654 -47.7982 26.8521 47.8537 -27.8801 -11.3158 76.5718 -49.1645 -5.40273 65.7164 -49.1645 -5.40273 65.7164 -20.1121 60.7988 2.22006 -20.1121 60.7988 2.22006 -35.2762 51.4458 -20.0089 -35.2762 51.4458 -20.0089 -35.2762 51.4458 -20.0089 -44.0625 5.61445 -51.4368 -44.0625 5.61445 -51.4368 -44.0625 5.61445 -51.4368 -61.2165 -7.46824 -37.742 -61.2165 -7.46824 -37.742 -61.2165 -7.46824 -37.742 -43.5875 -6.03073 -64.447 -43.5875 -6.03073 -64.447 -14.5547 8.94938 74.2925 -14.5547 8.94938 74.2925 -14.5547 8.94938 74.2925 -12.2038 19.0296 -75.3752 -12.2038 19.0296 -75.3752 -12.2038 19.0296 -75.3752 -18.6099 52.1777 -44.7833 -18.6099 52.1777 -44.7833 -18.6099 52.1777 -44.7833 -26.1953 24.4922 -59.6806 -26.1953 24.4922 -59.6806 -26.1953 24.4922 -59.6806 -51.2917 27.2495 -40.4715 -60.081 16.498 19.4839 -60.081 16.498 19.4839 -60.081 16.498 19.4839 -61.5608 4.39308 39.5066 -61.5608 4.39308 39.5066 -67.2262 -4.93715 -0.715447 -67.2262 -4.93715 -0.715447 -67.2262 -4.93715 -0.715447 -57.4036 18.8858 -18.8529 -57.4036 18.8858 -18.8529 -57.4036 18.8858 -18.8529 -57.4036 18.8858 -18.8529 -21.863 0.09891 -80.0448 -21.863 0.09891 -80.0448 -54.354 37.0795 0.979829</float_array>
                    <technique_common>
                        <accessor count="343" source="#ID12" stride="3">
                            <param name="X" type="float"/>
                            <param name="Y" type="float"/>
                            <param name="Z" type="float"/>
                        </accessor>
                    </technique_common>
                </source>
                <source id="ID13">
                    <float_array id="ID14" count="975">0.630446 -0.753936 0.18471 0.0758649 -0.930027 -0.359576 0.389078 -0.879668 0.273499 -0.119512 -0.938548 0.323798 0.353816 -0.380348 0.854488 0.0663359 -0.440411 0.895342 0.352611 0.365986 0.861232 0.0910997 -0.168864 0.98142 0.394863 0.591539 0.702968 -6.76178e-007 0.626359 0.779535 0.30428 0.940563 -0.150846 0 0.999783 0.0208205 -0.265312 0.887374 -0.377063 -0.39548 0.591833 0.702374 -0.0787681 -0.255321 0.963642 -0.352686 0.36705 0.860748 -0.0663341 -0.440412 0.895342 -0.353815 -0.380347 0.854489 0.119512 -0.938547 0.323799 -0.389078 -0.879668 0.273501 -0.0758646 -0.930027 -0.359575 -0.630446 -0.753936 0.18471 -0.0278392 -0.994884 -0.0971165 -0.67702 -0.680502 0.280288 -0.643939 -0.724303 0.246429 -0.974169 0.094131 0.205268 -0.985381 0.169066 0.0210104 -0.604245 0.782278 -0.151424 -0.638988 0.750291 -0.169582 -0.0147522 0.99328 -0.114796 -0.622078 0.743401 -0.245711 -0.62068 0.709138 -0.334485 -0.933028 0.00386319 -0.359784 -0.813167 0.0109881 -0.581926 -0.465024 -0.82231 -0.327962 -0.410295 -0.676974 -0.611036 0.0197451 -0.978935 -0.203217 -0.196725 -0.607188 -0.769819 5.11681e-008 -0.988112 -0.153737 2.16258e-007 -0.586848 -0.809697 0.196725 -0.607189 -0.769819 8.41446e-008 0.00734224 -0.999973 0.39075 0.258772 -0.883375 0.00589538 0.915241 -0.402864 0.33265 0.830501 -0.44678 0.0230524 0.989856 -0.140192 0.579758 0.661249 -0.476057 0.62068 0.709138 -0.334484 0.813167 0.0109879 -0.581926 0.933028 0.00386316 -0.359784 0.465024 -0.82231 -0.327962 0.649498 -0.745104 -0.151567 -0.0654742 -0.991621 0.111358 0.561523 -0.824923 0.0647645 0.64394 -0.724303 0.246429 0.992118 -0.0235198 -0.123083 0.98538 0.169068 0.0210103 0.638987 0.750292 -0.169582 0.604244 0.782279 -0.151424 0.0550829 0.983534 -0.172123 -0.242092 0.962021 0.126121 0.579103 0.81021 0.0905558 0.493791 0.698663 0.517727 0.886594 0.0397786 0.460834 0.695796 -0.0392976 0.717164 0.552462 -0.300317 0.777557 -8.7193e-007 -0.932131 -0.362121 0.0278398 -0.994884 -0.0971163 -0.0197448 -0.978935 -0.203217 0.410294 -0.676974 -0.611035 0.629165 -0.0353799 -0.776466 -0.886594 0.0397782 0.460835 -0.579102 0.81021 0.0905558 -0.49379 0.698662 0.517727 0.242093 0.962021 0.126121 -0.140246 0.567257 0.811511 0.26225 0.916083 0.303343 -0.219882 0.519822 0.825492 -0.241635 0.963262 0.117211 -1 3.06955e-007 1.14422e-009 -0.951057 -0.309015 -0.00115188 -0.912253 -0.409624 -0.00152692 -0.671297 -0.741183 -0.00276285 -0.496796 -0.867861 -0.00323493 -0.10715 -0.994236 -0.00370587 0.107922 -0.994152 -0.00370556 0.497256 -0.867598 -0.00323397 0.67148 -0.741017 -0.00276229 0.912253 -0.409624 -0.00152697 0.951057 -0.309015 -0.00115192 1 3.06955e-007 1.14422e-009 0.677021 -0.680501 0.280288 -0.149692 -0.830527 0.536487 0.364733 0.913653 -0.179468 0.281804 0.959109 0.0263835 -9.04765e-009 0.982797 -0.184689 3.79369e-009 0.999685 0.0251145 -0.281804 0.959109 0.0263835 0 0.967388 0.253301 -0.375655 0.894927 0.24081 -0.194452 0.864701 0.463121 0.180665 -0.852784 0.49002 0.0654744 -0.991621 0.111358 -0.561523 -0.824923 0.0647644 -0.992118 -0.0235201 -0.123082 -0.649498 -0.745104 -0.151567 -0.39075 0.258772 -0.883375 -0.629166 -0.0353791 -0.776466 -0.579759 0.661249 -0.476057 -0.055083 0.983534 -0.172122 -0.552464 -0.300318 0.777555 -0.695796 -0.0393002 0.717164 -0.33265 0.830501 -0.44678 -0.270746 -0.890546 -0.365547 -0.347597 -0.935363 0.0653598 -0.196691 -0.979622 0.0406633 -0.296247 -0.853532 0.428628 0.00474222 -0.8589 0.512121 -0.25611 -0.736224 0.626404 -3.08089e-008 -0.760426 0.649424 -0.784259 -0.476093 0.397836 -0.89986 -0.433364 0.0494712 -0.916584 -0.399072 0.0248063 -0.857802 -0.371959 -0.354714 -0.822074 -0.33664 -0.459203 -0.717058 -0.297238 -0.630457 -0.745208 -0.286585 -0.602108 0.25611 -0.736224 0.626404 0.289672 -0.859097 0.421952 0.209249 -0.977026 0.040442 0.325544 -0.943265 0.0653633 0.263127 -0.895683 -0.358492 0.1943 0.980627 -0.0248576 -0.192201 0.944627 0.265966 0.974169 0.0941318 0.205268 0.00525968 -0.877925 -0.478769 -0.114467 -0.706807 -0.698084 0.89986 -0.433363 0.0494712 0.784259 -0.476093 0.397836 0.916584 -0.399072 0.0248063 0.785529 -0.387276 0.48266 0.926934 -0.238816 0.289413 0.714878 -0.294992 0.633979 -0.926705 -0.277291 -0.253629 -0.926934 -0.238815 0.289413 -0.785529 -0.387276 0.48266 -0.640153 -0.389871 0.66197 0.220644 0.519312 0.82561 0.140245 0.567258 0.811511 0.857802 -0.371959 -0.354714 0.822074 -0.33664 -0.459203 0.717058 -0.297238 -0.630457 0.745208 -0.286585 -0.602108 -8.10819e-008 -0.380767 -0.924671 0.911337 0.280752 -0.30107 -1.45978e-007 0.681998 -0.731354 -4.0541e-008 0.948979 0.315338 -0.911337 0.280752 -0.30107 -0.841632 0.509755 0.178343 -0.702226 0.654249 0.280779 -0.677532 0.531315 0.508582 -0.484055 0.61787 0.619619 -0.376553 0.469009 0.798898 -0.858723 0.208687 -0.468022 -0.631768 0.171978 -0.755839 -0.746955 0.433408 -0.504199 -0.540374 0.364604 -0.758327 -0.549948 0.625218 -0.553768 -0.61819 0.400684 0.676235 -0.849286 0.386956 0.359136 -0.257956 -0.353312 -0.899238 -0.867181 0.122567 0.482674 0.427452 -0.758137 0.492457 2.83787e-007 0.192843 -0.98123 0.911337 0.400287 -0.0961005 0 0.97237 -0.233446 -2.83787e-007 0.617294 0.786733 -0.911337 0.400287 -0.096101 0 -0.433286 -0.901256 -0.784606 -0.382747 0.487747 0.784654 -0.382612 0.487777 0.259099 -0.353271 -0.898926 -0.429015 -0.758036 0.491251 0.867181 0.122567 0.482674 0.114467 -0.706807 -0.698084 0.0185736 -0.111424 -0.993599 0.254806 0.92798 -0.271896 -0.715573 0.503535 -0.484157 -0.607721 0.525996 0.594982 -0.850991 -0.508456 -0.131483 0.607721 0.525996 0.594982 -0.254806 0.92798 -0.271896 0.715573 0.503535 -0.484157 -0.0185739 -0.111424 -0.993599 0.85099 -0.508456 -0.131483 -0.911337 0.384319 0.147526 1.21623e-007 0.714701 -0.69943 -3.89276e-007 0.933581 0.358368 0.911337 0.384319 0.147526 -4.4595e-007 0.0631169 0.998006 0.297475 0.270157 -0.915709 0.896371 -0.442503 -0.0266314 0.775824 0.630847 -0.0114079 0.341278 0.249234 0.906318 -0.249988 0.968097 0.0171268 0.649909 0.510068 -0.563427 0.849 -0.461693 0.256978 0.640613 0.565097 0.519884 -0.122478 -0.0448112 0.991459 -0.31527 0.932508 0.176166 -0.297476 0.270157 -0.915709 0.249988 0.968098 0.0171271 -0.775824 0.630846 -0.0114074 -0.341278 0.249233 0.906318 -0.896371 -0.442504 -0.0266312 0.315269 0.932508 0.176167 0.122477 -0.0448109 0.991459 -0.640613 0.565097 0.519884 -0.849 -0.461693 0.256978 -0.649908 0.510068 -0.563427 -0.911337 0.237588 0.336179 -4.86492e-007 0.982835 -0.184487 -1.26515e-006 0.577145 0.816642 0.911337 0.237588 0.33618 -5.67573e-007 -0.501982 0.864878 0.779199 0.516952 -0.354414 0.706813 0.685931 -0.172956 0.659162 0.744288 -0.107428 0.567952 0.822789 0.0211805 0.548318 0.835972 0.0223086 -0.734969 0.491709 -0.466951 -0.673189 0.472424 -0.568887 -0.64238 0.469577 -0.605677 -0.589273 0.453532 -0.66863 -0.576809 0.460704 -0.674569 0.622077 0.743401 -0.245711 0.947189 0.295232 -0.125185 0.954465 0.294365 -0.0484382 0.921369 0.379865 0.0823541 0.890094 0.4157 0.186885 0.784269 0.521041 0.336806 0 -0.00737 0.999973 0 -0.00737 0.999973 0 -0.00615602 0.999981 0 -0.00494204 0.999988 0 -0.00372728 0.999993 0.184658 0.644413 0.742047 0.359924 0.484211 0.797493 -5.26939e-009 0.536961 0.843607 0.185092 0.419023 0.88891 -0.185092 0.419023 0.88891 0.702226 0.654249 0.280778 0.841632 0.509755 0.178343 0.678505 0.522368 0.516491 0.845955 0.378954 0.375173 0.616199 0.371341 0.694554 0.245215 0.563601 -0.788811 0.453329 0.566364 -0.688277 2.1728e-008 0.651608 -0.758556 0.226157 0.711729 -0.665053 -0.226157 0.711729 -0.665053 0.631768 0.171978 -0.755839 0.858723 0.208687 -0.468022 0.746955 0.433408 -0.504199 0.904025 0.416956 -0.0942715 0.729097 0.653787 -0.202435 0.375655 0.894927 0.24081 0.194452 0.864701 0.463121 0.926705 -0.277291 -0.253629 0.640153 -0.389871 0.66197 -0.714878 -0.294992 0.633979 -0 0.239487 -0.9709 0 0.239487 -0.9709 0 0.111767 0.993734 0 0.111767 0.993734 0 -0.00372576 0.999993 0 -0.0037269 0.999993 0.484055 0.61787 0.619619 0.383615 0.45178 0.80544 0 0.00372727 -0.999993 0 0.00372791 -0.999993 0 0.00372775 -0.999993 0 0.00372824 -0.999993 0.540374 0.364604 -0.758327 0.549948 0.625218 -0.553768 0 -0.400541 -0.916279 0 -0.400541 -0.916279 0 -0.400541 -0.916279 0.187965 0.907221 -0.376324 -0.187965 0.907221 -0.376324 -0.364733 0.913653 -0.179468 -0.245215 0.563601 -0.788811 -0.453329 0.566364 -0.688277 0.734969 0.491709 -0.466951 0.64238 0.469577 -0.605677 0.673189 0.472424 -0.568887 0.589273 0.453532 -0.66863 -0.184658 0.644413 0.742047 -0.359924 0.484211 0.797493 -0.904025 0.416956 -0.0942715 -0.729097 0.653787 -0.202435 -0.319934 0.413405 0.852489 -0.398821 0.408364 0.821085 -0.474823 0.400369 0.78374 -0.779199 0.516952 -0.354414 -0.659162 0.744288 -0.107428 -0.706813 0.685931 -0.172956 -0.567952 0.822789 0.0211805 -0.947189 0.295232 -0.125185 -0.921369 0.379865 0.0823541 -0.954465 0.294365 -0.0484382 -0.890094 0.4157 0.186885 0.374946 0.410224 0.831343 0.425542 0.405923 0.80879 0.474823 0.400369 0.78374 -0.548318 0.835972 0.0223086 -0.740792 0.486854 -0.462818 0.576809 0.460704 -0.674569 -0.965601 0.247895 0.078504 -0.949965 0.260727 -0.17201 -0.784269 0.521041 0.336806 0.740792 0.486854 -0.462818 0.965601 0.247895 0.078504 0.949965 0.260727 -0.17201 0 0.00372824 -0.999993</float_array>
                    <technique_common>
                        <accessor count="325" source="#ID14" stride="3">
                            <param name="X" type="float"/>
                            <param name="Y" type="float"/>
                            <param name="Z" type="float"/>
                        </accessor>
                    </technique_common>
                </source>
                <source id="ID15">
                    <float_array id="ID16" count="384">0.660736 0.969543 0.59549 0.97229 0.604279 0.981262 0.55603 0.985962 0.599152 0.995331 0.55603 0.997681 0.519073 0.997681 0.519073 0.985962 0.50061 0.985962 0.519073 0.980682 0.50061 0.980377 0.482117 0.980682 0.482117 0.985962 0.482117 0.997681 0.44516 0.985962 0.44516 0.997681 0.402039 0.995331 0.396912 0.981262 0.405701 0.97229 0.340454 0.969543 0.343384 0.955475 0.300354 0.950409 0.285034 0.920319 0.260376 0.941437 0.254242 0.920319 0.285034 0.901581 0.313629 0.901581 0.297333 0.875793 0.328156 0.857056 0.266541 0.871124 0.303497 0.850006 0.371246 0.840637 0.38974 0.850006 0.426697 0.831268 0.50061 0.835938 0.50061 0.824249 0.574524 0.831268 0.50061 0.8125 0.592987 0.81955 0.594421 0.831268 0.687561 0.901581 0.640198 0.840637 0.673065 0.857056 0.697693 0.850006 0.73465 0.871124 0.703857 0.875793 0.673065 0.880493 0.716156 0.901581 0.716156 0.920319 0.746979 0.901581 0.746979 0.920319 0.67334 0.935059 0.650604 0.952759 0.710022 0.939087 0.685364 0.960175 0.716156 0.964874 0.685364 0.976563 0.648407 0.987549 0.50061 0.976563 0.657837 0.955475 0.61145 0.850006 0.629944 0.840637 0.648407 0.831268 0.285034 0.964874 0.291199 0.939087 0.315826 0.960175 0.350586 0.952759 0.38858 0.967712 0.371246 0.97818 0.44516 0.977631 0.121521 0.748383 0.121521 0.744934 0.00720215 0.744446 0.121643 0.71759 0.0072937 0.717102 0.121765 0.68869 0.00741577 0.688202 0.121887 0.65976 0.00753784 0.659302 0.121979 0.631256 0.00762939 0.630768 0.122009 0.627136 0.700867 0.950409 0.247498 0.934387 0.186218 0.881256 0.124969 0.9375 0.124969 0.881256 0.0636902 0.881256 0.124969 0.936768 0.00244141 0.934387 0.0621033 0.881042 0.328156 0.880493 0.254242 0.901581 0.408203 0.81955 0.352783 0.831268 0.360992 0.840637 0.32785 0.935059 0.352783 0.987549 0.315826 0.976563 0.406769 0.831268 0.707703 0.669098 0.740021 0.720459 0.569641 0.720154 0.712708 0.770264 0.50061 0.773743 0.629852 0.805664 0.50061 0.805664 0.212921 0.523254 0.305328 0.50589 0.307037 0.5625 0.397339 0.511932 0.38736 0.564117 0.471832 0.546814 0.499237 0.602112 0.371368 0.805664 0.288483 0.770264 0.431549 0.720154 0.261169 0.720459 0.293488 0.669098 0.55603 0.977631 0.61261 0.967712 0.740814 0.941437 0.50061 0.662354 0.62085 0.630157 0.227234 0.572937 0.23349 0.625 0.136993 0.615448 0.370972 0.62326 0.122955 0.553467 0.629944 0.97818 0.247498 0.632813 0.186218 0.632813 0.186218 0.75 0.124969 0.632813 0.0636902 0.8815 0.186218 0.8815 0.189087 0.881256 0.0608215 0.881256 0.0582581 0.851379 0.00234985 0.851379 0.030304 0.859589 0.030304 0.873993 0.380341 0.630157 0.216858 0.632813 0.155579 0.632813 0.00244141 0.9375 0.0636902 0.882813 0.243988 0.9375 0.182739 0.882813 0.206635 0.981262 0.247498 0.939087 0.124969 0.993774 0.00244141 0.939087 0.0432739 0.981262 0.247498 0.9375 0.185364 0.881714 0.00418091 0.9375 0.00802612 0.828888 0.241913 0.828888 0.00802612 0.800537 0.241913 0.800537 0.0526428 0.767975 0.192719 0.880981 0.247437 0.936371 0.125214 0.9375 0.189911 0.882843 0.0599976 0.882843 0.19046 0.881256 0.247498 0.932587 0.124969 0.935699 0.0594482 0.881256 0.187805 0.881042 0.186218 0.993774 0.0636902 0.993774 0.0636902 0.995361 0.186218 0.995361 0.125061 0.756042 0.197266 0.767975 0.125061 0.756165 0.197266 0.768097 0.0526428 0.768097 0.00802612 0.800659 0.0151367 0.50238 0.112274 0.50238 0.00415039 0.610962 0.12326 0.610962 0.00244141 0.932587 0.0572205 0.880981 0.00250244 0.936371 0.0636902 0.990631 0.186218 0.990631 0.241913 0.800659</float_array>
                    <technique_common>
                        <accessor count="192" source="#ID16" stride="2">
                            <param name="S" type="float"/>
                            <param name="T" type="float"/>
                        </accessor>
                    </technique_common>
                </source>
                <vertices id="ID17">
                    <input semantic="POSITION" source="#ID11"/>
                </vertices>
                <triangles count="388" material="Material1">
                    <input offset="0" semantic="VERTEX" source="#ID17"/>
                    <input offset="1" semantic="NORMAL" source="#ID13"/>
                    <input offset="2" semantic="TEXCOORD" source="#ID15" set="0"/>
                    <p>175 2 2 176 1 1 104 0 0 176 1 1 175 2 2 94 3 3 92 4 4 94 3 3 175 2 2 94 3 3 92 4 4 91 5 5 103 6 3 91 5 5 92 4 4 91 5 5 103 6 3 167 7 6 166 8 7 167 7 6 103 6 3 167 7 6 166 8 7 79 9 8 165 10 9 79 9 8 166 8 7 79 9 8 165 10 9 80 11 10 164 12 11 80 11 10 165 10 9 80 11 10 164 12 11 79 9 8 163 13 12 79 9 8 164 12 11 79 9 8 163 13 12 162 14 13 137 15 14 162 14 13 163 13 12 162 14 13 137 15 14 127 16 15 129 17 16 127 16 15 137 15 14 127 16 15 129 17 16 130 18 14 173 19 17 130 18 14 129 17 16 130 18 14 173 19 17 174 20 18 140 21 19 174 20 18 173 19 17 174 20 18 140 21 19 159 22 20 126 23 21 159 22 20 140 21 19 159 22 20 126 23 21 146 24 22 125 25 23 146 24 22 126 23 21 146 24 22 125 25 23 145 26 24 147 27 22 145 26 24 125 25 23 145 26 24 147 27 22 151 28 25 152 29 26 151 28 25 147 27 22 151 28 25 152 29 26 134 30 27 133 31 28 134 30 27 152 29 26 134 30 27 133 31 28 123 32 29 121 33 30 123 32 29 133 31 28 123 32 29 121 33 30 122 34 28 117 35 31 122 34 28 121 33 30 122 34 28 117 35 31 156 36 32 119 37 33 156 36 32 117 35 31 156 36 32 119 37 33 169 38 34 171 39 35 169 38 34 119 37 33 169 38 34 171 39 35 83 40 36 172 41 37 83 40 36 171 39 35 83 40 36 172 41 37 81 42 38 177 43 35 81 42 38 172 41 37 81 42 38 177 43 35 95 44 39 113 45 40 95 44 39 177 43 35 95 44 39 113 45 40 96 46 41 98 47 42 96 46 41 113 45 40 96 46 41 98 47 42 88 48 43 87 49 44 88 48 43 98 47 42 88 48 43 87 49 44 86 50 42 85 51 45 86 50 42 87 49 44 86 50 42 85 51 45 158 52 46 114 53 47 158 52 46 85 51 45 158 52 46 114 53 47 110 54 48 115 55 49 110 54 48 114 53 47 110 54 48 115 55 49 111 56 50 116 57 47 111 56 50 115 55 49 111 56 50 116 57 47 112 58 48 113 45 40 112 58 48 116 57 47 112 58 48 113 45 40 101 59 51 109 60 52 101 59 51 113 45 40 101 59 51 109 60 52 99 61 53 108 62 54 99 61 53 109 60 52 99 61 53 108 62 54 107 63 55 105 64 56 107 63 55 108 62 54 107 63 55 105 64 56 104 0 0 93 65 57 104 0 0 105 64 56 104 0 0 93 65 57 175 2 2 92 4 4 175 2 2 93 65 57 159 22 20 170 66 58 174 20 18 170 66 58 159 22 20 160 67 59 169 38 34 160 67 59 159 22 20 160 67 59 169 38 34 158 52 46 157 68 60 158 52 46 169 38 34 158 52 46 157 68 60 86 50 42 84 69 61 86 50 42 157 68 60 86 50 42 84 69 61 88 48 43 82 70 62 88 48 43 84 69 61 88 48 43 82 70 62 96 46 41 81 42 38 96 46 41 82 70 62 96 46 41 81 42 38 95 44 39 142 71 63 125 25 23 126 23 21 125 25 23 142 71 63 135 72 64 143 73 65 135 72 64 142 71 63 135 72 64 143 73 65 144 74 66 141 75 19 144 74 66 143 73 65 144 74 66 141 75 19 154 76 67 136 77 68 154 76 67 141 75 19 154 76 67 136 77 68 138 78 69 137 15 14 138 78 69 136 77 68 138 78 69 137 15 14 163 13 12 26 81 72 25 80 71 29 79 70 25 80 71 26 81 72 20 82 73 22 83 74 20 82 73 26 81 72 20 82 73 22 83 74 12 84 75 14 85 76 12 84 75 22 83 74 12 84 75 14 85 76 16 86 77 18 87 78 16 86 77 14 85 76 16 86 77 18 87 78 34 88 79 32 89 80 34 88 79 18 87 78 34 88 79 32 89 80 30 90 81 104 0 0 90 91 82 107 63 55 90 91 82 104 0 0 160 67 59 176 1 1 160 67 59 104 0 0 160 67 59 176 1 1 170 66 58 94 3 3 170 66 58 176 1 1 170 66 58 94 3 3 168 92 7 91 5 5 168 92 7 94 3 3 168 92 7 91 5 5 167 7 6 283 95 85 241 94 84 252 93 83 241 94 84 283 95 85 228 96 86 303 97 87 228 96 86 283 95 85 228 96 86 303 97 87 284 98 88 291 99 89 284 98 88 303 97 87 284 98 88 291 99 89 288 100 90 162 14 13 167 7 6 79 9 8 167 7 6 162 14 13 168 92 7 161 101 12 168 92 7 162 14 13 168 92 7 161 101 12 170 66 58 130 18 14 170 66 58 161 101 12 170 66 58 130 18 14 174 20 18 146 24 22 155 102 91 159 22 20 155 102 91 146 24 22 150 103 25 149 104 92 150 103 25 146 24 22 150 103 25 149 104 92 124 105 27 123 32 29 124 105 27 149 104 92 124 105 27 123 32 29 122 34 28 119 37 33 172 41 37 171 39 35 172 41 37 119 37 33 120 106 93 118 107 94 120 106 93 119 37 33 120 106 93 118 107 94 132 108 95 121 33 30 132 108 95 118 107 94 132 108 95 121 33 30 133 31 28 135 72 64 147 27 22 125 25 23 147 27 22 135 72 64 148 109 96 144 74 66 148 109 96 135 72 64 148 109 96 144 74 66 152 29 26 154 76 67 152 29 26 144 74 66 152 29 26 154 76 67 138 78 69 136 77 68 129 17 16 137 15 14 129 17 16 136 77 68 128 110 97 141 75 19 128 110 97 136 77 68 128 110 97 141 75 19 139 111 98 143 73 65 139 111 98 141 75 19 139 111 98 143 73 65 142 71 63 152 29 26 132 108 95 133 31 28 132 108 95 152 29 26 131 112 99 177 43 35 131 112 99 152 29 26 131 112 99 177 43 35 120 106 93 172 41 37 120 106 93 177 43 35 77 115 102 73 114 101 62 113 100 73 114 101 77 115 102 69 116 103 37 117 104 69 116 103 77 115 102 69 116 103 37 117 104 54 118 105 50 119 106 54 118 105 37 117 104 63 122 109 74 121 108 70 120 107 74 121 108 63 122 109 61 123 110 65 124 111 61 123 110 63 122 109 61 123 110 65 124 111 58 125 112 56 126 113 58 125 112 65 124 111 37 117 104 42 127 114 50 119 106 42 127 114 37 117 104 71 128 115 78 129 116 71 128 115 37 117 104 71 128 115 78 129 116 75 130 117 39 131 118 75 130 117 78 129 116 102 132 119 152 29 26 138 78 69 152 29 26 102 132 119 177 43 35 153 133 120 177 43 35 102 132 119 177 43 35 153 133 120 113 45 40 109 60 52 113 45 40 153 133 120 110 54 48 160 67 59 158 52 46 160 67 59 110 54 48 90 91 82 89 134 121 90 91 82 110 54 48 90 91 82 89 134 121 107 63 55 99 61 53 107 63 55 89 134 121 77 115 102 78 129 116 37 117 104 78 129 116 77 115 102 36 135 122 62 113 100 36 135 122 77 115 102 36 135 122 62 113 100 59 136 123 53 139 109 72 138 107 76 137 108 72 138 107 53 139 109 40 140 124 52 141 125 40 140 124 53 139 109 40 140 124 52 141 125 49 142 126 63 122 109 68 144 125 67 143 127 68 144 125 63 122 109 64 145 124 70 120 107 64 145 124 63 122 109 64 145 124 70 120 107 55 146 128 164 12 11 138 78 69 163 13 12 138 78 69 164 12 11 102 132 119 165 10 9 102 132 119 164 12 11 102 132 119 165 10 9 166 8 7 103 6 3 102 132 119 166 8 7 102 132 119 103 6 3 100 147 129 92 4 4 100 147 129 103 6 3 100 147 129 92 4 4 93 65 57 100 147 129 153 133 120 102 132 119 153 133 120 100 147 129 106 148 0 93 65 57 106 148 0 100 147 129 106 148 0 93 65 57 105 64 56 38 149 110 53 139 109 76 137 108 53 139 109 38 149 110 46 150 111 43 151 112 46 150 111 38 149 110 46 150 111 43 151 112 47 152 113 214 155 132 181 154 131 182 153 130 181 154 131 214 155 132 191 156 133 205 157 131 191 156 133 214 155 132 298 160 85 292 159 135 329 158 134 292 159 135 298 160 85 289 161 83 295 162 84 289 161 83 298 160 85 327 165 85 308 164 136 310 163 83 308 164 136 327 165 85 324 166 137 321 167 89 324 166 137 327 165 85 298 160 85 301 168 87 295 162 84 301 168 87 298 160 85 331 169 89 329 158 134 331 169 89 298 160 85 3 170 140 2 170 139 0 170 138 2 171 139 3 171 140 1 171 141 0 172 138 1 172 141 3 172 140 213 175 132 190 174 131 189 173 130 190 174 131 213 175 132 188 176 133 204 177 131 188 176 133 213 175 132 7 178 140 6 178 139 4 178 138 6 179 139 7 179 140 5 179 141 4 180 138 5 180 141 7 180 140 11 181 140 10 181 139 8 181 138 10 182 139 11 182 140 9 182 141 8 183 138 9 183 141 11 183 140 36 135 122 39 131 118 78 129 116 39 131 118 36 135 122 45 184 142 59 136 123 45 184 142 36 135 122 227 187 132 200 186 131 207 185 130 200 186 131 227 187 132 201 188 133 208 189 131 201 188 133 227 187 132 222 192 132 224 191 131 193 190 133 224 191 131 222 192 132 223 193 130 180 194 131 223 193 130 222 192 132 212 197 132 186 196 130 209 195 131 186 196 130 212 197 132 187 198 131 185 199 133 187 198 131 212 197 132 219 202 132 179 201 131 221 200 130 179 201 131 219 202 132 192 203 133 220 204 131 192 203 133 219 202 132 215 207 132 217 206 131 216 205 130 217 206 131 215 207 132 218 208 133 178 209 131 218 208 133 215 207 132 226 212 132 195 211 131 197 210 130 195 211 131 226 212 132 203 213 133 196 214 131 203 213 133 226 212 132 225 217 132 198 216 144 194 215 143 198 216 144 225 217 132 199 218 144 202 219 143 199 218 144 225 217 132 210 222 132 184 221 130 206 220 131 184 221 130 210 222 132 211 223 131 183 224 133 211 223 131 210 222 132 253 227 146 287 226 85 277 225 145 287 226 85 253 227 146 239 228 147 242 229 148 239 228 147 253 227 146 325 232 151 314 231 150 309 230 149 314 231 150 325 232 151 340 233 152 319 234 153 340 233 152 325 232 151 97 235 45 98 47 42 113 45 40 98 47 42 97 235 45 87 49 44 115 55 49 87 49 44 97 235 45 287 238 85 274 237 155 278 236 154 274 237 155 287 238 85 267 239 87 240 240 156 267 239 87 287 238 85 155 102 91 169 38 34 159 22 20 169 38 34 155 102 91 156 36 32 122 34 28 156 36 32 155 102 91 106 148 0 109 60 52 153 133 120 109 60 52 106 148 0 108 62 54 105 64 56 108 62 54 106 148 0 140 21 19 142 71 63 126 23 21 142 71 63 140 21 19 139 111 98 128 110 97 139 111 98 140 21 19 24 243 159 31 242 158 28 241 157 31 242 158 24 243 159 35 244 160 21 245 161 35 244 160 24 243 159 281 248 164 233 247 163 235 246 162 233 247 163 281 248 164 245 249 165 316 250 166 245 249 165 281 248 164 286 253 85 266 252 134 238 251 135 266 252 134 286 253 85 268 254 89 280 255 87 268 254 89 286 253 85 282 258 169 257 257 168 251 256 167 257 257 168 282 258 169 248 259 167 323 260 170 248 259 167 282 258 169 285 263 85 261 262 83 259 261 136 261 262 83 285 263 85 276 264 136 254 265 137 276 264 136 285 263 85 83 40 36 157 68 60 169 38 34 157 68 60 83 40 36 84 69 61 82 70 62 84 69 61 83 40 36 284 98 88 241 94 84 228 96 86 241 94 84 284 98 88 237 266 83 236 267 171 237 266 83 284 98 88 161 101 12 127 16 15 130 18 14 127 16 15 161 101 12 162 14 13 116 57 47 97 235 45 113 45 40 97 235 45 116 57 47 115 55 49 134 30 27 149 104 92 151 28 25 149 104 92 134 30 27 123 32 29 145 26 24 149 104 92 146 24 22 149 104 92 145 26 24 151 28 25 53 139 109 51 268 127 52 141 125 51 268 127 53 139 109 46 150 111 40 140 124 41 269 128 72 138 107 41 269 128 40 140 124 49 142 126 155 102 91 124 105 27 122 34 28 124 105 27 155 102 91 150 103 25 65 124 111 67 143 127 56 126 113 67 143 127 65 124 111 63 122 109 173 19 17 128 110 97 140 21 19 128 110 97 173 19 17 129 17 16 99 61 53 112 58 48 101 59 51 112 58 48 99 61 53 89 134 121 85 51 45 115 55 49 114 53 47 115 55 49 85 51 45 87 49 44 64 145 124 66 270 126 68 144 125 66 270 126 64 145 124 55 146 128 117 35 31 118 107 94 119 37 33 118 107 94 117 35 31 121 33 30 111 56 50 89 134 121 110 54 48 89 134 121 111 56 50 112 58 48 318 271 172 264 271 152 341 271 150 264 271 152 318 271 172 250 272 173 230 273 150 317 273 174 299 273 152 317 273 174 230 273 150 244 274 175 17 276 177 21 245 161 13 275 176 21 245 161 17 276 177 35 244 160 234 277 83 286 253 85 238 251 135 286 253 85 234 277 83 231 278 84 23 281 180 19 280 179 15 279 178 19 280 179 23 281 180 27 282 181 255 283 137 285 263 85 259 261 136 285 263 85 255 283 137 246 284 89 57 286 184 44 286 183 60 285 182 44 286 183 57 286 184 48 287 185 247 288 84 283 95 85 252 93 83 283 95 85 247 288 84 322 289 87 283 95 85 304 290 89 303 97 87 304 290 89 283 95 85 322 289 87 320 291 170 282 258 169 251 256 167 282 258 169 320 291 170 326 292 186 271 295 150 256 294 151 260 293 149 256 294 151 271 295 150 264 296 152 290 297 187 281 248 164 235 246 162 281 248 164 290 297 187 297 298 188 337 299 136 327 165 85 310 163 83 327 165 85 337 299 136 306 300 137 299 302 152 296 302 172 300 301 150 296 302 172 299 302 152 315 303 189 342 306 85 305 305 146 338 304 145 305 305 146 342 306 85 293 307 147 335 310 155 342 309 85 339 308 154 342 309 85 335 310 155 330 311 87 232 313 172 229 313 152 279 312 150 229 313 152 232 313 172 243 314 189 148 109 96 152 29 26 147 27 22 302 315 148 305 305 146 293 307 147 307 316 189 313 316 152 311 316 190 249 317 153 256 294 151 264 296 152 328 318 189 334 318 152 332 318 190 336 319 189 312 319 152 333 319 190 330 311 87 294 320 156 342 309 85 258 321 189 262 321 190 270 321 152 82 70 62 83 40 36 81 42 38 265 322 189 269 322 190 273 322 152 275 323 189 272 323 190 263 323 152 214 155 132 182 153 130 205 157 131 213 175 132 189 173 130 204 177 131 212 197 132 209 195 131 185 199 133 210 222 132 206 220 131 183 224 133 225 217 132 194 215 143 202 219 143 46 150 111 47 152 113 51 268 127 226 212 132 197 210 130 196 214 131 215 207 132 216 205 130 178 209 131 219 202 132 221 200 130 220 204 131 222 192 132 193 190 133 180 194 131 227 187 132 207 185 130 208 189 131 321 167 89 327 165 85 306 300 137 281 248 164 297 298 188 316 250 166 326 292 186 323 260 170 282 258 169 284 98 88 288 100 90 236 267 171 246 284 89 254 265 137 285 263 85 231 278 84 280 255 87 286 253 85 27 282 181 33 324 191 19 280 179 132 108 95 131 112 99 120 106 93</p>
                </triangles>
            </mesh>
        </geometry>
    </library_geometries>
    <library_visual_scenes>
        <visual_scene id="ID8">
            <node id="ID9" name="n0b0">
                <translate sid="translate">0 0 -0</translate>
                <rotate sid="rotateY">0 1 0 -0</rotate>
                <rotate sid="rotateX">1 0 0 0</rotate>
                <rotate sid="rotateZ">0 0 1 -0</rotate>
                <scale sid="scale">1 1 1</scale>
                <instance_geometry url="#ID10">
                    <bind_material>
                        <technique_common>
                            <instance_material symbol="Material1" target="#ID3">
                                <bind_vertex_input semantic="UVSET0" input_semantic="TEXCOORD" input_set="0"/>
                            </instance_material>
                        </technique_common>
                    </bind_material>
                </instance_geometry>
            </node>
        </visual_scene>
    </library_visual_scenes>
    <scene>
        <instance_visual_scene url="#ID8"/>
    </scene>
</COLLADA>
