<?xml version="1.0" encoding="utf-8"?>
<COLLADA xmlns="http://www.collada.org/2005/11/COLLADASchema" version="1.4.1">
  <asset>
    <created>2025-06-14T06:18:53Z</created>
    <modified>2025-06-14T06:18:53Z</modified>
  </asset>
  <library_images>
    <image id="image-dosune_1">
      <init_from>dosune_1.png</init_from>
    </image>
  </library_images>
  <library_materials>
    <material id="material0" name="mat_dossun">
      <instance_effect url="#effect0"/>
    </material>
  </library_materials>
  <library_effects>
    <effect id="effect0" name="mat_dossun">
      <profile_COMMON>
        <newparam sid="Image-surface">
          <surface type="2D">
            <init_from>image-dosune_1</init_from>
            <format>A8R8G8B8</format>
          </surface>
        </newparam>
        <newparam sid="Image-sampler">
          <sampler2D>
            <source>Image-surface</source>
            <wrap_s>MIRROR</wrap_s>
            <wrap_t>WRAP</wrap_t>
            <minfilter>NEAREST</minfilter>
            <magfilter>NEAREST</magfilter>
            <mipfilter>NEAREST</mipfilter>
          </sampler2D>
        </newparam>
        <technique sid="common">
          <phong>
            <emission>
              <color>0 0 0 1</color>
            </emission>
            <ambient>
              <color>0.516129 0.516129 0.516129 1</color>
            </ambient>
            <diffuse>
              <texture texture="Image-sampler" texcoord="tc"/>
            </diffuse>
            <specular>
              <color>0 0 0 1</color>
            </specular>
          </phong>
        </technique>
      </profile_COMMON>
    </effect>
  </library_effects>
  <library_geometries>
    <geometry id="geometry" name="dossun">
      <mesh>
        <source id="positions">
          <float_array id="positions-array" count="972">13.636719 2.4980469 -11.169922 13.636719 2.4980469 11.169922 12.328125 6.048828 -14.378906 12.328125 6.048828 14.378906 8.46875 -0.125 -9.519531 8.46875 -0.125 9.519531 4.6132813 6.048828 -14.378906 4.6132813 6.048828 14.378906 0 -0.125 -9.519531 0 -0.125 9.519531 -4.6132813 6.048828 -14.378906 -4.6132813 6.048828 14.378906 -8.464844 -0.125 -9.519531 -8.464844 -0.125 9.519531 -12.328125 6.048828 -14.378906 -12.328125 6.048828 14.378906 -13.640625 2.4980469 -11.169922 -13.640625 2.4980469 11.169922 -19.916016 42.11914 11.169922 -19.916016 42.11914 -11.169922 -16.378906 40.621094 14.378906 -16.378906 40.621094 -14.378906 -22.47461 36.003906 9.519531 -22.47461 36.003906 -9.519531 -16.378906 30.701172 14.378906 -16.378906 30.701172 -14.378906 -23.341797 25.740234 9.519531 -23.341797 25.740234 -9.519531 -16.378906 20.779297 14.378906 -16.378906 20.779297 -14.378906 -22.47461 15.607422 9.519531 -22.47461 15.607422 -9.519531 -16.378906 10.857422 14.378906 -16.378906 10.857422 -14.378906 -19.916016 9.212891 11.169922 -19.916016 9.212891 -11.169922 19.835938 42.11914 -11.169922 19.835938 42.11914 11.169922 16.378906 40.621094 -14.378906 16.378906 40.621094 14.378906 22.47461 36.003906 -9.519531 22.47461 36.003906 9.519531 16.378906 30.701172 -14.378906 16.378906 30.701172 14.378906 23.341797 25.740234 -9.519531 23.341797 25.740234 9.519531 16.378906 20.779297 -14.378906 16.378906 20.779297 14.378906 22.47461 15.607422 -9.519531 22.47461 15.607422 9.519531 16.378906 10.857422 -14.378906 16.378906 10.857422 14.378906 19.835938 9.212891 -11.169922 19.835938 9.212891 11.169922 13.701172 48.98242 11.169922 13.701172 48.98242 -11.169922 12.328125 45.43164 14.378906 12.328125 45.43164 -14.378906 8.46875 51.603516 9.519531 8.46875 51.603516 -9.519531 4.6132813 45.43164 14.378906 4.6132813 45.39258 -14.378906 0 52.34375 9.519531 0 52.34375 -9.519531 -4.6132813 45.43164 14.378906 -4.6132813 45.43164 -14.378906 -8.464844 51.603516 9.519531 -8.464844 51.603516 -9.519531 -12.328125 45.43164 14.378906 -12.328125 45.43164 -14.378906 -13.638672 48.98242 11.169922 -13.638672 48.98242 -11.169922 -13.345703 41.847656 17.976563 -13.345703 9.630859 17.976563 0 25.740234 21.164063 13.345703 9.630859 17.976563 13.345703 41.847656 17.976563 13.701172 48.98242 11.169922 12.328125 45.43164 14.378906 20.78711 50.0625 9.548828 16.378906 40.621094 14.378906 19.835938 42.11914 11.169922 -19.916016 42.11914 11.169922 -16.378906 40.621094 14.378906 -20.785156 50.0625 9.548828 -12.328125 45.43164 14.378906 -13.638672 48.98242 11.169922 -13.638672 48.98242 -11.169922 -12.328125 45.43164 -14.378906 -20.785156 50.0625 -9.548828 -16.378906 40.621094 -14.378906 -19.916016 42.11914 -11.169922 -19.916016 9.212891 -11.169922 -16.378906 10.857422 -14.378906 -20.785156 1.3769531 -9.548828 -12.328125 6.048828 -14.378906 -13.640625 2.4980469 -11.169922 13.636719 2.4980469 -11.169922 12.328125 6.048828 -14.378906 20.78711 1.3769531 -9.548828 16.378906 10.857422 -14.378906 19.835938 9.212891 -11.169922 19.835938 42.11914 -11.169922 16.378906 40.621094 -14.378906 20.78711 50.0625 -9.548828 12.328125 45.43164 -14.378906 13.701172 48.98242 -11.169922 -13.640625 2.4980469 11.169922 -12.328125 6.048828 14.378906 -20.785156 1.3769531 9.548828 -16.378906 10.857422 14.378906 -19.916016 9.212891 11.169922 19.835938 9.212891 11.169922 16.378906 10.857422 14.378906 20.78711 1.3769531 9.548828 12.328125 6.048828 14.378906 13.636719 2.4980469 11.169922 16.402344 10.822266 -14.4296875 16.402344 10.822266 14.4296875 12.357422 6.0390625 14.4296875 12.357422 6.0390625 -14.4296875 13.701172 48.98242 -11.169922 13.701172 48.98242 11.169922 20.78711 50.0625 9.548828 20.78711 50.0625 -9.548828 19.835938 42.11914 -11.169922 20.78711 50.0625 -9.548828 20.78711 50.0625 9.548828 19.835938 42.11914 11.169922 -13.638672 48.98242 -11.169922 -20.785156 50.0625 -9.548828 -20.785156 50.0625 9.548828 -13.638672 48.98242 11.169922 -19.916016 42.11914 -11.169922 -19.916016 42.11914 11.169922 -20.785156 50.0625 9.548828 -20.785156 50.0625 -9.548828 -20.785156 1.3769531 9.548828 -19.916016 9.212891 11.169922 -19.916016 9.212891 -11.169922 -20.785156 1.3769531 -9.548828 -13.640625 2.4980469 -11.169922 -13.640625 2.4980469 11.169922 -20.785156 1.3769531 9.548828 -20.785156 1.3769531 -9.548828 13.636719 2.4980469 11.169922 13.636719 2.4980469 -11.169922 20.78711 1.3769531 -9.548828 20.78711 1.3769531 9.548828 16.402344 40.658203 -14.4296875 16.402344 40.658203 14.4296875 16.402344 10.822266 14.4296875 16.402344 10.822266 -14.4296875 12.357422 45.439453 -14.4296875 12.357422 45.439453 14.4296875 16.402344 40.658203 14.4296875 16.402344 40.658203 -14.4296875 -16.402344 10.822266 14.4296875 -16.402344 10.822266 -14.4296875 -12.357422 6.0390625 -14.4296875 -12.357422 6.0390625 14.4296875 -12.357422 45.439453 14.4296875 -12.357422 45.439453 -14.4296875 -16.402344 40.658203 -14.4296875 -16.402344 40.658203 14.4296875 -12.357422 6.0390625 14.4296875 -12.357422 6.0390625 -14.4296875 12.357422 6.0390625 -14.4296875 12.357422 6.0390625 14.4296875 -12.357422 45.439453 -14.4296875 -12.357422 45.439453 14.4296875 12.357422 45.439453 14.4296875 12.357422 45.439453 -14.4296875 -16.402344 40.658203 -14.4296875 -16.402344 10.822266 -14.4296875 -16.402344 10.822266 14.4296875 -16.402344 40.658203 14.4296875 -13.345703 41.847656 17.976563 -16.402344 40.658203 14.4296875 -16.402344 10.822266 14.4296875 -13.345703 9.630859 17.976563 -13.345703 9.630859 17.976563 -12.357422 6.0390625 14.4296875 12.357422 6.0390625 14.4296875 13.345703 9.630859 17.976563 16.402344 40.658203 14.4296875 13.345703 41.847656 17.976563 13.345703 9.630859 17.976563 16.402344 10.822266 14.4296875 13.345703 41.847656 17.976563 12.357422 45.439453 14.4296875 -12.357422 45.439453 14.4296875 -13.345703 41.847656 17.976563 -13.345703 41.847656 -17.976563 -13.345703 9.630859 -17.976563 -16.402344 10.822266 -14.4296875 -16.402344 40.658203 -14.4296875 -13.345703 9.630859 -17.976563 13.345703 9.630859 -17.976563 12.357422 6.0390625 -14.4296875 -12.357422 6.0390625 -14.4296875 13.345703 9.630859 -17.976563 13.345703 41.847656 -17.976563 16.402344 40.658203 -14.4296875 16.402344 10.822266 -14.4296875 13.345703 41.847656 -17.976563 -13.345703 41.847656 -17.976563 -12.357422 45.439453 -14.4296875 12.357422 45.439453 -14.4296875 19.835938 9.212891 -11.169922 19.835938 9.212891 11.169922 20.78711 1.3769531 9.548828 20.78711 1.3769531 -9.548828 13.345703 41.847656 -17.976563 12.357422 45.439453 -14.4296875 16.402344 40.658203 -14.4296875 -4.6132813 6.048828 -14.378906 4.6132813 6.048828 -14.378906 0 -0.125 -9.519531 12.357422 45.439453 14.4296875 13.345703 41.847656 17.976563 16.402344 40.658203 14.4296875 13.345703 9.630859 17.976563 12.357422 6.0390625 14.4296875 16.402344 10.822266 14.4296875 16.378906 10.857422 -14.378906 16.378906 20.779297 -14.378906 22.47461 15.607422 -9.519531 -16.378906 20.779297 14.378906 -16.378906 30.701172 14.378906 -23.341797 25.740234 9.519531 -13.345703 9.630859 -17.976563 0 25.740234 -21.164063 13.345703 9.630859 -17.976563 -13.345703 41.847656 -17.976563 13.345703 41.847656 -17.976563 0 25.740234 -21.164063 13.345703 9.630859 -17.976563 0 25.740234 -21.164063 13.345703 41.847656 -17.976563 -13.345703 41.847656 -17.976563 0 25.740234 -21.164063 -13.345703 9.630859 -17.976563 -16.378906 40.621094 -14.378906 -16.378906 30.701172 -14.378906 -22.47461 36.003906 -9.519531 12.357422 6.0390625 -14.4296875 13.345703 9.630859 -17.976563 16.402344 10.822266 -14.4296875 -12.357422 6.0390625 -14.4296875 -16.402344 10.822266 -14.4296875 -13.345703 9.630859 -17.976563 -13.345703 9.630859 17.976563 -16.402344 10.822266 14.4296875 -12.357422 6.0390625 14.4296875 -13.345703 41.847656 -17.976563 -16.402344 40.658203 -14.4296875 -12.357422 45.439453 -14.4296875 -12.357422 45.439453 14.4296875 -16.402344 40.658203 14.4296875 -13.345703 41.847656 17.976563 -12.328125 6.048828 -14.378906 -4.6132813 6.048828 -14.378906 -8.464844 -0.125 -9.519531 -13.345703 41.847656 17.976563 0 25.740234 21.164063 13.345703 41.847656 17.976563 16.378906 30.701172 14.378906 16.378906 20.779297 14.378906 23.341797 25.740234 9.519531 16.378906 40.621094 14.378906 16.378906 30.701172 14.378906 22.47461 36.003906 9.519531 -22.47461 15.607422 -9.519531 -16.378906 20.779297 -14.378906 -16.378906 10.857422 -14.378906 -23.341797 25.740234 -9.519531 -16.378906 30.701172 -14.378906 -16.378906 20.779297 -14.378906 -8.464844 51.603516 9.519531 -12.328125 45.43164 14.378906 -4.6132813 45.43164 14.378906 0 52.34375 9.519531 -4.6132813 45.43164 14.378906 4.6132813 45.43164 14.378906 8.46875 51.603516 9.519531 4.6132813 45.43164 14.378906 12.328125 45.43164 14.378906 -8.464844 51.603516 -9.519531 -4.6132813 45.43164 -14.378906 -12.328125 45.43164 -14.378906 0 52.34375 -9.519531 4.6132813 45.39258 -14.378906 -4.6132813 45.43164 -14.378906 8.46875 51.603516 -9.519531 12.328125 45.43164 -14.378906 4.6132813 45.39258 -14.378906 0 -0.125 9.519531 4.6132813 6.048828 14.378906 -4.6132813 6.048828 14.378906 8.46875 -0.125 9.519531 12.328125 6.048828 14.378906 4.6132813 6.048828 14.378906 16.378906 20.779297 14.378906 16.378906 10.857422 14.378906 22.47461 15.607422 9.519531 16.378906 20.779297 -14.378906 16.378906 30.701172 -14.378906 23.341797 25.740234 -9.519531 16.378906 30.701172 -14.378906 16.378906 40.621094 -14.378906 22.47461 36.003906 -9.519531 4.6132813 6.048828 -14.378906 12.328125 6.048828 -14.378906 8.46875 -0.125 -9.519531 -16.378906 30.701172 14.378906 -16.378906 40.621094 14.378906 -22.47461 36.003906 9.519531 -16.378906 10.857422 14.378906 -16.378906 20.779297 14.378906 -22.47461 15.607422 9.519531 -4.6132813 6.048828 14.378906 -12.328125 6.048828 14.378906 -8.464844 -0.125 9.519531 </float_array>
          <technique_common>
            <accessor source="#positions-array" count="324" stride="3">
              <param name="X" type="float"/>
              <param name="Y" type="float"/>
              <param name="Z" type="float"/>
            </accessor>
          </technique_common>
        </source>
        <source id="texcoords">
          <float_array id="texcoords-array" count="648">0.9785156 0.099609375 0.021484375 0.099609375 1 0.21289063 0 0.21289063 0.9082031 0.016601563 0.091796875 0.016601563 1 0.21289063 0 0.21289063 0.9082031 0.016601563 0.091796875 0.016601563 1 0.21289063 0 0.21289063 0.9082031 0.016601563 0.091796875 0.016601563 1 0.21289063 0 0.21289063 0.9785156 0.099609375 0.021484375 0.099609375 0.9785156 0.21484375 0.021484375 0.21484375 1 0.0078125 0 0.0078125 0.9082031 0.21289063 0.091796875 0.21289063 1 0.0078125 0 0.0078125 0.9082031 0.21679688 0.091796875 0.21679688 1 0.0078125 0 0.0078125 0.9082031 0.21289063 0.091796875 0.21289063 1 0.0078125 0 0.0078125 0.9785156 0.21484375 0.021484375 0.21484375 0.021484375 0.20703125 0.9785156 0.20703125 0 0.0078125 1 0.0078125 0.091796875 0.21386719 0.9082031 0.21289063 0 0.0078125 1 0.0078125 0.091796875 0.21777344 0.9082031 0.21777344 0 0.0078125 1 0.0078125 0.091796875 0.21386719 0.9082031 0.21289063 0 0.0078125 1 0.0078125 0.021484375 0.20703125 0.9785156 0.20703125 0.021484375 0.1328125 0.9785156 0.1328125 0 0.017578125 1 0.017578125 0.091796875 0.21777344 0.9082031 0.21777344 0 0.017578125 1 0.017578125 0.091796875 0.21875 0.9082031 0.21875 0 0.017578125 1 0.017578125 0.091796875 0.21777344 0.9082031 0.21777344 0 0.017578125 1 0.017578125 0.021484375 0.1328125 0.9785156 0.1328125 -0.8125 0.92578125 -0.8125 0.30273438 0 0.6142578 0.8144531 0.30273438 0.8144531 0.92578125 0.3125 0.18457031 0.22070313 0.111328125 0.734375 0.19042969 0.48828125 0.013671875 0.7167969 0.044921875 0.27734375 0.044921875 0.51171875 0.013671875 0.265625 0.19042969 0.7792969 0.111328125 0.69140625 0.18457031 0.69140625 0.18457031 0.7792969 0.111328125 0.265625 0.19042969 0.51171875 0.013671875 0.27734375 0.044921875 0.27734375 0.17285156 0.51171875 0.20605469 0.265625 0.030273438 0.7792969 0.109375 0.69140625 0.036132813 0.30859375 0.036132813 0.22070313 0.109375 0.734375 0.030273438 0.48828125 0.20605469 0.7167969 0.17285156 0.7167969 0.044921875 0.48828125 0.013671875 0.734375 0.19042969 0.22070313 0.111328125 0.3125 0.18457031 0.69140625 0.036132813 0.7792969 0.109375 0.265625 0.030273438 0.51171875 0.20605469 0.27734375 0.17285156 0.7167969 0.17285156 0.48828125 0.20605469 0.734375 0.030273438 0.22070313 0.109375 0.30859375 0.036132813 -0.2265625 0.23632813 0.2265625 0.23632813 0.2265625 0.3173828 -0.2265625 0.3173828 0.021484375 0.0146484375 0.9785156 0.013671875 0.8964844 0.20800781 0.103515625 0.20800781 0.9785156 0.005859375 0.8964844 0.21191406 0.103515625 0.21191406 0.021484375 0.005859375 0.021484375 0.0078125 0.103515625 0.20800781 0.8964844 0.20800781 0.9785156 0.0078125 0.9785156 0.005859375 0.021484375 0.005859375 0.103515625 0.21191406 0.8964844 0.21191406 0.103515625 0.0107421875 0.021484375 0.20800781 0.9785156 0.20800781 0.8964844 0.0107421875 0.021484375 0.0078125 0.9785156 0.0078125 0.8964844 0.20800781 0.103515625 0.20800781 0.9785156 0.0068359375 0.021484375 0.0078125 0.103515625 0.20800781 0.8964844 0.20800781 1.0761719 0.3779297 1.0761719 0.9296875 0.921875 0.93066406 0.9199219 0.37890625 0.2265625 0.23632813 -0.2265625 0.23632813 -0.2265625 0.3125 0.2265625 0.3125 -0.2265625 0.23632813 0.2265625 0.23632813 0.2265625 0.33691406 -0.2265625 0.33691406 -0.2265625 0.23632813 0.2265625 0.23632813 0.2265625 0.3388672 -0.2265625 0.3388672 0.88671875 0.7685547 1.1074219 0.7675781 1.1074219 0.50878906 0.8847656 0.5097656 1.1074219 0.7675781 0.88671875 0.7685547 0.8847656 0.5097656 1.1074219 0.50878906 1.0761719 0.3779297 0.9199219 0.37890625 0.921875 0.93066406 1.0761719 0.9296875 -0.8125 0.92578125 -1 0.90234375 -1 0.3251953 -0.8125 0.30273438 -0.8125 0.30273438 -0.75390625 0.23242188 0.75390625 0.23242188 0.8144531 0.30273438 1 0.90234375 0.8144531 0.92578125 0.8144531 0.30273438 1 0.3251953 0.8144531 0.92578125 0.75390625 0.9951172 -0.75390625 0.9951172 -0.8125 0.92578125 -0.44726563 0.234375 0.24804688 0.234375 0.22265625 0.31054688 -0.41992188 0.31054688 -0.36914063 0.3173828 0.39257813 0.3173828 0.36328125 0.23144531 -0.34179688 0.23144531 0.24804688 0.23535156 -0.44726563 0.23535156 -0.41992188 0.31054688 0.22265625 0.31054688 0.22460938 0.22753906 -0.40820313 0.22753906 -0.38476563 0.3203125 0.20117188 0.3203125 0.9785156 0.20800781 0.021484375 0.20800781 0.103515625 0.0107421875 0.8964844 0.0107421875 0.22460938 0.22753906 0.20117188 0.3203125 0.296875 0.2265625 0.421875 0.19042969 0.84765625 0.19042969 0.6347656 0.009765625 0.75390625 0.9951172 0.8144531 0.92578125 1 0.90234375 0.8144531 0.30273438 0.75390625 0.23242188 1 0.3251953 0.083984375 0.026367188 0.36914063 0.026367188 0.21679688 0.17480469 0.36914063 0.026367188 0.65234375 0.026367188 0.5078125 0.19628906 0.9296875 0.36523438 1.1015625 0.6533203 0.9316406 0.94433594 0.78125 0.76464844 1.2207031 0.76464844 1 0.47558594 1.1113281 0.8183594 0.8066406 0.6542969 1.1113281 0.4892578 0.9121094 0.8183594 1.1738281 0.6542969 0.9121094 0.4892578 0.9355469 0.02734375 0.65234375 0.026367188 0.80078125 0.17578125 0.36328125 0.23144531 0.39257813 0.3173828 0.47851563 0.31835938 -0.34179688 0.23144531 -0.45703125 0.31835938 -0.36914063 0.3173828 -0.8125 0.30273438 -1 0.3251953 -0.75390625 0.23242188 -0.40820313 0.22753906 -0.48046875 0.2265625 -0.38476563 0.3203125 -0.75390625 0.9951172 -1 0.90234375 -0.8125 0.92578125 0.06640625 0.19042969 0.421875 0.19042969 0.24414063 0.009765625 -0.8125 0.92578125 0 0.6142578 0.8144531 0.92578125 0.65234375 0.02734375 0.36914063 0.026367188 0.5078125 0.1953125 0.9355469 0.02734375 0.65234375 0.02734375 0.80078125 0.17480469 0.21679688 0.17480469 0.36914063 0.026367188 0.083984375 0.026367188 0.5078125 0.19628906 0.65234375 0.026367188 0.36914063 0.026367188 0.17773438 0.18945313 0.03125 0.0029296875 0.3203125 0.0029296875 0.49414063 0.21191406 0.3203125 0.0029296875 0.6660156 0.0029296875 0.8105469 0.18945313 0.6660156 0.0029296875 0.9550781 0.0029296875 0.17773438 0.18945313 0.3203125 0.0029296875 0.03125 0.0029296875 0.49414063 0.21191406 0.6660156 0.0029296875 0.3203125 0.0029296875 0.8105469 0.18945313 0.9550781 0.0029296875 0.6660156 0.0029296875 0.6347656 0.009765625 0.84765625 0.19042969 0.421875 0.19042969 1.0253906 0.009765625 1.203125 0.19042969 0.84765625 0.19042969 0.36914063 0.026367188 0.083984375 0.026367188 0.21679688 0.17480469 0.36914063 0.026367188 0.65234375 0.02734375 0.5078125 0.1953125 0.65234375 0.02734375 0.9355469 0.02734375 0.80078125 0.17480469 0.84765625 0.19042969 1.203125 0.19042969 1.0253906 0.009765625 0.65234375 0.026367188 0.9355469 0.02734375 0.80078125 0.17578125 0.083984375 0.026367188 0.36914063 0.026367188 0.21679688 0.17480469 0.421875 0.19042969 0.06640625 0.19042969 0.24414063 0.009765625 </float_array>
          <technique_common>
            <accessor source="#texcoords-array" count="324" stride="2">
              <param name="S" type="float"/>
              <param name="T" type="float"/>
            </accessor>
          </technique_common>
        </source>
        <source id="normals">
          <float_array id="normals-array" count="972">-0.43403274 -0.84264916 -0.3186817 -0.43403274 -0.84264916 0.3186817 0.093735516 -0.7049692 -0.7030164 0.093735516 -0.7049692 0.7030164 0 -0.9058337 -0.42363343 0 -0.9058337 0.42363343 -0.017594846 -0.8328227 -0.55326015 -0.017594846 -0.8328227 0.55326015 0 -0.9058337 -0.42363343 0 -0.9058337 0.42363343 -0.017594846 -0.8328227 -0.55326015 -0.017594846 -0.8328227 0.55326015 0 -0.9058337 -0.42363343 0 -0.9058337 0.42363343 -0.09386429 -0.7059377 -0.70202667 -0.09386429 -0.7059377 0.70202667 0.43403274 -0.84264916 -0.3186817 0.43403274 -0.84264916 0.3186817 -0.85929304 -0.40035245 0.318329 -0.85929304 -0.40035245 -0.318329 -0.7302849 0.070294805 0.67951643 -0.7302849 0.070294805 -0.67951643 -0.92361325 0.021479378 0.38272345 -0.92361325 0.021479378 -0.38272345 -0.8342549 0.021491345 0.55095994 -0.83431864 -0.01758517 -0.55100197 -0.92361325 0.021479378 0.38272345 -0.92361325 0.021479378 -0.38272345 -0.8342549 0.021491345 0.55095994 -0.83431864 -0.01758517 -0.55100197 -0.92361325 0.021479378 0.38272345 -0.92361325 0.021479378 -0.38272345 -0.7357964 -0.07221344 0.6733416 -0.7357964 -0.07221344 -0.6733416 -0.8641652 0.39102498 0.31673023 -0.8641652 0.39102498 -0.31673023 0.85953075 -0.40437016 -0.31255665 0.85953075 -0.40437016 0.31255665 0.7341328 0.06833683 -0.6755584 0.7341328 0.06833683 0.6755584 0.92361325 0.021479378 -0.38272345 0.92361325 0.021479378 0.38272345 0.8342549 0.021491345 -0.55095994 0.8342549 0.021491345 0.55095994 0.92361325 0.021479378 -0.38272345 0.92361325 0.021479378 0.38272345 0.8342549 0.021491345 -0.55095994 0.8342549 0.021491345 0.55095994 0.92361325 0.021479378 -0.38272345 0.92361325 0.021479378 0.38272345 0.7396111 -0.0702533 -0.66935784 0.7396111 -0.0702533 0.66935784 0.864921 0.39438835 -0.3104344 0.864921 0.39438835 0.3104344 -0.4278364 0.8459048 0.3184353 -0.4278364 0.8459048 -0.3184353 0.097737566 0.70761997 0.69980097 0.09566992 0.7067859 -0.7009286 0.0078124255 -0.9511628 0.3085908 -0.001954057 0.9047284 -0.4259844 0.005854341 0.81765634 0.57567686 0.007805684 0.81764543 -0.5756692 0.0078124255 -0.9511628 0.3085908 -0.001954057 0.9047284 -0.4259844 0.005854341 0.81765634 0.57567686 0.007805684 0.81764543 -0.5756692 0.0078124255 -0.9511628 0.3085908 -0.001954057 0.9047284 -0.4259844 -0.09580203 0.7058068 0.70189655 -0.09580203 0.7058068 -0.70189655 0.43146208 0.843401 0.32018 0.43146208 0.843401 -0.32018 -0.38872674 0.34184512 0.8555895 -0.38872674 -0.34184512 0.8555895 0 0 1 0.38872674 -0.34184512 0.8555895 0.38872674 0.34184512 0.8555895 -0.4278364 0.8459048 0.3184353 0.097737566 0.70761997 0.69980097 0.14259064 -0.9512553 0.2734615 0.7341328 0.06833683 0.6755584 0.85953075 -0.40437016 0.31255665 -0.85929304 -0.40035245 0.318329 -0.7302849 0.070294805 0.67951643 -0.13861108 -0.9507549 0.27722216 -0.09580203 0.7058068 0.70189655 0.43146208 0.843401 0.32018 0.43146208 0.843401 -0.32018 -0.09580203 0.7058068 -0.70189655 -0.528956 0.528956 -0.6636348 -0.7302849 0.070294805 -0.67951643 -0.85929304 -0.40035245 -0.318329 -0.8641652 0.39102498 -0.31673023 -0.7357964 -0.07221344 -0.6733416 -0.52686363 -0.528815 -0.66540927 -0.09386429 -0.7059377 -0.70202667 0.43403274 -0.84264916 -0.3186817 -0.43403274 -0.84264916 -0.3186817 0.093735516 -0.7049692 -0.7030164 0.53145176 -0.5255902 -0.6643147 0.7396111 -0.0702533 -0.66935784 0.864921 0.39438835 -0.3104344 0.85953075 -0.40437016 -0.31255665 0.7341328 0.06833683 -0.6755584 0.5333975 0.5236283 -0.66430455 0.09566992 0.7067859 -0.7009286 -0.4278364 0.8459048 -0.3184353 0.43403274 -0.84264916 0.3186817 -0.09386429 -0.7059377 0.70202667 -0.52686363 -0.528815 0.66540927 -0.7357964 -0.07221344 0.6733416 -0.8641652 0.39102498 0.31673023 0.864921 0.39438835 0.3104344 0.7396111 -0.0702533 0.66935784 0.53145176 -0.5255902 0.6643147 0.093735516 -0.7049692 0.7030164 -0.43403274 -0.84264916 0.3186817 0.89227015 -0.3436314 -0.29286766 0.89227015 -0.3436314 0.29286766 0.43403274 -0.84264916 0.3186817 0.43403274 -0.84264916 -0.3186817 -0.4278364 0.8459048 -0.3184353 -0.4278364 0.8459048 0.3184353 0.14259064 -0.9512553 0.2734615 0.5333975 0.5236283 -0.66430455 0.85953075 -0.40437016 -0.31255665 0.5333975 0.5236283 -0.66430455 0.14259064 -0.9512553 0.2734615 0.85953075 -0.40437016 0.31255665 0.43146208 0.843401 -0.32018 -0.528956 0.528956 -0.6636348 -0.13861108 -0.9507549 0.27722216 0.43146208 0.843401 0.32018 -0.85929304 -0.40035245 -0.318329 -0.85929304 -0.40035245 0.318329 -0.13861108 -0.9507549 0.27722216 -0.528956 0.528956 -0.6636348 -0.52686363 -0.528815 0.66540927 -0.8641652 0.39102498 0.31673023 -0.8641652 0.39102498 -0.31673023 -0.52686363 -0.528815 -0.66540927 0.43403274 -0.84264916 -0.3186817 0.43403274 -0.84264916 0.3186817 -0.52686363 -0.528815 0.66540927 -0.52686363 -0.528815 -0.66540927 -0.43403274 -0.84264916 0.3186817 -0.43403274 -0.84264916 -0.3186817 0.53145176 -0.5255902 -0.6643147 0.53145176 -0.5255902 0.6643147 0.89227015 0.3436314 -0.29286766 0.89227015 0.3436314 0.29286766 0.89227015 -0.3436314 0.29286766 0.89227015 -0.3436314 -0.29286766 0.43146208 0.843401 -0.32018 0.43146208 0.843401 0.32018 0.89227015 0.3436314 0.29286766 0.89227015 0.3436314 -0.29286766 -0.89227015 -0.3436314 0.29286766 -0.89227015 -0.3436314 -0.29286766 -0.43403274 -0.84264916 -0.3186817 -0.43403274 -0.84264916 0.3186817 -0.4278364 0.8459048 0.3184353 -0.4278364 0.8459048 -0.3184353 -0.8641652 0.39102498 -0.31673023 -0.8641652 0.39102498 0.31673023 -0.43403274 -0.84264916 0.3186817 -0.43403274 -0.84264916 -0.3186817 0.43403274 -0.84264916 -0.3186817 0.43403274 -0.84264916 0.3186817 -0.4278364 0.8459048 -0.3184353 -0.4278364 0.8459048 0.3184353 0.43146208 0.843401 0.32018 0.43146208 0.843401 -0.32018 -0.8641652 0.39102498 -0.31673023 -0.89227015 -0.3436314 -0.29286766 -0.89227015 -0.3436314 0.29286766 -0.8641652 0.39102498 0.31673023 -0.38872674 0.34184512 0.8555895 -0.8641652 0.39102498 0.31673023 -0.89227015 -0.3436314 0.29286766 -0.38872674 -0.34184512 0.8555895 -0.38872674 -0.34184512 0.8555895 -0.43403274 -0.84264916 0.3186817 0.43403274 -0.84264916 0.3186817 0.38872674 -0.34184512 0.8555895 0.89227015 0.3436314 0.29286766 0.38872674 0.34184512 0.8555895 0.38872674 -0.34184512 0.8555895 0.89227015 -0.3436314 0.29286766 0.38872674 0.34184512 0.8555895 0.43146208 0.843401 0.32018 -0.4278364 0.8459048 0.3184353 -0.38872674 0.34184512 0.8555895 -0.38872674 0.34184512 -0.8555895 -0.38872674 -0.34184512 -0.8555895 -0.89227015 -0.3436314 -0.29286766 -0.8641652 0.39102498 -0.31673023 -0.38872674 -0.34184512 -0.8555895 0.38872674 -0.34184512 -0.8555895 0.43403274 -0.84264916 -0.3186817 -0.43403274 -0.84264916 -0.3186817 0.38872674 -0.34184512 -0.8555895 0.38872674 0.34184512 -0.8555895 0.89227015 0.3436314 -0.29286766 0.89227015 -0.3436314 -0.29286766 0.38872674 0.34184512 -0.8555895 -0.38872674 0.34184512 -0.8555895 -0.4278364 0.8459048 -0.3184353 0.43146208 0.843401 -0.32018 0.864921 0.39438835 -0.3104344 0.864921 0.39438835 0.3104344 0.53145176 -0.5255902 0.6643147 0.53145176 -0.5255902 -0.6643147 0.38872674 0.34184512 -0.8555895 0.43146208 0.843401 -0.32018 0.89227015 0.3436314 -0.29286766 -0.017594846 -0.8328227 -0.55326015 -0.017594846 -0.8328227 -0.55326015 0 -0.9058337 -0.42363343 0.43146208 0.843401 0.32018 0.38872674 0.34184512 0.8555895 0.89227015 0.3436314 0.29286766 0.38872674 -0.34184512 0.8555895 0.43403274 -0.84264916 0.3186817 0.89227015 -0.3436314 0.29286766 0.7396111 -0.0702533 -0.66935784 0.8342549 0.021491345 -0.55095994 0.92361325 0.021479378 -0.38272345 -0.8342549 0.021491345 0.55095994 -0.8342549 0.021491345 0.55095994 -0.92361325 0.021479378 0.38272345 -0.38872674 -0.34184512 -0.8555895 0 0 -1 0.38872674 -0.34184512 -0.8555895 -0.38872674 0.34184512 -0.8555895 0.38872674 0.34184512 -0.8555895 0 0 -1 0.38872674 -0.34184512 -0.8555895 0 0 -1 0.38872674 0.34184512 -0.8555895 -0.38872674 0.34184512 -0.8555895 0 0 -1 -0.38872674 -0.34184512 -0.8555895 -0.7302849 0.070294805 -0.67951643 -0.83431864 -0.01758517 -0.55100197 -0.92361325 0.021479378 -0.38272345 0.43403274 -0.84264916 -0.3186817 0.38872674 -0.34184512 -0.8555895 0.89227015 -0.3436314 -0.29286766 -0.43403274 -0.84264916 -0.3186817 -0.89227015 -0.3436314 -0.29286766 -0.38872674 -0.34184512 -0.8555895 -0.38872674 -0.34184512 0.8555895 -0.89227015 -0.3436314 0.29286766 -0.43403274 -0.84264916 0.3186817 -0.38872674 0.34184512 -0.8555895 -0.8641652 0.39102498 -0.31673023 -0.4278364 0.8459048 -0.3184353 -0.4278364 0.8459048 0.3184353 -0.8641652 0.39102498 0.31673023 -0.38872674 0.34184512 0.8555895 -0.09386429 -0.7059377 -0.70202667 -0.017594846 -0.8328227 -0.55326015 0 -0.9058337 -0.42363343 -0.38872674 0.34184512 0.8555895 0 0 1 0.38872674 0.34184512 0.8555895 0.8342549 0.021491345 0.55095994 0.8342549 0.021491345 0.55095994 0.92361325 0.021479378 0.38272345 0.7341328 0.06833683 0.6755584 0.8342549 0.021491345 0.55095994 0.92361325 0.021479378 0.38272345 -0.92361325 0.021479378 -0.38272345 -0.83431864 -0.01758517 -0.55100197 -0.7357964 -0.07221344 -0.6733416 -0.92361325 0.021479378 -0.38272345 -0.83431864 -0.01758517 -0.55100197 -0.83431864 -0.01758517 -0.55100197 0.0078124255 -0.9511628 0.3085908 -0.09580203 0.7058068 0.70189655 0.005854341 0.81765634 0.57567686 0.0078124255 -0.9511628 0.3085908 0.005854341 0.81765634 0.57567686 0.005854341 0.81765634 0.57567686 0.0078124255 -0.9511628 0.3085908 0.005854341 0.81765634 0.57567686 0.097737566 0.70761997 0.69980097 -0.001954057 0.9047284 -0.4259844 0.007805684 0.81764543 -0.5756692 -0.09580203 0.7058068 -0.70189655 -0.001954057 0.9047284 -0.4259844 0.007805684 0.81764543 -0.5756692 0.007805684 0.81764543 -0.5756692 -0.001954057 0.9047284 -0.4259844 0.09566992 0.7067859 -0.7009286 0.007805684 0.81764543 -0.5756692 0 -0.9058337 0.42363343 -0.017594846 -0.8328227 0.55326015 -0.017594846 -0.8328227 0.55326015 0 -0.9058337 0.42363343 0.093735516 -0.7049692 0.7030164 -0.017594846 -0.8328227 0.55326015 0.8342549 0.021491345 0.55095994 0.7396111 -0.0702533 0.66935784 0.92361325 0.021479378 0.38272345 0.8342549 0.021491345 -0.55095994 0.8342549 0.021491345 -0.55095994 0.92361325 0.021479378 -0.38272345 0.8342549 0.021491345 -0.55095994 0.7341328 0.06833683 -0.6755584 0.92361325 0.021479378 -0.38272345 -0.017594846 -0.8328227 -0.55326015 0.093735516 -0.7049692 -0.7030164 0 -0.9058337 -0.42363343 -0.8342549 0.021491345 0.55095994 -0.7302849 0.070294805 0.67951643 -0.92361325 0.021479378 0.38272345 -0.7357964 -0.07221344 0.6733416 -0.8342549 0.021491345 0.55095994 -0.92361325 0.021479378 0.38272345 -0.017594846 -0.8328227 0.55326015 -0.09386429 -0.7059377 0.70202667 0 -0.9058337 0.42363343 </float_array>
          <technique_common>
            <accessor source="#normals-array" count="324" stride="3">
              <param name="X" type="float"/>
              <param name="Y" type="float"/>
              <param name="Z" type="float"/>
            </accessor>
          </technique_common>
        </source>
        <vertices id="vertices">
          <input semantic="POSITION" source="#positions"/>
          <input semantic="TEXCOORD" source="#texcoords"/>
          <input semantic="NORMAL" source="#normals"/>
        </vertices>
        <polylist material="material0" count="120">
          <input semantic="VERTEX" source="#vertices" offset="0"/>
          <vcount>4 4 4 4 4 4 4 4 4 4 4 4 4 4 4 4 4 4 4 4 4 4 4 4 4 4 4 4 4 4 4 4 3 3 3 3 3 3 3 3 3 3 3 3 3 3 3 3 3 3 3 3 3 3 3 3 3 3 3 4 4 4 4 4 4 4 4 4 4 4 4 4 4 4 4 4 4 4 4 4 4 4 4 3 3 3 3 3 3 3 3 3 3 3 3 3 3 3 3 3 3 3 3 3 3 3 3 3 3 3 3 3 3 3 3 3 3 3 3 3 </vcount>
          <p>0 1 3 2 2 3 5 4 4 5 7 6 6 7 9 8 8 9 11 10 10 11 13 12 12 13 15 14 14 15 17 16 18 19 21 20 20 21 23 22 22 23 25 24 24 25 27 26 26 27 29 28 28 29 31 30 30 31 33 32 32 33 35 34 36 37 39 38 38 39 41 40 40 41 43 42 42 43 45 44 44 45 47 46 46 47 49 48 48 49 51 50 50 51 53 52 54 55 57 56 56 57 59 58 58 59 61 60 60 61 63 62 62 63 65 64 64 65 67 66 66 67 69 68 68 69 71 70 72 73 74 73 75 74 74 75 76 77 78 79 78 80 79 79 80 81 82 83 84 83 85 84 84 85 86 87 88 89 88 90 89 89 90 91 92 93 94 93 95 94 94 95 96 97 98 99 98 100 99 99 100 101 102 103 104 103 105 104 104 105 106 107 108 109 108 110 109 109 110 111 112 113 114 113 115 114 114 115 116 117 118 119 120 121 122 123 124 125 126 127 128 129 130 131 132 133 134 135 136 137 138 139 140 141 142 143 144 145 146 147 148 149 150 151 152 153 154 155 156 157 158 159 160 161 162 163 164 165 166 167 168 169 170 171 172 173 174 175 176 177 178 179 180 181 182 183 184 185 186 187 188 189 190 191 192 193 194 195 196 197 198 199 200 201 202 203 204 205 206 207 208 209 210 211 212 213 214 215 216 217 218 219 220 221 222 223 224 225 226 227 228 229 230 231 232 233 234 235 236 237 238 239 240 241 242 243 244 245 246 247 248 249 250 251 252 253 254 255 256 257 258 259 260 261 262 263 264 265 266 267 268 269 270 271 272 273 274 275 276 277 278 279 280 281 282 283 284 285 286 287 288 289 290 291 292 293 294 295 296 297 298 299 300 301 302 303 304 305 306 307 308 309 310 311 312 313 314 315 316 317 318 319 320 321 322 323 </p>
        </polylist>
      </mesh>
    </geometry>
  </library_geometries>
  <library_controllers>
    <controller id="controller">
      <skin source="#geometry">
        <source id="controller-joints">
          <Name_array id="controller-joints-array" count="1">joint0 </Name_array>
          <technique_common>
            <accessor source="#controller-joints-array" count="1">
              <param name="JOINT" type="Name"/>
            </accessor>
          </technique_common>
        </source>
        <source id="controller-bind-poses">
          <float_array id="controller-bind-poses-array" count="16">1 -0 0 -0 -0 1 -0 0 0 -0 1 -0 -0 0 -0 1 </float_array>
          <technique_common>
            <accessor source="#controller-bind-poses-array" count="1" stride="16">
              <param name="TRANSFORM" type="float4x4"/>
            </accessor>
          </technique_common>
        </source>
        <source id="controller-weights">
          <float_array id="controller-weights-array" count="1">1 </float_array>
          <technique_common>
            <accessor source="#controller-weights-array" count="1">
              <param name="WEIGHT" type="float"/>
            </accessor>
          </technique_common>
        </source>
        <joints>
          <input semantic="JOINT" source="#controller-joints"/>
          <input semantic="INV_BIND_MATRIX" source="#controller-bind-poses"/>
        </joints>
        <vertex_weights count="324">
          <input semantic="JOINT" source="#controller-joints" offset="0"/>
          <input semantic="WEIGHT" source="#controller-weights" offset="1"/>
          <vcount>1 1 1 1 1 1 1 1 1 1 1 1 1 1 1 1 1 1 1 1 1 1 1 1 1 1 1 1 1 1 1 1 1 1 1 1 1 1 1 1 1 1 1 1 1 1 1 1 1 1 1 1 1 1 1 1 1 1 1 1 1 1 1 1 1 1 1 1 1 1 1 1 1 1 1 1 1 1 1 1 1 1 1 1 1 1 1 1 1 1 1 1 1 1 1 1 1 1 1 1 1 1 1 1 1 1 1 1 1 1 1 1 1 1 1 1 1 1 1 1 1 1 1 1 1 1 1 1 1 1 1 1 1 1 1 1 1 1 1 1 1 1 1 1 1 1 1 1 1 1 1 1 1 1 1 1 1 1 1 1 1 1 1 1 1 1 1 1 1 1 1 1 1 1 1 1 1 1 1 1 1 1 1 1 1 1 1 1 1 1 1 1 1 1 1 1 1 1 1 1 1 1 1 1 1 1 1 1 1 1 1 1 1 1 1 1 1 1 1 1 1 1 1 1 1 1 1 1 1 1 1 1 1 1 1 1 1 1 1 1 1 1 1 1 1 1 1 1 1 1 1 1 1 1 1 1 1 1 1 1 1 1 1 1 1 1 1 1 1 1 1 1 1 1 1 1 1 1 1 1 1 1 1 1 1 1 1 1 1 1 1 1 1 1 1 1 1 1 1 1 1 1 1 1 1 1 1 1 1 1 1 1 1 1 1 1 1 1 1 1 1 1 1 1 </vcount>
          <v>0 0 0 0 0 0 0 0 0 0 0 0 0 0 0 0 0 0 0 0 0 0 0 0 0 0 0 0 0 0 0 0 0 0 0 0 0 0 0 0 0 0 0 0 0 0 0 0 0 0 0 0 0 0 0 0 0 0 0 0 0 0 0 0 0 0 0 0 0 0 0 0 0 0 0 0 0 0 0 0 0 0 0 0 0 0 0 0 0 0 0 0 0 0 0 0 0 0 0 0 0 0 0 0 0 0 0 0 0 0 0 0 0 0 0 0 0 0 0 0 0 0 0 0 0 0 0 0 0 0 0 0 0 0 0 0 0 0 0 0 0 0 0 0 0 0 0 0 0 0 0 0 0 0 0 0 0 0 0 0 0 0 0 0 0 0 0 0 0 0 0 0 0 0 0 0 0 0 0 0 0 0 0 0 0 0 0 0 0 0 0 0 0 0 0 0 0 0 0 0 0 0 0 0 0 0 0 0 0 0 0 0 0 0 0 0 0 0 0 0 0 0 0 0 0 0 0 0 0 0 0 0 0 0 0 0 0 0 0 0 0 0 0 0 0 0 0 0 0 0 0 0 0 0 0 0 0 0 0 0 0 0 0 0 0 0 0 0 0 0 0 0 0 0 0 0 0 0 0 0 0 0 0 0 0 0 0 0 0 0 0 0 0 0 0 0 0 0 0 0 0 0 0 0 0 0 0 0 0 0 0 0 0 0 0 0 0 0 0 0 0 0 0 0 0 0 0 0 0 0 0 0 0 0 0 0 0 0 0 0 0 0 0 0 0 0 0 0 0 0 0 0 0 0 0 0 0 0 0 0 0 0 0 0 0 0 0 0 0 0 0 0 0 0 0 0 0 0 0 0 0 0 0 0 0 0 0 0 0 0 0 0 0 0 0 0 0 0 0 0 0 0 0 0 0 0 0 0 0 0 0 0 0 0 0 0 0 0 0 0 0 0 0 0 0 0 0 0 0 0 0 0 0 0 0 0 0 0 0 0 0 0 0 0 0 0 0 0 0 0 0 0 0 0 0 0 0 0 0 0 0 0 0 0 0 0 0 0 0 0 0 0 0 0 0 0 0 0 0 0 0 0 0 0 0 0 0 0 0 0 0 0 0 0 0 0 0 0 0 0 0 0 0 0 0 0 0 0 0 0 0 0 0 0 0 0 0 0 0 0 0 0 0 0 0 0 0 0 0 0 0 0 0 0 0 0 0 0 0 0 0 0 0 0 0 0 0 0 0 0 0 0 0 0 0 0 0 0 0 0 0 0 0 0 0 0 0 0 0 0 0 0 0 0 0 0 0 0 0 0 0 0 0 0 0 0 0 0 0 0 0 0 0 0 0 0 0 0 0 0 0 0 0 0 0 0 0 0 0 0 0 0 0 0 0 0 0 0 0 0 0 0 0 0 0 0 0 0 0 0 0 0 0 0 0 0 0 0 0 0 0 0 0 0 0 0 0 0 </v>
        </vertex_weights>
      </skin>
    </controller>
  </library_controllers>
  <library_visual_scenes>
    <visual_scene id="scene0" name="dossun">
      <node id="joint0" sid="joint0" name="dossun_model" type="JOINT">
        <matrix sid="transform">1 0 0 0 0 1 0 0 0 0 1 0 0 0 0 1</matrix>
      </node>
      <node id="node" name="dossun" type="NODE">
        <instance_controller url="#controller">
          <skeleton>#joint0</skeleton>
          <bind_material>
            <technique_common>
              <instance_material symbol="material0" target="#material0">
                <bind_vertex_input semantic="tc" input_semantic="TEXCOORD"/>
              </instance_material>
            </technique_common>
          </bind_material>
        </instance_controller>
      </node>
    </visual_scene>
  </library_visual_scenes>
  <scene>
    <instance_visual_scene url="#scene0"/>
  </scene>
</COLLADA>
